<svg width="22" height="20" viewBox="0 0 22 20" fill="none" xmlns="http://www.w3.org/2000/svg">
<path d="M4 16C2.34315 16 1 14.6569 1 13V5.8C1 4.11984 1 3.27976 1.32698 2.63803C1.6146 2.07354 2.07354 1.6146 2.63803 1.32698C3.27976 1 4.11984 1 5.8 1H16.2C17.8802 1 18.7202 1 19.362 1.32698C19.9265 1.6146 20.3854 2.07354 20.673 2.63803C21 3.27976 21 4.11984 21 5.8V13C21 14.6569 19.6569 16 18 16M7.70803 19H14.292C14.8368 19 15.1093 19 15.2467 18.8889C15.3663 18.7923 15.4347 18.6461 15.4324 18.4925C15.4298 18.3157 15.2554 18.1064 14.9065 17.6879L11.6146 13.7375C11.4035 13.4842 11.298 13.3576 11.1716 13.3114C11.0608 13.2709 10.9392 13.2709 10.8284 13.3114C10.702 13.3576 10.5965 13.4842 10.3854 13.7375L7.09346 17.6879C6.74465 18.1064 6.57024 18.3157 6.56758 18.4925C6.56526 18.6461 6.63373 18.7923 6.75326 18.8889C6.89075 19 7.16318 19 7.70803 19Z" stroke="#667085" stroke-width="2" stroke-linecap="round" stroke-linejoin="round"/>
</svg>
