<svg width="44" height="44" viewBox="0 0 44 44" fill="none" xmlns="http://www.w3.org/2000/svg">
<rect width="44" height="44" rx="22" fill="#152174"/>
<path d="M19 15C19 13.3431 20.3431 12 22 12C23.6569 12 25 13.3431 25 15V22C25 23.6569 23.6569 25 22 25C20.3431 25 19 23.6569 19 22V15Z" fill="white"/>
<path d="M29 20V22C29 25.866 25.866 29 22 29M15 20V22C15 25.866 18.134 29 22 29M22 29V32M18 32H26M22 25C20.3431 25 19 23.6569 19 22V15C19 13.3431 20.3431 12 22 12C23.6569 12 25 13.3431 25 15V22C25 23.6569 23.6569 25 22 25Z" stroke="white" stroke-linecap="round" stroke-linejoin="round"/>
</svg>
