<svg width="64" height="47" viewBox="0 0 64 47" fill="none" xmlns="http://www.w3.org/2000/svg">
<path d="M22 7.93359C19.8988 7.93359 17.8183 8.34745 15.8771 9.15152C13.9359 9.9556 12.172 11.1341 10.6863 12.6199C9.20055 14.1056 8.022 15.8694 7.21793 17.8107C6.41385 19.7519 6 21.8324 6 23.9336C6 26.0347 6.41385 28.1153 7.21793 30.0565C8.022 31.9977 9.20055 33.7616 10.6863 35.2473C12.172 36.733 13.9359 37.9116 15.8771 38.7157C17.8183 39.5197 19.8989 39.9336 22 39.9336L22 23.9336L22 7.93359Z" fill="#4B75CB" fill-opacity="0.2"/>
<g filter="url(#filter0_d_4059_124166)">
<circle cx="22" cy="23.9336" r="13.5" fill="#1D3E6C"/>
<circle cx="22" cy="23.9336" r="12" stroke="#FAFAFA" stroke-width="3"/>
</g>
<path d="M26.8914 23.9348L19.9493 28.4656L19.9493 19.404L26.8914 23.9348Z" fill="white"/>
<defs>
<filter id="filter0_d_4059_124166" x="-19.5" y="-17.5664" width="83" height="83" filterUnits="userSpaceOnUse" color-interpolation-filters="sRGB">
<feFlood flood-opacity="0" result="BackgroundImageFix"/>
<feColorMatrix in="SourceAlpha" type="matrix" values="0 0 0 0 0 0 0 0 0 0 0 0 0 0 0 0 0 0 127 0" result="hardAlpha"/>
<feMorphology radius="12" operator="erode" in="SourceAlpha" result="effect1_dropShadow_4059_124166"/>
<feOffset/>
<feGaussianBlur stdDeviation="20"/>
<feColorMatrix type="matrix" values="0 0 0 0 0 0 0 0 0 0 0 0 0 0 0 0 0 0 0.2 0"/>
<feBlend mode="normal" in2="BackgroundImageFix" result="effect1_dropShadow_4059_124166"/>
<feBlend mode="normal" in="SourceGraphic" in2="effect1_dropShadow_4059_124166" result="shape"/>
</filter>
</defs>
</svg>
