<svg width="111" height="139" viewBox="0 0 111 139" fill="none" xmlns="http://www.w3.org/2000/svg">
<g opacity="0.3">
<path d="M21.6908 2.88281H6.23584V31.924H21.6908V2.88281Z" stroke="black" stroke-linecap="round" stroke-linejoin="round"/>
<path d="M38.2071 2.88281H22.7522V31.924H38.2071V2.88281Z" stroke="black" stroke-linecap="round" stroke-linejoin="round"/>
<path d="M54.7237 2.88281H39.2688V31.924H54.7237V2.88281Z" stroke="black" stroke-linecap="round" stroke-linejoin="round"/>
<path d="M21.6908 33.3164H6.23584V62.3576H21.6908V33.3164Z" stroke="black" stroke-linecap="round" stroke-linejoin="round"/>
<path d="M38.2071 33.3164H22.7522V62.3576H38.2071V33.3164Z" stroke="black" stroke-linecap="round" stroke-linejoin="round"/>
<path d="M54.7237 33.3164H39.2688V62.3576H54.7237V33.3164Z" stroke="black" stroke-linecap="round" stroke-linejoin="round"/>
<path d="M21.6908 63.75H6.23584V92.7912H21.6908V63.75Z" stroke="black" stroke-linecap="round" stroke-linejoin="round"/>
<path d="M38.2071 63.75H22.7522V92.7912H38.2071V63.75Z" stroke="black" stroke-linecap="round" stroke-linejoin="round"/>
<path d="M54.7237 63.75H39.2688V92.7912H54.7237V63.75Z" stroke="black" stroke-linecap="round" stroke-linejoin="round"/>
</g>
<path d="M100.728 7.2605V99.674C100.728 100.892 100.359 102.061 99.7033 102.922C99.0473 103.784 98.1574 104.269 97.2294 104.27H66.8113C65.8833 104.269 64.9935 103.784 64.3375 102.922C63.6815 102.061 63.313 100.892 63.313 99.674V7.25745C63.313 6.04025 63.6813 4.87291 64.337 4.01222C64.9926 3.15152 65.8818 2.66799 66.809 2.66799H79.8652L79.8768 2.71977C80.2016 4.25771 80.9509 5.25661 81.7814 5.25661H82.2454C83.0782 5.25661 83.8252 4.25771 84.1523 2.71977L84.1639 2.66799H97.2178C97.6782 2.66599 98.1343 2.7833 98.5601 3.0132C98.9859 3.2431 99.3729 3.58106 99.699 4.00771C100.025 4.43436 100.284 4.94132 100.46 5.4995C100.637 6.05768 100.728 6.65612 100.728 7.2605Z" fill="white"/>
<path d="M100.728 73.5259V7.26047C100.728 6.04247 100.359 4.87434 99.7031 4.01308C99.047 3.15182 98.1572 2.66797 97.2294 2.66797H84.1755L84.1639 2.71974C83.8368 4.25768 83.0898 5.25658 82.257 5.25658H81.793C80.9625 5.25658 80.2132 4.25768 79.8884 2.71974L79.8768 2.66797H66.809C65.8818 2.66797 64.9926 3.1515 64.337 4.01219C63.6813 4.87288 63.313 6.04023 63.313 7.25743V73.5259H100.728Z" fill="#92E3A9"/>
<path d="M84.1633 2.71974C83.8362 4.25768 83.0892 5.25658 82.2564 5.25658H81.7924C80.9619 5.25658 80.2126 4.25768 79.8878 2.71974L79.8762 2.66797H68.8615C67.5411 2.66794 66.264 3.2857 65.2593 4.41036C64.2546 5.53503 63.5882 7.09296 63.3796 8.80451H100.658C100.449 7.09347 99.7829 5.53595 98.7787 4.41135C97.7746 3.28675 96.498 2.66866 95.178 2.66797H84.1749L84.1633 2.71974Z" fill="#D4D4D4"/>
<path d="M103.106 29.3316V20.1009H102.464V8.28466C102.464 6.35265 101.879 4.49977 100.839 3.13363C99.7979 1.76749 98.3865 1 96.9148 1H67.1185C66.3897 1 65.6681 1.18842 64.9949 1.55451C64.3216 1.9206 63.7099 2.45719 63.1946 3.13363C62.6794 3.81007 62.2706 4.61313 61.9917 5.49694C61.7129 6.38076 61.5693 7.32803 61.5693 8.28466V102.184C61.5693 103.141 61.7129 104.088 61.9917 104.972C62.2706 105.856 62.6794 106.659 63.1946 107.335C63.7099 108.012 64.3216 108.548 64.9949 108.914C65.6681 109.281 66.3897 109.469 67.1185 109.469H96.9217C98.3923 109.467 99.8019 108.698 100.841 107.332C101.88 105.966 102.464 104.115 102.464 102.184V37.198H103.1V31.7436H102.464V29.3316H103.106ZM100.729 96.9827C100.728 98.9145 100.143 100.767 99.1027 102.133C98.0621 103.499 96.6511 104.267 95.1795 104.267H68.863C68.1343 104.267 67.4127 104.079 66.7394 103.713C66.0662 103.347 65.4545 102.81 64.9392 102.134C64.4239 101.457 64.0151 100.654 63.7363 99.7705C63.4574 98.8867 63.3139 97.9394 63.3139 96.9827V9.94442C63.3151 8.01346 63.9003 6.16215 64.9408 4.79732C65.9813 3.4325 67.3921 2.66585 68.863 2.66585H79.8661L79.8777 2.71762C80.2025 4.25556 80.9518 5.25446 81.7823 5.25446H82.2463C83.0791 5.25446 83.8261 4.25556 84.1532 2.71762L84.1648 2.66585H95.1795C96.6503 2.66665 98.0606 3.43357 99.101 4.79821C100.141 6.16286 100.727 8.01371 100.729 9.94442V96.9827Z" fill="#707070" stroke="#263238" stroke-linejoin="round"/>
<path d="M96.4801 2.00391H67.5653C66.8624 2.00351 66.1663 2.18496 65.5169 2.5379C64.8674 2.89084 64.2773 3.40834 63.7802 4.06082C63.2832 4.71331 62.889 5.48799 62.6201 6.34058C62.3513 7.19317 62.2131 8.10696 62.2134 9.02971V101.44C62.2134 102.363 62.3518 103.276 62.6208 104.128C62.8898 104.981 63.2841 105.755 63.7811 106.407C64.2781 107.059 64.8681 107.576 65.5174 107.929C66.1667 108.282 66.8626 108.463 67.5653 108.463H96.4801C97.1826 108.463 97.8783 108.281 98.5273 107.928C99.1763 107.575 99.7661 107.058 100.263 106.406C100.76 105.754 101.154 104.98 101.422 104.128C101.691 103.276 101.83 102.362 101.83 101.44V9.02971C101.83 8.10721 101.692 7.19367 101.423 6.34128C101.154 5.48889 100.76 4.71435 100.264 4.0619C99.7669 3.40946 99.177 2.89189 98.5278 2.53877C97.8786 2.18566 97.1828 2.00391 96.4801 2.00391ZM100.73 97.2405C100.73 99.1039 100.166 100.891 99.1625 102.209C98.1589 103.526 96.7976 104.266 95.3782 104.266H68.6672C67.2478 104.266 65.8865 103.526 64.8829 102.209C63.8792 100.891 63.3153 99.1039 63.3153 97.2405V9.68752C63.3153 7.82497 63.8789 6.03871 64.8822 4.72168C65.8854 3.40466 67.2461 2.66476 68.6649 2.66476H79.8675L79.8791 2.71654C80.2039 4.25448 80.9532 5.25338 81.7838 5.25338H82.2477C83.0806 5.25338 83.8276 4.25448 84.1547 2.71654L84.1663 2.66476H95.3666C96.786 2.66476 98.1473 3.40498 99.1509 4.72258C100.155 6.04017 100.718 7.82721 100.718 9.69057L100.73 97.2405Z" fill="#263238" stroke="#263238" stroke-linejoin="round"/>
<path d="M82.4282 3.01335C82.4282 2.87782 82.3976 2.74534 82.3402 2.63266C82.2829 2.51997 82.2014 2.43215 82.106 2.38028C82.0106 2.32842 81.9057 2.31485 81.8044 2.34129C81.7032 2.36773 81.6102 2.43299 81.5372 2.52882C81.4642 2.62465 81.4144 2.74675 81.3943 2.87967C81.3742 3.01259 81.3845 3.15036 81.424 3.27557C81.4635 3.40078 81.5304 3.50779 81.6163 3.58309C81.7021 3.65838 81.803 3.69857 81.9062 3.69857C81.9749 3.69897 82.0429 3.68152 82.1064 3.64723C82.1698 3.61294 82.2275 3.56248 82.276 3.49877C82.3245 3.43506 82.363 3.35936 82.3891 3.27605C82.4152 3.19273 82.4285 3.10344 82.4282 3.01335Z" fill="white"/>
<path d="M66.64 5.63504C66.64 6.32635 66.0484 6.57608 66.0461 7.10294V7.13948H66.6214V7.37093H65.8535V7.17603C65.8535 6.43599 66.4451 6.28981 66.4451 5.65331C66.4451 5.41881 66.3848 5.29395 66.2409 5.29395C66.0971 5.29395 66.0368 5.42795 66.0368 5.63199V5.83299H65.8535V5.64722C65.8535 5.297 65.9765 5.0625 66.2456 5.0625C66.5147 5.0625 66.64 5.28482 66.64 5.63504Z" fill="#263238"/>
<path d="M67.5943 5.63332V5.68205C67.6025 5.78046 67.5861 5.87971 67.5476 5.96484C67.5091 6.04998 67.4506 6.11639 67.3809 6.15409C67.451 6.19192 67.5098 6.25881 67.5484 6.34457C67.5869 6.43033 67.603 6.53027 67.5943 6.62917V6.80581C67.5943 7.15908 67.469 7.38749 67.1999 7.38749C66.9308 7.38749 66.8079 7.15908 66.8079 6.80581V6.65049H66.9888V6.82408C66.9888 7.03117 67.0538 7.15603 67.193 7.15603C67.3321 7.15603 67.3994 7.03422 67.3994 6.79972V6.62308C67.3994 6.39772 67.3252 6.28809 67.179 6.282H67.0746V6.05359H67.1999C67.2295 6.05378 67.2588 6.04581 67.2858 6.0302C67.3129 6.01459 67.3372 5.99169 67.3571 5.96298C67.377 5.93427 67.3921 5.90039 67.4014 5.86353C67.4107 5.82668 67.4139 5.78768 67.411 5.74905V5.64246C67.411 5.40796 67.3484 5.28614 67.2046 5.28614C67.0607 5.28614 67.0004 5.41405 67.0004 5.62114V5.73686H66.8195V5.63332C66.8195 5.2831 66.9424 5.05469 67.2115 5.05469C67.4806 5.05469 67.5943 5.2831 67.5943 5.63332Z" fill="#263238"/>
<path d="M67.9712 5.80469V6.10923H67.7856V5.80469H67.9712ZM67.9712 7.05331V7.35786H67.7856V7.05331H67.9712Z" fill="#263238"/>
<path d="M68.3644 6.01307C68.3901 5.95276 68.4279 5.90292 68.4737 5.86906C68.5196 5.8352 68.5717 5.81864 68.6242 5.82121C68.8562 5.82121 68.949 6.03743 68.949 6.36634V6.81402C68.949 7.16729 68.8238 7.3957 68.5547 7.3957C68.2856 7.3957 68.1626 7.16729 68.1626 6.81402V6.66175H68.3459V6.83229C68.3459 7.03938 68.4108 7.16424 68.55 7.16424C68.6892 7.16424 68.7542 7.03938 68.7542 6.83229V6.38461C68.7542 6.18057 68.6892 6.05571 68.55 6.05571C68.5248 6.05449 68.4997 6.05985 68.4761 6.07147C68.4526 6.08309 68.431 6.10075 68.4126 6.12341C68.3943 6.14608 68.3795 6.1733 68.3693 6.2035C68.359 6.2337 68.3534 6.26628 68.3528 6.29934V6.35416H68.1719L68.2183 5.07812H68.9142V5.30653H68.3992L68.3644 6.01307Z" fill="#263238"/>
<path d="M69.9206 5.63027V5.68205H69.7512V5.62114C69.7512 5.41709 69.6863 5.29528 69.5424 5.29528C69.3986 5.29528 69.3313 5.42014 69.3313 5.66377V6.16931C69.3519 6.09381 69.3907 6.02917 69.4417 5.98521C69.4928 5.94124 69.5534 5.92034 69.6144 5.92568C69.8463 5.92568 69.9391 6.13886 69.9391 6.46777V6.81495C69.9391 7.16822 69.8046 7.39662 69.5378 7.39662C69.271 7.39662 69.1365 7.16822 69.1365 6.81495V5.6455C69.1365 5.2831 69.2617 5.05469 69.5378 5.05469C69.8139 5.05469 69.9206 5.28005 69.9206 5.63027ZM69.3197 6.48909V6.83322C69.3197 7.04031 69.3847 7.16517 69.5262 7.16517C69.6677 7.16517 69.735 7.04031 69.735 6.83322V6.48909C69.735 6.282 69.6677 6.15713 69.5262 6.15713C69.3847 6.15713 69.3197 6.29113 69.3197 6.48909Z" fill="#263238"/>
<path d="M89.0098 5.73047H88.5156V7.35064H89.0098V5.73047Z" fill="#263238"/>
<path d="M89.6694 5.40234H89.1753V7.34837H89.6694V5.40234Z" fill="#263238"/>
<path d="M90.3252 5.17578H89.8311V7.35022H90.3252V5.17578Z" fill="#263238"/>
<path d="M90.9848 4.77344H90.4907V7.34987H90.9848V4.77344Z" fill="#263238"/>
<path d="M97.0933 7.30512H94.1309V4.92969H97.0933V7.30512ZM94.2956 7.0889H96.9286V5.14591H94.2956V7.0889Z" fill="#263238"/>
<path d="M96.1068 5.37891H94.5432V6.85289H96.1068V5.37891Z" fill="#263238"/>
<path d="M97.3671 5.83594H96.9937V6.3963H97.3671V5.83594Z" fill="#263238"/>
<path d="M93.0438 6.79023C93.0242 6.7893 93.0051 6.78197 92.9882 6.76891C92.385 6.29687 91.986 6.73541 91.9697 6.76891C91.9588 6.7815 91.9462 6.79111 91.9324 6.79717C91.9186 6.80323 91.9041 6.80562 91.8896 6.80421C91.8751 6.80279 91.861 6.79759 91.8481 6.78891C91.8351 6.78024 91.8237 6.76826 91.8143 6.75368C91.7941 6.72638 91.7827 6.68978 91.7827 6.65166C91.7827 6.61355 91.7941 6.57694 91.8143 6.54964C91.8352 6.52527 92.3456 5.94055 93.0926 6.54964C93.105 6.55934 93.1158 6.57219 93.1244 6.58743C93.133 6.60267 93.1392 6.62 93.1427 6.63842C93.1461 6.65684 93.1468 6.67598 93.1445 6.69472C93.1423 6.71346 93.1372 6.73143 93.1297 6.74759C93.1184 6.76214 93.105 6.77344 93.0902 6.78079C93.0754 6.78813 93.0596 6.79134 93.0438 6.79023Z" fill="#263238"/>
<path d="M93.2654 6.29044C93.246 6.29056 93.2269 6.28428 93.2098 6.27216C92.3375 5.58999 91.7529 6.2478 91.7459 6.25389C91.7351 6.26649 91.7225 6.27617 91.7088 6.28237C91.6952 6.28858 91.6807 6.29119 91.6663 6.29006C91.6518 6.28893 91.6377 6.28408 91.6247 6.27578C91.6117 6.26748 91.6001 6.25591 91.5905 6.24171C91.5809 6.22751 91.5735 6.21097 91.5688 6.19303C91.5641 6.1751 91.5621 6.15611 91.5629 6.13717C91.5638 6.11822 91.5675 6.09968 91.5738 6.08261C91.5801 6.06554 91.589 6.05026 91.5998 6.03767C91.5998 6.03767 92.3143 5.23367 93.3234 6.02244C93.3358 6.03214 93.3467 6.04499 93.3553 6.06023C93.3639 6.07547 93.3701 6.0928 93.3735 6.11122C93.377 6.12964 93.3776 6.14878 93.3754 6.16752C93.3732 6.18626 93.3681 6.20423 93.3605 6.22039C93.3506 6.2418 93.3366 6.25948 93.32 6.27175C93.3033 6.28401 93.2845 6.29045 93.2654 6.29044Z" fill="#263238"/>
<path d="M93.4721 5.73581C93.4518 5.73488 93.4319 5.72757 93.4141 5.71449C92.3099 4.85264 91.5768 5.66272 91.5466 5.71449C91.5357 5.72709 91.523 5.73669 91.5093 5.74276C91.4955 5.74882 91.481 5.75121 91.4665 5.74979C91.452 5.74837 91.4379 5.74317 91.425 5.7345C91.412 5.72582 91.4005 5.71384 91.3912 5.69927C91.3809 5.68595 91.3727 5.67007 91.3671 5.65255C91.3615 5.63504 91.3586 5.61623 91.3586 5.59724C91.3586 5.57825 91.3615 5.55945 91.3671 5.54194C91.3727 5.52442 91.3809 5.50854 91.3912 5.49522C91.3912 5.49522 92.2704 4.50546 93.5185 5.48C93.5435 5.49966 93.5616 5.5314 93.569 5.5684C93.5764 5.60541 93.5724 5.64474 93.5579 5.67795C93.5477 5.69527 93.5348 5.70943 93.5199 5.71943C93.5051 5.72943 93.4888 5.73502 93.4721 5.73581Z" fill="#263238"/>
<path d="M92.7203 7.03037C92.7208 7.10278 92.7049 7.17373 92.6746 7.23423C92.6442 7.29473 92.6009 7.34204 92.5501 7.37017C92.4993 7.3983 92.4432 7.40597 92.3891 7.39222C92.3349 7.37846 92.2851 7.3439 92.2459 7.29291C92.2068 7.24193 92.18 7.17682 92.1691 7.10584C92.1582 7.03487 92.1635 6.96124 92.1845 6.89428C92.2055 6.82732 92.2412 6.77007 92.287 6.72978C92.3329 6.68948 92.3868 6.66797 92.4419 6.66797C92.5154 6.66797 92.5858 6.70605 92.638 6.77393C92.6901 6.84181 92.7197 6.93398 92.7203 7.03037Z" fill="#263238"/>
<path d="M98.7255 27.668H65.6768V55.4331H98.7255V27.668Z" fill="white" stroke="#263238" stroke-linecap="round" stroke-linejoin="round"/>
<path d="M98.7255 52.3398H65.6768V55.434H98.7255V52.3398Z" fill="white" stroke="#263238" stroke-linecap="round" stroke-linejoin="round"/>
<path d="M98.7255 53.4375H65.6768V54.339H98.7255V53.4375Z" fill="white" stroke="#263238" stroke-linecap="round" stroke-linejoin="round"/>
<path d="M66.2109 24.672L66.262 20.7891H66.8999L67.2665 23.2254L67.6562 20.7891H68.2756L68.3267 24.672H67.8998L67.8511 22.0407L67.4753 24.672H67.0878L66.6935 22.0194L66.6517 24.672H66.2109Z" fill="#263238"/>
<path d="M69.125 24.6724V23.1497L68.5474 20.8047H69.1134L69.4312 22.169L69.7259 20.8047H70.2757L69.705 23.1497V24.6724H69.125Z" fill="#263238"/>
<path d="M72.2421 24.7252C72.0596 24.7374 71.8784 24.6803 71.7201 24.5607C71.5941 24.4542 71.4999 24.2939 71.4533 24.1069C71.4002 23.8896 71.3751 23.6621 71.3791 23.4339V22.0391C71.3752 21.8037 71.4011 21.569 71.4556 21.3447C71.5026 21.1628 71.596 21.0079 71.7201 20.9062C71.8794 20.7903 72.0602 20.7354 72.2421 20.7478C72.4145 20.7365 72.5863 20.7837 72.7408 20.8849C72.8586 20.9736 72.9489 21.1137 72.996 21.2808C73.0488 21.4688 73.074 21.6682 73.0703 21.8685V22.1853H72.4857V21.8198C72.4893 21.7356 72.4893 21.6512 72.4857 21.567C72.4811 21.4965 72.46 21.4295 72.4253 21.3752C72.4019 21.3486 72.3746 21.3284 72.3451 21.3158C72.3157 21.3033 72.2845 21.2986 72.2537 21.3021C72.2222 21.2986 72.1906 21.3035 72.1607 21.3166C72.1308 21.3297 72.1032 21.3507 72.0797 21.3782C72.0412 21.4329 72.0168 21.5022 72.0101 21.5762C72.0004 21.666 71.9958 21.7565 71.9962 21.8472V23.6136C71.9956 23.7085 72.0018 23.8034 72.0147 23.8968C72.0242 23.9689 72.051 24.0351 72.0913 24.0856C72.1379 24.1315 72.1955 24.1542 72.2537 24.1496C72.2839 24.1537 72.3144 24.1493 72.3432 24.1367C72.372 24.1241 72.3984 24.1036 72.4207 24.0765C72.4557 24.0186 72.4774 23.9489 72.4833 23.8755C72.4882 23.7883 72.4882 23.7008 72.4833 23.6136V23.2359H73.0679V23.5588C73.0713 23.7657 73.047 23.9719 72.996 24.1678C72.9496 24.3385 72.8604 24.4834 72.7432 24.579C72.5899 24.6886 72.4162 24.7392 72.2421 24.7252Z" fill="#263238"/>
<path d="M74.261 24.7266C74.0817 24.7382 73.9035 24.6845 73.746 24.5712C73.6202 24.4698 73.5245 24.3151 73.4746 24.1327C73.4171 23.9134 73.3896 23.6824 73.3934 23.4505V22.0009C73.3896 21.769 73.4171 21.5381 73.4746 21.3187C73.5247 21.1388 73.6206 20.9871 73.746 20.8893C73.9044 20.7798 74.0823 20.7283 74.261 20.7401C74.4421 20.7277 74.6223 20.7792 74.783 20.8893C74.9089 20.9887 75.0054 21.1411 75.0567 21.3218C75.1162 21.5395 75.1445 21.7697 75.1403 22.0009V23.4505C75.1445 23.6827 75.1162 23.9139 75.0567 24.1327C75.0068 24.316 74.9101 24.4709 74.783 24.5712C74.6232 24.6851 74.4426 24.7388 74.261 24.7266ZM74.261 24.154C74.2921 24.1583 74.3236 24.1544 74.3535 24.1423C74.3834 24.1303 74.4111 24.1104 74.435 24.084C74.4728 24.0331 74.4979 23.9683 74.5069 23.8982C74.5193 23.8149 74.5255 23.7303 74.5255 23.6454V21.8212C74.5255 21.7374 74.5193 21.6537 74.5069 21.5715C74.497 21.5018 74.472 21.4374 74.435 21.3857C74.3855 21.3354 74.3234 21.3115 74.261 21.3187C74.2024 21.3132 74.1443 21.3372 74.0986 21.3857C74.0601 21.4364 74.0343 21.5011 74.0244 21.5715C74.012 21.6537 74.0058 21.7374 74.0058 21.8212V23.6485C74.0063 23.7332 74.0117 23.8177 74.0221 23.9012C74.0301 23.9718 74.0553 24.037 74.094 24.087C74.1409 24.1371 74.2008 24.1611 74.261 24.154Z" fill="#263238"/>
<path d="M76.3765 24.7268C76.1951 24.74 76.0145 24.6873 75.8545 24.5745C75.7301 24.4754 75.637 24.3208 75.5924 24.139C75.5386 23.9145 75.5135 23.6799 75.5181 23.4447V20.7891H76.112V23.5543C76.1126 23.6491 76.118 23.7437 76.1282 23.8375C76.1366 23.9202 76.1623 23.9982 76.2025 24.0629C76.2246 24.0938 76.2517 24.1177 76.2818 24.133C76.3119 24.1483 76.3443 24.1545 76.3765 24.1512C76.4089 24.1535 76.4414 24.1469 76.4718 24.1317C76.5021 24.1164 76.5297 24.093 76.5528 24.0629C76.5931 23.9987 76.6181 23.9203 76.6247 23.8375C76.6341 23.7436 76.6388 23.649 76.6386 23.5543V20.7891H77.2348V23.4447C77.2384 23.6798 77.2134 23.9143 77.1606 24.139C77.1133 24.3158 77.0206 24.4655 76.8984 24.5623C76.7391 24.6786 76.5586 24.7355 76.3765 24.7268Z" fill="#263238"/>
<path d="M77.6538 24.6727V20.7898H78.4217C78.595 20.784 78.768 20.8138 78.9344 20.8781C79.0679 20.9259 79.1845 21.0336 79.2638 21.1826C79.3457 21.367 79.3852 21.5785 79.3775 21.7917C79.3791 21.9338 79.369 22.0758 79.3473 22.215C79.3272 22.3253 79.2901 22.4289 79.2383 22.5196C79.1769 22.618 79.0969 22.6936 79.0063 22.7388L79.4169 24.6331H78.7998L78.4588 22.8728H78.2477V24.6331L77.6538 24.6727ZM78.257 22.4434H78.431C78.5112 22.4488 78.5911 22.4268 78.663 22.3795C78.7193 22.3386 78.7616 22.2711 78.7813 22.1907C78.8056 22.0924 78.8174 21.9895 78.8161 21.8861C78.8227 21.7425 78.7969 21.5994 78.7418 21.475C78.7073 21.4233 78.6637 21.3835 78.6148 21.3591C78.5658 21.3346 78.5131 21.3263 78.4611 21.3349H78.257V22.4434Z" fill="#263238"/>
<path d="M80.5426 24.7264C80.3817 24.7354 80.2218 24.6892 80.0786 24.5924C79.9564 24.5031 79.8595 24.3642 79.8025 24.1965C79.7354 23.9807 79.6992 23.7505 79.6958 23.5174L80.2154 23.4017C80.2173 23.536 80.2298 23.6697 80.2526 23.8006C80.2662 23.8911 80.2992 23.9746 80.3477 24.0412C80.3914 24.0934 80.4487 24.1217 80.5078 24.1204C80.5381 24.1251 80.5689 24.1188 80.5967 24.1022C80.6245 24.0855 80.6483 24.0592 80.6655 24.026C80.694 23.9579 80.7084 23.8813 80.7073 23.8037C80.7107 23.659 80.6799 23.5164 80.6191 23.3956C80.5519 23.2725 80.4741 23.1601 80.3871 23.0606L80.0809 22.7104C79.9741 22.5943 79.8831 22.4553 79.8118 22.2992C79.7388 22.1262 79.7027 21.9305 79.7074 21.7328C79.7009 21.5971 79.7165 21.4611 79.7533 21.334C79.7902 21.2069 79.8473 21.0915 79.9208 20.9958C80.0847 20.8159 80.2945 20.7244 80.5078 20.74C80.6332 20.733 80.758 20.7653 80.872 20.8344C80.9661 20.8908 81.0464 20.9805 81.104 21.0933C81.1558 21.2006 81.1927 21.3192 81.213 21.4435C81.233 21.5669 81.2461 21.6921 81.2524 21.8181L80.7351 21.9186C80.7318 21.8166 80.724 21.7149 80.7119 21.614C80.7065 21.5371 80.6839 21.464 80.6469 21.4039C80.6265 21.3768 80.6019 21.3558 80.5748 21.3422C80.5476 21.3286 80.5186 21.3228 80.4896 21.3251C80.4606 21.3274 80.4324 21.3378 80.4067 21.3556C80.381 21.3734 80.3585 21.3981 80.3407 21.4282C80.3079 21.4967 80.2902 21.5758 80.2897 21.6567C80.2867 21.7763 80.3118 21.8943 80.3616 21.9947C80.4193 22.0954 80.4846 22.1883 80.5565 22.2718L80.8557 22.616C80.9799 22.7549 81.0877 22.917 81.1759 23.0971C81.2699 23.2982 81.3167 23.5313 81.3104 23.7671C81.312 23.9397 81.2792 24.1097 81.2153 24.2605C81.1529 24.4057 81.0615 24.5258 80.9508 24.6077C80.8248 24.6929 80.6842 24.7338 80.5426 24.7264Z" fill="#263238"/>
<path d="M81.5688 24.672V20.7891H82.8587V21.3342H82.1627V22.3666H82.694V22.9178H82.1627V24.136H82.8587V24.672H81.5688Z" fill="#263238"/>
<path d="M66.0696 60.7824V57.7188H66.3897V60.7824H66.0696Z" fill="#263238"/>
<path d="M66.7686 60.7824V57.7188H66.9889L67.6524 59.7531V57.7188H67.9238V60.7824H67.7151L67.0446 58.6902V60.7824H66.7686Z" fill="#263238"/>
<path d="M68.5453 60.7798V58.0389H68.1509V57.7344H69.2551V58.0389H68.8724V60.7798H68.5453Z" fill="#263238"/>
<path d="M69.4819 60.7831V57.7194H69.9459C70.0779 57.7141 70.2094 57.742 70.3333 57.8016C70.4326 57.8468 70.5154 57.9391 70.5653 58.0605C70.6188 58.2076 70.6442 58.3696 70.6395 58.5325C70.6408 58.6414 70.6307 58.7501 70.6094 58.8553C70.5939 58.9455 70.5629 59.0299 70.5189 59.102C70.4742 59.1695 70.4165 59.22 70.3519 59.2482L70.6813 60.7709H70.3681L70.0619 59.3335H69.809V60.7709L69.4819 60.7831ZM69.8067 59.0381H69.9297C70.0084 59.0437 70.0872 59.0292 70.1617 58.9954C70.2179 58.9673 70.2637 58.9116 70.2892 58.8401C70.3193 58.7436 70.3327 58.6396 70.3287 58.5356C70.3377 58.3994 70.3116 58.2631 70.2544 58.1488C70.2143 58.1022 70.1671 58.0675 70.1158 58.047C70.0646 58.0265 70.0106 58.0207 69.9575 58.03H69.8137L69.8067 59.0381Z" fill="#263238"/>
<path d="M71.5755 60.8044C71.4434 60.8128 71.3123 60.7716 71.1974 60.6857C71.1021 60.6033 71.0309 60.4809 70.9955 60.3385C70.952 60.1689 70.9316 59.9905 70.9352 59.8116V58.6726C70.9327 58.4958 70.9531 58.3197 70.9955 58.1519C71.0329 58.0149 71.1039 57.8981 71.1974 57.8199C71.313 57.7366 71.4438 57.6965 71.5755 57.7042C71.7061 57.6958 71.8358 57.737 71.949 57.823C72.0424 57.9005 72.1128 58.0177 72.1485 58.1549C72.1931 58.3211 72.2144 58.4965 72.2111 58.6726V59.839C72.2135 60.0161 72.1923 60.1923 72.1485 60.3598C72.1131 60.5013 72.0429 60.6234 71.949 60.707C71.8345 60.787 71.7046 60.8209 71.5755 60.8044ZM71.5755 60.4694C71.6446 60.4755 71.7132 60.4508 71.7704 60.3994C71.8162 60.3481 71.8479 60.2786 71.8609 60.2014C71.8762 60.1012 71.8832 59.9991 71.8817 59.8969V58.5539C71.8834 58.4516 71.8764 58.3495 71.8609 58.2493C71.8472 58.1751 71.8154 58.1088 71.7704 58.0605C71.7121 58.0129 71.644 57.9905 71.5755 57.9966C71.5056 57.9906 71.436 58.013 71.376 58.0605C71.331 58.1088 71.2992 58.1751 71.2855 58.2493C71.2691 58.3494 71.2613 58.4515 71.2623 58.5539V59.8969C71.2615 59.9992 71.2693 60.1014 71.2855 60.2014C71.2984 60.2786 71.3302 60.3481 71.376 60.3994C71.4338 60.4549 71.5039 60.4838 71.5755 60.4816V60.4694Z" fill="#263238"/>
<path d="M72.5371 60.7837V57.72H73.0452C73.1863 57.7114 73.3271 57.7469 73.4558 57.8236C73.5527 57.8887 73.6291 57.9965 73.6715 58.1281C73.7178 58.2938 73.7398 58.4694 73.7365 58.6458V59.7726C73.7394 59.9589 73.7174 60.1445 73.6715 60.3208C73.6329 60.462 73.5583 60.5814 73.4604 60.6589C73.3411 60.7439 73.2062 60.784 73.0707 60.7746L72.5371 60.7837ZM72.8619 60.4792H73.0475C73.1375 60.4907 73.2275 60.4582 73.3004 60.3878C73.3548 60.3176 73.3871 60.223 73.3908 60.1229C73.403 59.9834 73.4084 59.843 73.4071 59.7026V58.7067C73.4093 58.5771 73.4015 58.4475 73.3839 58.32C73.3797 58.2772 73.3686 58.2361 73.3514 58.1993C73.3342 58.1626 73.3113 58.131 73.2841 58.1068C73.2086 58.0541 73.1235 58.0299 73.0382 58.0367H72.8619V60.4792Z" fill="#263238"/>
<path d="M74.6473 60.8042C74.5108 60.8162 74.375 60.7703 74.2599 60.6733C74.1673 60.5811 74.1018 60.4499 74.0743 60.3017C74.0398 60.1174 74.0234 59.9281 74.0256 59.7383V57.707H74.3364V59.7566C74.3357 59.8769 74.3427 59.9972 74.3573 60.116C74.3659 60.212 74.3967 60.3023 74.4455 60.3748C74.4723 60.408 74.5041 60.4335 74.5388 60.4498C74.5736 60.466 74.6105 60.4727 74.6473 60.4692C74.6848 60.4726 74.7224 60.466 74.7579 60.4498C74.7934 60.4335 74.826 60.408 74.8538 60.3748C74.9009 60.3013 74.9307 60.2113 74.9396 60.116C74.9533 59.9971 74.9596 59.8769 74.9582 59.7566V57.707H75.2667V59.7383C75.2688 59.9281 75.2525 60.1174 75.218 60.3017C75.1914 60.4497 75.1267 60.5809 75.0347 60.6733C74.9197 60.7707 74.7838 60.8167 74.6473 60.8042Z" fill="#263238"/>
<path d="M76.1953 60.8044C76.06 60.8148 75.9258 60.7678 75.8125 60.6704C75.7196 60.5787 75.6527 60.4491 75.6223 60.3019C75.5845 60.1349 75.5665 59.9613 75.5689 59.7872V58.7061C75.5659 58.5229 75.5839 58.3401 75.6223 58.164C75.6524 58.0199 75.7196 57.894 75.8125 57.8077C75.9241 57.7275 76.0487 57.6837 76.1759 57.6799C76.3031 57.6762 76.4291 57.7127 76.5433 57.7863C76.6299 57.857 76.6954 57.9645 76.7289 58.0909C76.7686 58.2437 76.7875 58.4045 76.7845 58.566V58.8066H76.4806V58.5903C76.4815 58.4885 76.4769 58.3867 76.4667 58.2858C76.4626 58.2091 76.4379 58.1369 76.3971 58.0817C76.342 58.0274 76.2732 58.0024 76.2046 58.0117C76.1324 58.0028 76.0603 58.03 76.0027 58.0878C75.9579 58.1475 75.9287 58.2243 75.9192 58.3071C75.9063 58.4169 75.9001 58.5279 75.9007 58.6391V59.8572C75.8975 59.9793 75.9077 60.1013 75.9308 60.2196C75.9423 60.2974 75.9764 60.3662 76.0259 60.4115C76.0796 60.4542 76.1419 60.4744 76.2046 60.4694C76.2387 60.4733 76.2731 60.4683 76.3057 60.4547C76.3384 60.4411 76.3686 60.4192 76.3948 60.3902C76.4354 60.331 76.4606 60.2563 76.4667 60.177C76.4763 60.076 76.4809 59.9743 76.4806 59.8725V59.6441H76.7892V59.8725C76.7904 60.0393 76.7732 60.2055 76.7381 60.3658C76.7087 60.5005 76.6448 60.6177 76.5572 60.6978C76.4481 60.7825 76.3215 60.8198 76.1953 60.8044Z" fill="#263238"/>
<path d="M77.3554 60.7798V58.0389H76.9587V57.7344H78.063V58.0389H77.6802V60.7798H77.3554Z" fill="#263238"/>
<path d="M78.3018 60.7824V57.7188H78.6219V60.7824H78.3018Z" fill="#263238"/>
<path d="M79.5959 60.8045C79.4645 60.8134 79.334 60.7721 79.2201 60.6858C79.1248 60.6034 79.0536 60.481 79.0183 60.3386C78.9747 60.169 78.9543 59.9906 78.9579 59.8117V58.6727C78.9543 58.4958 78.9747 58.3195 79.0183 58.152C79.0556 58.015 79.1266 57.8982 79.2201 57.82C79.3345 57.7357 79.4648 57.6956 79.5959 57.7043C79.7273 57.6955 79.8578 57.7367 79.9717 57.8231C80.0645 57.9015 80.1347 58.0183 80.1712 58.155C80.2159 58.3212 80.2371 58.4966 80.2339 58.6727V59.8391C80.2362 60.0162 80.215 60.1924 80.1712 60.3599C80.1351 60.5009 80.0651 60.6227 79.9717 60.7071C79.8565 60.7874 79.7258 60.8213 79.5959 60.8045ZM79.5959 60.4695C79.6657 60.4758 79.7352 60.4511 79.7931 60.3995C79.839 60.3488 79.8701 60.2789 79.8813 60.2015C79.8987 60.1017 79.9065 59.9994 79.9045 59.897V58.554C79.9067 58.4516 79.8989 58.3492 79.8813 58.2494C79.8694 58.175 79.8382 58.1083 79.7931 58.0606C79.7341 58.0126 79.6651 57.9902 79.5959 57.9967C79.5267 57.991 79.4579 58.0133 79.3987 58.0606C79.3537 58.1089 79.3219 58.1752 79.3082 58.2494C79.2906 58.3492 79.2828 58.4516 79.285 58.554V59.897C79.283 59.9994 79.2908 60.1017 79.3082 60.2015C79.3212 60.2787 79.3529 60.3482 79.3987 60.3995C79.4558 60.4546 79.5251 60.4835 79.5959 60.4817V60.4695Z" fill="#263238"/>
<path d="M80.5557 60.7824V57.7188H80.7761L81.4395 59.7531V57.7188H81.711V60.7824H81.5022L80.8317 58.6902V60.7824H80.5557Z" fill="#263238"/>
<path d="M67.2712 33.3321V30.4298H67.7793C67.867 30.4283 67.9544 30.4427 68.0391 30.4724C68.1072 30.4981 68.1699 30.544 68.2224 30.6064C68.2738 30.6682 68.3115 30.7471 68.3314 30.8348C68.3581 30.9387 68.3707 31.048 68.3685 31.1576C68.3696 31.261 68.3578 31.3638 68.3337 31.4622C68.3141 31.5417 68.278 31.6123 68.2293 31.6662C68.178 31.7202 68.1161 31.754 68.0507 31.7637C68.1303 31.7829 68.2047 31.8291 68.2665 31.8977C68.3223 31.9641 68.3646 32.0479 68.3894 32.1413C68.417 32.2565 68.4303 32.3769 68.4289 32.4976C68.4294 32.6127 68.4184 32.7274 68.3964 32.8387C68.3758 32.9346 68.3403 33.0238 68.292 33.1006C68.2442 33.174 68.1837 33.2314 68.1157 33.2681C68.0341 33.3082 67.9476 33.3278 67.8605 33.326L67.2712 33.3321ZM67.5798 31.6419H67.7631C67.833 31.6451 67.9026 31.6284 67.9672 31.5931C68.0154 31.5609 68.0521 31.5052 68.0693 31.4378C68.0919 31.3475 68.1021 31.2526 68.0994 31.1576C68.1087 31.0523 68.0925 30.9457 68.053 30.8531C68.0365 30.822 68.0151 30.7959 67.9903 30.7765C67.9655 30.7571 67.9379 30.7448 67.9092 30.7404C67.8248 30.7228 67.7395 30.7146 67.654 30.7161H67.5798V31.6419ZM67.5798 33.0428H67.7863C67.837 33.0518 67.8888 33.0449 67.9371 33.0227C67.9855 33.0005 68.0292 32.9635 68.0646 32.9149C68.1186 32.79 68.1428 32.6468 68.1342 32.5037C68.1357 32.4001 68.1231 32.297 68.0971 32.1992C68.0751 32.1213 68.0333 32.0557 67.9788 32.0134C67.9127 31.9667 67.8381 31.9446 67.7631 31.9495H67.5798V33.0428Z" fill="#263238"/>
<path d="M69.2703 33.3624C69.1403 33.3742 69.0109 33.3304 68.9014 33.2376C68.8133 33.1507 68.7516 33.0254 68.7274 32.8843C68.6948 32.711 68.6793 32.5329 68.681 32.3544V30.4297H68.9757V32.3727C68.9754 32.4858 68.9816 32.5988 68.9942 32.7107C69.0032 32.8009 69.0323 32.8857 69.0777 32.9543C69.103 32.9867 69.1333 33.0115 69.1665 33.0273C69.1997 33.0431 69.2351 33.0493 69.2703 33.0457C69.3058 33.0494 69.3416 33.0431 69.3752 33.0274C69.4088 33.0116 69.4394 32.9868 69.4652 32.9543C69.5098 32.8853 69.538 32.8006 69.5464 32.7107C69.559 32.5988 69.5652 32.4858 69.5649 32.3727V30.4297H69.8572V32.3544C69.859 32.5329 69.8434 32.711 69.8108 32.8843C69.7866 33.0254 69.7249 33.1507 69.6368 33.2376C69.5284 33.331 69.3996 33.3749 69.2703 33.3624Z" fill="#263238"/>
<path d="M70.7028 33.3592C70.5912 33.3651 70.4807 33.3281 70.3849 33.2526C70.2993 33.1782 70.2324 33.0723 70.1924 32.9481C70.1481 32.8078 70.1229 32.6583 70.1182 32.5065L70.3896 32.409C70.3957 32.5117 70.4081 32.6136 70.4267 32.7136C70.4426 32.8011 70.4754 32.8819 70.5218 32.9481C70.5452 32.9795 70.5734 33.004 70.6047 33.0198C70.6359 33.0355 70.6694 33.0423 70.7028 33.0394C70.7364 33.0431 70.7702 33.0371 70.8018 33.0218C70.8335 33.0066 70.8622 32.9825 70.886 32.9511C70.9293 32.8796 70.9508 32.7895 70.9464 32.6984C70.9483 32.5902 70.9248 32.4839 70.8791 32.3938C70.8275 32.307 70.77 32.2265 70.7074 32.1532L70.3362 31.7208C70.2677 31.647 70.2123 31.5545 70.1738 31.4497C70.137 31.3331 70.1196 31.2074 70.1228 31.0812C70.1185 30.9908 70.1286 30.9002 70.1526 30.8152C70.1766 30.7302 70.2138 30.6528 70.262 30.5879C70.3129 30.5269 70.3725 30.4798 70.4375 30.4495C70.5024 30.4191 70.5713 30.4061 70.6401 30.4112C70.7189 30.4091 70.7973 30.4246 70.8721 30.4569C70.9345 30.4849 70.9909 30.5319 71.0368 30.594C71.0855 30.6605 71.122 30.7407 71.1435 30.8285C71.1728 30.9354 71.1907 31.0471 71.1969 31.1604L70.9348 31.2518C70.9305 31.1633 70.9197 31.0756 70.9023 30.9899C70.8884 30.9155 70.8586 30.8479 70.8164 30.795C70.7669 30.742 70.7039 30.7158 70.6401 30.7219C70.6077 30.7194 70.5752 30.7254 70.5446 30.7395C70.5139 30.7536 70.4857 30.7756 70.4615 30.8041C70.4388 30.8356 70.4214 30.873 70.4106 30.914C70.3998 30.955 70.3958 30.9985 70.3989 31.0416C70.3973 31.117 70.4084 31.1919 70.4313 31.2609C70.4599 31.3274 70.4976 31.3863 70.5427 31.4345L70.9139 31.87C71.0004 31.9679 71.0748 32.083 71.1343 32.2111C71.2013 32.3525 71.2352 32.5166 71.2317 32.6831C71.2343 32.812 71.2103 32.9393 71.1621 33.0516C71.1193 33.153 71.0548 33.2356 70.9765 33.2892C70.8908 33.3409 70.797 33.365 70.7028 33.3592Z" fill="#263238"/>
<path d="M71.4885 33.332V30.4297H71.7924V33.332H71.4885Z" fill="#263238"/>
<path d="M72.1484 33.332V30.4297H72.3572L72.9859 32.3574V30.4297H73.2318V33.332H73.037L72.4013 31.3525V33.332H72.1484Z" fill="#263238"/>
<path d="M73.5896 33.332V30.4297H74.4456V30.7342H73.8981V31.6935H74.3412V31.9798H73.8981V33.0457H74.4503V33.335L73.5896 33.332Z" fill="#263238"/>
<path d="M75.221 33.3592C75.1093 33.3658 74.9987 33.3287 74.9031 33.2526C74.8175 33.1782 74.7506 33.0723 74.7106 32.9481C74.6643 32.8085 74.6383 32.6587 74.634 32.5065L74.9078 32.409C74.9115 32.5121 74.9239 32.6142 74.9449 32.7136C74.9601 32.8009 74.992 32.8816 75.0377 32.9481C75.0613 32.98 75.0899 33.0046 75.1216 33.0204C75.1533 33.0362 75.1872 33.0427 75.221 33.0394C75.2542 33.0426 75.2875 33.0364 75.3188 33.0212C75.35 33.0059 75.3783 32.982 75.4019 32.9511C75.4468 32.8806 75.4693 32.7901 75.4645 32.6984C75.4667 32.5897 75.4423 32.483 75.3949 32.3938C75.3447 32.3055 75.2871 32.2248 75.2233 32.1532L74.8521 31.7208C74.7849 31.6461 74.7304 31.5538 74.692 31.4497C74.6544 31.3333 74.6362 31.2077 74.6387 31.0812C74.6346 30.9906 74.6452 30.8998 74.6695 30.8148C74.6939 30.7298 74.7316 30.6525 74.7802 30.5879C74.8311 30.5269 74.8907 30.4798 74.9557 30.4495C75.0206 30.4191 75.0895 30.4061 75.1583 30.4112C75.2371 30.4091 75.3155 30.4246 75.3903 30.4569C75.4536 30.4841 75.511 30.5312 75.5573 30.594C75.605 30.6615 75.6414 30.7414 75.6641 30.8285C75.6922 30.9358 75.7101 31.0473 75.7174 31.1604L75.4553 31.2518C75.451 31.1633 75.4402 31.0756 75.4228 30.9899C75.4079 30.916 75.3783 30.8488 75.337 30.795C75.2872 30.7425 75.2243 30.7165 75.1606 30.7219C75.1281 30.7183 75.0954 30.7238 75.0646 30.738C75.0339 30.7522 75.0057 30.7747 74.982 30.8041C74.9589 30.8353 74.9411 30.8726 74.9299 30.9136C74.9187 30.9546 74.9143 30.9983 74.9171 31.0416C74.915 31.1174 74.9269 31.1926 74.9519 31.2609C74.9804 31.3274 75.0181 31.3863 75.0632 31.4345L75.4367 31.867C75.5232 31.9649 75.5976 32.08 75.6571 32.208C75.7223 32.3503 75.7553 32.5141 75.7522 32.6801C75.7545 32.8085 75.7313 32.9355 75.6849 33.0486C75.6409 33.1497 75.5757 33.2322 75.497 33.2861C75.411 33.3401 75.3162 33.3653 75.221 33.3592Z" fill="#263238"/>
<path d="M76.513 33.3592C76.4013 33.3655 76.2908 33.3284 76.1951 33.2526C76.1095 33.1782 76.0425 33.0723 76.0026 32.9481C75.9563 32.8085 75.9303 32.6587 75.926 32.5065L76.1998 32.409C76.2047 32.5119 76.2171 32.6139 76.2369 32.7136C76.253 32.8004 76.2848 32.8809 76.3297 32.9481C76.3533 32.98 76.3819 33.0046 76.4136 33.0204C76.4453 33.0362 76.4792 33.0427 76.513 33.0394C76.5462 33.0426 76.5795 33.0364 76.6108 33.0212C76.642 33.0059 76.6703 32.982 76.6939 32.9511C76.7388 32.8806 76.7613 32.7901 76.7565 32.6984C76.7587 32.5897 76.7343 32.483 76.6869 32.3938C76.6367 32.3055 76.5791 32.2248 76.5153 32.1532L76.1441 31.7208C76.0769 31.6461 76.0224 31.5538 75.984 31.4497C75.9472 31.3331 75.9298 31.2074 75.933 31.0812C75.9286 30.9908 75.9388 30.9002 75.9628 30.8152C75.9867 30.7302 76.024 30.6528 76.0722 30.5879C76.1231 30.5269 76.1827 30.4798 76.2477 30.4495C76.3126 30.4191 76.3815 30.4061 76.4503 30.4112C76.5291 30.4091 76.6075 30.4246 76.6823 30.4569C76.7447 30.4849 76.8011 30.5319 76.847 30.594C76.8947 30.6615 76.931 30.7414 76.9537 30.8285C76.9829 30.9354 77.0009 31.0471 77.0071 31.1604L76.7449 31.2518C76.7407 31.1633 76.7298 31.0756 76.7125 30.9899C76.6986 30.9155 76.6688 30.8479 76.6266 30.795C76.5769 30.7425 76.514 30.7165 76.4503 30.7219C76.4179 30.7194 76.3854 30.7254 76.3547 30.7395C76.3241 30.7536 76.2958 30.7756 76.2717 30.8041C76.249 30.8356 76.2316 30.873 76.2208 30.914C76.21 30.955 76.206 30.9985 76.209 31.0416C76.2063 31.1171 76.2174 31.1923 76.2415 31.2609C76.27 31.3274 76.3078 31.3863 76.3529 31.4345L76.7264 31.867C76.8129 31.9649 76.8873 32.08 76.9468 32.208C77.0131 32.3497 77.0462 32.5139 77.0419 32.6801C77.0453 32.8087 77.0221 32.936 76.9746 33.0486C76.9306 33.1497 76.8653 33.2322 76.7867 33.2861C76.7014 33.3396 76.6074 33.3647 76.513 33.3592Z" fill="#263238"/>
<path d="M67.8243 37.6571C67.6952 37.6683 67.5669 37.6221 67.4601 37.5262C67.3725 37.4396 67.3089 37.3176 67.2792 37.179C67.2444 37.0206 67.2272 36.8565 67.2281 36.6917V35.6685C67.2266 35.4956 67.2438 35.3233 67.2792 35.1568C67.3076 35.0199 67.3716 34.9003 67.4601 34.8188C67.5661 34.7416 67.6849 34.6993 67.8061 34.6956C67.9273 34.6919 68.0474 34.7268 68.1561 34.7975C68.2368 34.8655 68.2986 34.9659 68.3324 35.0837C68.3699 35.2277 68.388 35.3792 68.3857 35.5314V35.7629H68.0934V35.5588C68.0941 35.4631 68.0895 35.3674 68.0795 35.2725C68.0759 35.2005 68.0528 35.1325 68.0146 35.0807C67.962 35.029 67.8966 35.0051 67.8313 35.0137C67.7631 35.0054 67.6951 35.0315 67.6411 35.0868C67.5973 35.1418 67.5695 35.2149 67.5622 35.2939C67.5498 35.3946 67.5436 35.4964 67.5436 35.5984V36.7496C67.5412 36.8654 67.5506 36.9811 67.5715 37.0937C67.5839 37.1661 67.6161 37.23 67.6619 37.2734C67.713 37.3133 67.7719 37.3324 67.8313 37.3282C67.8633 37.333 67.8957 37.3289 67.9265 37.3164C67.9572 37.3038 67.9856 37.2829 68.0099 37.2551C68.0493 37.2 68.0738 37.1293 68.0795 37.0541C68.0895 36.9531 68.0941 36.8514 68.0934 36.7496V36.5334H68.3857V36.7496C68.3882 36.9075 68.371 37.0649 68.3347 37.2155C68.3053 37.3387 68.2457 37.4457 68.1653 37.5201C68.0655 37.6116 67.9461 37.6596 67.8243 37.6571Z" fill="#263238"/>
<path d="M69.2396 37.6574C69.1145 37.6652 68.9903 37.6249 68.8823 37.5416C68.7929 37.4641 68.7259 37.3493 68.6921 37.2158C68.6508 37.0539 68.6312 36.8839 68.6341 36.7133V35.6169C68.631 35.4503 68.6506 35.2842 68.6921 35.1266C68.7294 35.0004 68.797 34.8935 68.8847 34.8221C68.9947 34.749 69.1163 34.7109 69.2396 34.7109C69.3629 34.7109 69.4845 34.749 69.5945 34.8221C69.6813 34.894 69.7481 35.0008 69.7848 35.1266C69.8263 35.2842 69.8459 35.4503 69.8428 35.6169V36.7224C69.8457 36.8901 69.8261 37.0571 69.7848 37.2158C69.7496 37.3492 69.683 37.4644 69.5945 37.5447C69.4871 37.6268 69.3638 37.666 69.2396 37.6574ZM69.2396 37.3528C69.3055 37.3594 69.3711 37.3357 69.4252 37.2858C69.4694 37.2393 69.4991 37.1733 69.5087 37.1C69.5256 37.0084 69.5334 36.9142 69.5319 36.8199V35.5256C69.5334 35.4323 69.5256 35.3391 69.5087 35.2484C69.498 35.1774 69.4684 35.1137 69.4252 35.0687C69.3681 35.0288 69.3043 35.0078 69.2396 35.0078C69.1749 35.0078 69.1111 35.0288 69.054 35.0687C69.0098 35.1136 68.9787 35.177 68.9659 35.2484C68.951 35.3395 68.944 35.4324 68.945 35.5256V36.7985C68.944 36.8927 68.951 36.9867 68.9659 37.0787C68.978 37.1521 69.0092 37.2178 69.054 37.2645C69.1059 37.322 69.1717 37.3533 69.2396 37.3528Z" fill="#263238"/>
<path d="M70.1416 37.6258L70.1834 34.7266H70.4849L70.877 37.0776L71.269 34.7266H71.5683L71.6101 37.6258H71.3618L71.3363 35.5214L70.9628 37.6258H70.7888L70.4177 35.5214L70.3921 37.6258H70.1416Z" fill="#263238"/>
<path d="M71.9402 37.6258L71.9819 34.7266H72.2858L72.6756 37.0776L73.0676 34.7266H73.3669L73.4087 37.6258H73.1604L73.1349 35.5214L72.7684 37.6258H72.5944L72.2232 35.5214L72.2 37.6258H71.9402Z" fill="#263238"/>
<path d="M74.3205 37.6593C74.1907 37.6696 74.0616 37.6259 73.9517 37.5344C73.8636 37.4476 73.8019 37.3223 73.7777 37.1812C73.744 37.0071 73.7284 36.8278 73.7313 36.6482V34.7266H74.0259V36.6665C74.0246 36.7807 74.0308 36.8948 74.0445 37.0076C74.0525 37.0982 74.0817 37.1833 74.128 37.2512C74.1827 37.3086 74.2506 37.3398 74.3205 37.3398C74.3905 37.3398 74.4584 37.3086 74.5131 37.2512C74.5579 37.1823 74.5861 37.0975 74.5943 37.0076C74.6088 36.8949 74.6158 36.7808 74.6152 36.6665V34.7266H74.9075V36.6482C74.9097 36.828 74.8933 37.0072 74.8588 37.1812C74.8337 37.3211 74.7732 37.4457 74.6871 37.5344C74.5781 37.6261 74.4497 37.6698 74.3205 37.6593Z" fill="#263238"/>
<path d="M75.231 37.6258V34.7266H75.4421L76.0707 36.6513V34.7266H76.3259V37.6258H76.1287L75.4931 35.6463V37.6258H75.231Z" fill="#263238"/>
<path d="M76.6877 37.6258V34.7266H76.9893V37.6258H76.6877Z" fill="#263238"/>
<path d="M77.9046 37.6571C77.7755 37.6683 77.6472 37.6222 77.5404 37.5262C77.4534 37.4388 77.39 37.3171 77.3595 37.179C77.3247 37.0207 77.3075 36.8565 77.3084 36.6917V35.6685C77.3069 35.4956 77.3241 35.3234 77.3595 35.1568C77.389 35.0206 77.4528 34.9014 77.5404 34.8188C77.649 34.7287 77.7765 34.6861 77.9046 34.697C78.0194 34.6896 78.1335 34.7244 78.2341 34.7975C78.3131 34.8672 78.3738 34.9672 78.4081 35.0838C78.4456 35.2278 78.4637 35.3793 78.4614 35.5314V35.7629H78.1691V35.5588C78.1693 35.4632 78.1654 35.3676 78.1575 35.2726C78.1516 35.2007 78.128 35.1333 78.0902 35.0807C78.0377 35.029 77.9723 35.0051 77.907 35.0137C77.8388 35.0054 77.7708 35.0316 77.7167 35.0868C77.673 35.1418 77.6451 35.215 77.6379 35.2939C77.6255 35.3946 77.6193 35.4964 77.6193 35.5984V36.7496C77.6169 36.8654 77.6263 36.9812 77.6471 37.0937C77.6596 37.1661 77.6918 37.23 77.7376 37.2734C77.7887 37.3134 77.8476 37.3324 77.907 37.3282C77.9723 37.3362 78.0373 37.3099 78.0879 37.2551C78.1256 37.1989 78.1491 37.1287 78.1552 37.0542C78.1651 36.9532 78.1698 36.8514 78.1691 36.7496V36.5334H78.4614V36.7496C78.4635 36.9073 78.447 37.0644 78.4127 37.2156C78.3822 37.338 78.3229 37.4447 78.2433 37.5201C78.1437 37.61 78.0255 37.6578 77.9046 37.6571Z" fill="#263238"/>
<path d="M78.6316 37.6258L79.0956 34.7266H79.3948L79.8588 37.6258H79.5665L79.4667 36.8949H79.0329L78.9262 37.6258H78.6316ZM79.0677 36.6056H79.4366L79.251 35.2991L79.0677 36.6056Z" fill="#263238"/>
<path d="M80.25 37.628V35.0272H79.8765V34.7227H80.9227V35.0272H80.5585V37.628H80.25Z" fill="#263238"/>
<path d="M81.1487 37.6258V34.7266H81.4503V37.6258H81.1487Z" fill="#263238"/>
<path d="M82.3731 37.657C82.2473 37.6647 82.1224 37.6245 82.0136 37.5413C81.9247 37.4629 81.8579 37.3484 81.8233 37.2154C81.7832 37.0532 81.7636 36.8835 81.7653 36.7129V35.6166C81.7629 35.4497 81.7833 35.2836 81.8256 35.1263C81.8616 34.9999 81.9285 34.8928 82.0159 34.8217C82.1247 34.7417 82.2486 34.7037 82.3731 34.7121C82.4965 34.7046 82.6189 34.7437 82.7258 34.8248C82.8125 34.8967 82.8793 35.0035 82.916 35.1293C82.9575 35.2869 82.9771 35.453 82.974 35.6196V36.7251C82.977 36.8928 82.9573 37.0598 82.916 37.2185C82.8808 37.3519 82.8142 37.4671 82.7258 37.5474C82.6191 37.6289 82.4963 37.6671 82.3731 37.657ZM82.3731 37.3525C82.4383 37.3591 82.5032 37.3354 82.5564 37.2855C82.6014 37.2395 82.632 37.1734 82.6422 37.0997C82.6571 37.0076 82.6641 36.9136 82.6631 36.8195V35.5252C82.6641 35.4321 82.6571 35.3391 82.6422 35.2481C82.631 35.1766 82.6005 35.1129 82.5564 35.0684C82.5017 35.0234 82.4376 35.0021 82.3731 35.0075C82.3072 35.0019 82.2416 35.0231 82.1852 35.0684C82.1411 35.1129 82.1107 35.1766 82.0994 35.2481C82.0845 35.3391 82.0775 35.4321 82.0785 35.5252V36.7982C82.0775 36.8923 82.0845 36.9863 82.0994 37.0784C82.1108 37.1515 82.1411 37.2171 82.1852 37.2642C82.2378 37.3221 82.3045 37.3534 82.3731 37.3525Z" fill="#263238"/>
<path d="M83.281 37.6258V34.7266H83.4921L84.1185 36.6513V34.7266H84.369V37.6258H84.1718L83.5362 35.6463V37.6258H83.281Z" fill="#263238"/>
<path d="M91.8062 64.8008H97.8192" stroke="#263238" stroke-miterlimit="10"/>
<path d="M78.2822 64.8008H90.6541" stroke="#263238" stroke-miterlimit="10"/>
<path d="M66.2581 64.8008H77.1266" stroke="#263238" stroke-miterlimit="10"/>
<path d="M74.2334 67.0781H97.8218" stroke="#263238" stroke-miterlimit="10"/>
<path d="M66.2581 67.0781H73.1945" stroke="#263238" stroke-miterlimit="10"/>
<path d="M94.4688 69.3555H97.8209" stroke="#263238" stroke-miterlimit="10"/>
<path d="M78.8594 69.3555H93.3121" stroke="#263238" stroke-miterlimit="10"/>
<path d="M66.2581 69.3555H77.5906" stroke="#263238" stroke-miterlimit="10"/>
<path d="M96.0864 71.6289H97.8194" stroke="#263238" stroke-miterlimit="10"/>
<path d="M91.4646 71.6289H94.9328" stroke="#263238" stroke-miterlimit="10"/>
<path d="M74.3513 71.6289H90.5393" stroke="#263238" stroke-miterlimit="10"/>
<path d="M66.2581 71.6289H73.3104" stroke="#263238" stroke-miterlimit="10"/>
<path d="M95.0468 30.5586L90.0753 32.9888L91.9242 34.0517L88.9177 39.2137L86.7208 36.0251L78.9748 46.0446L74.349 42.5515L67.0159 51.1579H72.6323L75.0426 47.5612L79.4364 50.4452L86.0271 40.7303L89.8433 42.856L93.0819 34.9623L95.2788 36.4789L95.0468 30.5586Z" fill="#263238" stroke="#263238" stroke-linecap="round" stroke-linejoin="round"/>
<path d="M94.4424 48.5036C96.2254 46.163 96.2254 42.3682 94.4424 40.0276C92.6595 37.6871 89.7688 37.6871 87.9859 40.0276C86.2029 42.3682 86.2029 46.163 87.9859 48.5036C89.7688 50.8442 92.6595 50.8442 94.4424 48.5036Z" fill="white" stroke="#263238" stroke-linecap="round" stroke-linejoin="round"/>
<path d="M91.2146 49.4256C93.3863 49.4256 95.1468 47.1145 95.1468 44.2636C95.1468 41.4127 93.3863 39.1016 91.2146 39.1016C89.043 39.1016 87.2825 41.4127 87.2825 44.2636C87.2825 47.1145 89.043 49.4256 91.2146 49.4256Z" fill="white" stroke="#263238" stroke-linecap="round" stroke-linejoin="round"/>
<path d="M91.3042 49.0617V48.1481C91.1025 48.1522 90.9025 48.1 90.7173 47.995C90.5321 47.89 90.3661 47.7346 90.2301 47.539C89.9919 47.1634 89.8635 46.5868 89.845 45.8092L90.9075 45.6021C90.9072 45.8591 90.9282 46.1155 90.9701 46.3665C90.992 46.5244 91.0484 46.6704 91.1325 46.7868C91.2042 46.8718 91.298 46.9176 91.3947 46.9147C91.4453 46.9234 91.4967 46.9114 91.542 46.8804C91.5872 46.8493 91.6241 46.8007 91.6475 46.7411C91.6865 46.6261 91.7062 46.5015 91.7055 46.3757C91.7127 46.1031 91.656 45.8342 91.5431 45.6052C91.4159 45.369 91.2653 45.156 91.0954 44.9717L90.6013 44.4144C90.4666 44.2574 90.3402 44.0885 90.2231 43.9089C90.1064 43.7275 90.0139 43.5216 89.9494 43.2998C89.8754 43.0389 89.84 42.7619 89.845 42.4836C89.8343 42.2353 89.8623 41.9868 89.9273 41.7533C89.9924 41.5197 90.093 41.3061 90.2231 41.1253C90.4995 40.7828 90.8617 40.5846 91.2415 40.568V39.7031H91.5942V40.5589C91.8223 40.5624 92.0457 40.6454 92.2414 40.7995C92.3958 40.9315 92.5214 41.1142 92.6056 41.3294C92.6868 41.5393 92.7431 41.7642 92.7727 41.9963C92.8011 42.2118 92.8182 42.4295 92.8237 42.6481L91.7473 42.8186C91.7473 42.6024 91.7334 42.4105 91.7171 42.2461C91.7088 42.1116 91.6754 41.9818 91.6197 41.8684C91.5926 41.8229 91.557 41.7875 91.5163 41.7656C91.4756 41.7437 91.4313 41.7361 91.3877 41.7436C91.3353 41.7401 91.2833 41.7564 91.2377 41.7903C91.1921 41.8243 91.1548 41.8746 91.1302 41.9354C91.0771 42.0514 91.0483 42.1838 91.0467 42.3191C91.037 42.5737 91.0971 42.8243 91.216 43.0257C91.3307 43.2052 91.4548 43.3741 91.5872 43.5312L92.0512 44.0703C92.2072 44.2588 92.3522 44.4624 92.485 44.6794C92.6175 44.8941 92.7239 45.1345 92.8005 45.392C92.8841 45.6838 92.9243 45.9939 92.9188 46.3056C92.9218 46.6118 92.8694 46.9145 92.7657 47.1888C92.6668 47.4536 92.5163 47.6795 92.3296 47.8436C92.1243 48.0159 91.8903 48.1204 91.6475 48.1481V49.0617H91.3042Z" fill="#263238"/>
<path d="M68.564 44.3281H67.4087V51.159H68.564V44.3281Z" fill="#92E3A9"/>
<path d="M70.645 46.7812H69.4897V51.1545H70.645V46.7812Z" fill="#92E3A9"/>
<path d="M72.7302 46.9297H71.575V51.1567H72.7302V46.9297Z" fill="#92E3A9"/>
<path d="M74.8076 44.3281H73.6523V51.159H74.8076V44.3281Z" fill="#92E3A9"/>
<path d="M76.8928 45.8164H75.7375V51.1581H76.8928V45.8164Z" fill="#92E3A9"/>
<path d="M78.9741 46.4883H77.8188V51.16H78.9741V46.4883Z" fill="#92E3A9"/>
<path d="M81.0552 44.3281H79.8999V51.159H81.0552V44.3281Z" fill="#92E3A9"/>
<path d="M83.1365 42.3164H81.9812V51.1573H83.1365V42.3164Z" fill="#92E3A9"/>
<path d="M85.2178 40.2344H84.0625V51.1583H85.2178V40.2344Z" fill="#92E3A9"/>
<path d="M89.6268 78.4336H76.1577V80.203H89.6268V78.4336Z" fill="#263238" stroke="#263238" stroke-linecap="round" stroke-linejoin="round"/>
<path d="M93.7887 81.5664H76.1577V83.3358H93.7887V81.5664Z" fill="#263238" stroke="#263238" stroke-linecap="round" stroke-linejoin="round"/>
<path d="M89.6268 92.0547H76.1577V93.8241H89.6268V92.0547Z" fill="#263238" stroke="#263238" stroke-linecap="round" stroke-linejoin="round"/>
<path d="M93.7887 95.1875H76.1577V96.9569H93.7887V95.1875Z" fill="#263238" stroke="#263238" stroke-linecap="round" stroke-linejoin="round"/>
<path d="M72.7592 75.4766H67.2147C66.6061 75.4766 66.1128 76.1242 66.1128 76.9231V84.2931C66.1128 85.092 66.6061 85.7397 67.2147 85.7397H72.7592C73.3678 85.7397 73.8611 85.092 73.8611 84.2931V76.9231C73.8611 76.1242 73.3678 75.4766 72.7592 75.4766Z" fill="#D4D4D4"/>
<path d="M69.9864 83.1566C71.0588 83.1566 71.9281 82.0154 71.9281 80.6076C71.9281 79.1998 71.0588 78.0586 69.9864 78.0586C68.914 78.0586 68.0447 79.1998 68.0447 80.6076C68.0447 82.0154 68.914 83.1566 69.9864 83.1566Z" fill="#263238"/>
<path d="M71.1159 80.6619L69.427 79.3828V81.944L71.1159 80.6619Z" fill="white"/>
<path d="M72.7592 88.7266H67.2147C66.6061 88.7266 66.1128 89.3742 66.1128 90.1731V97.5431C66.1128 98.342 66.6061 98.9897 67.2147 98.9897H72.7592C73.3678 98.9897 73.8611 98.342 73.8611 97.5431V90.1731C73.8611 89.3742 73.3678 88.7266 72.7592 88.7266Z" fill="#D4D4D4"/>
<path d="M71.7485 94.928C72.1987 93.6502 71.7745 92.1354 70.8012 91.5444C69.8279 90.9535 68.6739 91.5102 68.2238 92.788C67.7736 94.0657 68.1977 95.5806 69.1711 96.1716C70.1444 96.7625 71.2984 96.2057 71.7485 94.928Z" fill="#263238"/>
<path d="M71.1159 93.9149L69.427 92.6328V95.194L71.1159 93.9149Z" fill="white"/>
<path d="M66.5291 87.1953H97.94" stroke="#263238" stroke-miterlimit="10"/>
<path d="M96.7305 12.4336H99.1826" stroke="#263238" stroke-linecap="round" stroke-linejoin="round"/>
<path d="M96.7305 13.9609H99.1826" stroke="#263238" stroke-linecap="round" stroke-linejoin="round"/>
<path d="M96.7305 15.4844H99.1826" stroke="#263238" stroke-linecap="round" stroke-linejoin="round"/>
<path d="M95.749 11.4219H65.8691V16.5016H95.749V11.4219Z" fill="white" stroke="#263238" stroke-linecap="round" stroke-linejoin="round"/>
<path d="M69.4179 13.124C69.4184 12.8858 69.3649 12.6528 69.2644 12.4545C69.1639 12.2562 69.0208 12.1015 68.8533 12.0101C68.6858 11.9187 68.5013 11.8946 68.3234 11.9409C68.1454 11.9873 67.9819 12.1019 67.8536 12.2703C67.7253 12.4387 67.638 12.6533 67.6027 12.887C67.5674 13.1206 67.5858 13.3627 67.6554 13.5827C67.7251 13.8026 67.8429 13.9904 67.9939 14.1224C68.145 14.2543 68.3224 14.3245 68.5039 14.3239C68.7463 14.3239 68.9788 14.1974 69.1502 13.9724C69.3216 13.7474 69.4179 13.4422 69.4179 13.124Z" fill="white" stroke="#263238" stroke-linecap="round" stroke-linejoin="round"/>
<path d="M67.4004 14.8086L66.7253 15.9263" stroke="#263238" stroke-width="2" stroke-linecap="round" stroke-linejoin="round"/>
<path d="M67.8948 13.9922L67.4006 14.8084" stroke="#263238" stroke-linecap="round" stroke-linejoin="round"/>
<path d="M70.3853 11.4531V16.5238" stroke="#263238" stroke-linecap="round" stroke-linejoin="round"/>
<path d="M14.1569 79.1051C14.159 79.0982 14.159 79.0905 14.1568 79.0836C14.1547 79.0768 14.1505 79.0713 14.1453 79.0685C14.14 79.0657 14.1342 79.0657 14.1289 79.0686C14.1237 79.0714 14.1196 79.0769 14.1174 79.0837C13.4678 81.1237 12.9547 83.234 12.584 85.3908C12.208 87.5476 11.9253 89.7306 11.7372 91.9294L11.6189 93.583C11.6004 93.8602 11.5772 94.1342 11.5609 94.4114L11.5261 95.2367C11.5099 95.791 11.4821 96.3422 11.4705 96.8965L11.4821 98.5593L11.496 99.3876C11.496 99.6647 11.5215 99.9419 11.5354 100.216C11.5679 100.77 11.5934 101.321 11.6305 101.873C11.7117 102.975 11.8393 104.068 11.9669 105.159C11.968 105.166 11.9709 105.172 11.9751 105.176C11.9794 105.181 11.9847 105.183 11.9901 105.183C11.9901 105.183 12.0133 105.183 12.011 105.156C12.011 104.604 11.9924 104.053 11.9831 103.502C11.9739 102.951 11.9344 102.403 11.9391 101.851C11.9437 101.3 11.9391 100.752 11.9252 100.204V99.3785V98.5562V96.9117L11.9576 95.2641L11.9715 94.4418C11.9715 94.1677 11.9947 93.8937 12.0063 93.6196L12.0829 91.975C12.2256 89.7848 12.4626 87.6069 12.7928 85.4517C13.1075 83.2886 13.5639 81.1651 14.1569 79.1051Z" fill="#263238"/>
<path d="M14.3353 87.7099C14.3372 87.7026 14.3367 87.6947 14.3341 87.6878C14.3315 87.681 14.3269 87.6758 14.3214 87.6734C14.3159 87.6709 14.3098 87.6715 14.3046 87.6749C14.2994 87.6783 14.2954 87.6844 14.2936 87.6916C13.9386 89.0609 13.6412 90.4548 13.4027 91.8669C13.1652 93.2851 12.9886 94.7198 12.8738 96.164C12.7624 97.6045 12.6418 99.048 12.6256 100.495C12.5977 101.945 12.6373 103.396 12.7439 104.84C12.7444 104.847 12.7465 104.852 12.7499 104.857C12.7533 104.861 12.7577 104.864 12.7624 104.865C12.7683 104.866 12.7741 104.864 12.7788 104.859C12.7836 104.855 12.7868 104.848 12.788 104.84C12.9156 103.397 12.9921 101.959 13.0687 100.522C13.1452 99.0846 13.1568 97.641 13.2287 96.2036C13.2958 94.77 13.4244 93.3425 13.6138 91.9278C13.7962 90.5058 14.037 89.0978 14.3353 87.7099Z" fill="#263238"/>
<path d="M17.9713 90.7378C17.9671 90.7331 17.9618 90.7305 17.9563 90.7305C17.9507 90.7305 17.9454 90.7331 17.9412 90.7378C17.0317 91.505 16.2126 92.4428 15.51 93.5213C15.1575 94.0633 14.8402 94.6429 14.5611 95.2541L14.3663 95.7384L14.2132 96.2409C14.161 96.4038 14.1161 96.5706 14.0786 96.7403C14.0392 96.9139 13.9951 97.0845 13.9603 97.255C13.6823 98.6324 13.5136 100.044 13.4569 101.467C13.4031 102.882 13.4435 104.3 13.5775 105.706C13.5788 105.712 13.5815 105.718 13.5852 105.722C13.5889 105.727 13.5935 105.729 13.5984 105.73C13.6042 105.73 13.6097 105.728 13.614 105.723C13.6183 105.718 13.621 105.711 13.6216 105.703L13.9 101.506C13.978 100.118 14.1151 98.7361 14.3106 97.3677C14.3407 97.2002 14.3779 97.0357 14.4103 96.8682C14.4404 96.7002 14.4776 96.5344 14.5217 96.3718L14.6516 95.8876L14.8186 95.4308C15.0713 94.8214 15.3623 94.2407 15.6886 93.6949C16.3386 92.5832 17.1074 91.6006 17.9713 90.7774C17.9734 90.7748 17.975 90.7717 17.9761 90.7683C17.9772 90.7649 17.9778 90.7613 17.9778 90.7576C17.9778 90.7539 17.9772 90.7502 17.9761 90.7468C17.975 90.7434 17.9734 90.7403 17.9713 90.7378Z" fill="#263238"/>
<path d="M16.2109 96.132C15.7384 96.5846 15.359 97.1842 15.1067 97.877C14.8398 98.5547 14.632 99.2699 14.4873 100.009C14.4432 100.192 14.4084 100.377 14.3783 100.563L14.2785 101.12C14.2259 101.495 14.1895 101.873 14.1695 102.253C14.1695 102.634 14.1579 103.015 14.1695 103.395C14.1902 103.776 14.2282 104.154 14.2831 104.528C14.2831 104.528 14.2831 104.55 14.2994 104.55C14.3052 104.551 14.3114 104.55 14.3166 104.546C14.3218 104.542 14.3256 104.536 14.3272 104.528C14.3937 104.16 14.4449 103.786 14.4803 103.411C14.5244 103.042 14.5685 102.677 14.6033 102.308C14.6381 101.94 14.6798 101.577 14.703 101.209C14.7262 100.84 14.761 100.472 14.8213 100.112C14.9154 99.3863 15.071 98.6764 15.2853 97.9958C15.48 97.2988 15.7981 96.6725 16.2133 96.1685C16.2153 96.1659 16.2169 96.1629 16.218 96.1595C16.2191 96.1561 16.2197 96.1524 16.2197 96.1487C16.2197 96.145 16.2191 96.1413 16.218 96.1379C16.2169 96.1345 16.2153 96.1315 16.2133 96.1289C16.2124 96.1299 16.2117 96.1309 16.2109 96.132Z" fill="#263238"/>
<path d="M11.1116 100.335C10.9933 98.4711 10.759 96.6256 10.5386 94.7831C10.3182 92.9406 10.0747 91.1012 9.81484 89.2678C9.55501 87.4345 9.26967 85.6133 8.97041 83.7861C8.96853 83.7791 8.96509 83.773 8.96053 83.7687C8.95597 83.7643 8.95052 83.7619 8.94489 83.7617C8.94181 83.7624 8.93888 83.764 8.93626 83.7662C8.93365 83.7685 8.93141 83.7714 8.92968 83.7748C8.92794 83.7782 8.92675 83.782 8.92618 83.7861C8.9256 83.7901 8.92565 83.7943 8.92633 83.7983C9.16991 85.6255 9.3903 87.4741 9.59677 89.3196C9.80324 91.1652 10.0097 93.0046 10.186 94.8532C10.3623 96.7017 10.4946 98.5534 10.6732 100.399L11.1905 105.945C11.1918 105.951 11.1945 105.957 11.1982 105.961C11.2019 105.965 11.2065 105.968 11.2114 105.969C11.2143 105.969 11.2173 105.969 11.2201 105.968C11.2229 105.967 11.2255 105.965 11.2277 105.962C11.2299 105.96 11.2316 105.956 11.2328 105.953C11.234 105.949 11.2346 105.945 11.2346 105.942C11.2508 105.476 11.2532 105.007 11.2601 104.538C11.2671 104.069 11.2462 103.606 11.2392 103.137C11.2276 102.196 11.1673 101.267 11.1116 100.335Z" fill="#263238"/>
<path d="M10.2621 100.305C10.1856 99.5678 10.0812 98.8339 9.97448 98.103L9.77497 97.0127C9.71001 96.6503 9.6497 96.2879 9.5685 95.9316C9.28565 94.4857 8.92279 93.0689 8.4828 91.6924L8.31345 91.1807L8.12322 90.6782C8.00259 90.3432 7.85876 90.0204 7.71957 89.6946C7.4414 89.0409 7.09727 88.4396 6.69651 87.9069C6.69456 87.9042 6.69222 87.9021 6.68963 87.9006C6.68704 87.8992 6.68425 87.8984 6.68143 87.8984C6.67861 87.8984 6.67582 87.8992 6.67323 87.9006C6.67064 87.9021 6.6683 87.9042 6.66635 87.9069C6.66432 87.9094 6.6627 87.9125 6.66159 87.9159C6.66048 87.9193 6.65991 87.923 6.65991 87.9267C6.65991 87.9304 6.66048 87.934 6.66159 87.9374C6.6627 87.9408 6.66432 87.9439 6.66635 87.9465C7.03667 88.4982 7.34878 89.1128 7.5943 89.7737C7.71725 90.1057 7.84948 90.4315 7.95387 90.7726L8.12091 91.2782L8.26938 91.7959C8.66154 93.1772 8.97709 94.594 9.21356 96.0351C9.34347 96.7508 9.42931 97.4817 9.53602 98.2035L9.66825 99.2968C9.71697 99.6592 9.77497 100.019 9.81441 100.384C9.90256 101.115 10.0046 101.84 10.1021 102.568C10.1995 103.295 10.29 104.029 10.406 104.76C10.4074 104.767 10.4104 104.773 10.4146 104.777C10.4188 104.782 10.4238 104.784 10.4292 104.785C10.4349 104.784 10.4402 104.78 10.4441 104.775C10.448 104.769 10.4501 104.762 10.45 104.754C10.45 104.011 10.45 103.265 10.4106 102.522C10.3712 101.779 10.3201 101.045 10.2621 100.305Z" fill="#263238"/>
<path d="M9.0893 100.396C8.82716 99.418 8.52326 98.4617 8.19152 97.5238C7.8568 96.5883 7.47952 95.6802 7.06174 94.8042C7.05754 94.7995 7.05219 94.7969 7.04666 94.7969C7.04113 94.7969 7.03579 94.7995 7.03158 94.8042C7.02955 94.8067 7.02793 94.8098 7.02682 94.8132C7.02572 94.8166 7.02515 94.8203 7.02515 94.824C7.02515 94.8277 7.02572 94.8313 7.02682 94.8347C7.02793 94.8381 7.02955 94.8412 7.03158 94.8438C7.39306 95.7546 7.71224 96.6933 7.98737 97.6547C8.27735 98.6079 8.53718 99.5733 8.75292 100.557C8.96867 101.541 9.13338 102.537 9.33289 103.523C9.5324 104.51 9.71103 105.503 9.94301 106.499C9.94431 106.505 9.94698 106.511 9.95069 106.515C9.9544 106.519 9.95898 106.522 9.96389 106.523C9.96987 106.522 9.97547 106.519 9.97971 106.513C9.98396 106.508 9.98657 106.5 9.98709 106.493C9.99237 105.451 9.91461 104.412 9.7551 103.392C9.59531 102.371 9.37265 101.369 9.0893 100.396Z" fill="#263238"/>
<path d="M9.03843 103.658C8.89475 103.048 8.68455 102.47 8.41439 101.94C8.16347 101.393 7.85759 100.893 7.505 100.454C7.3248 100.242 7.1316 100.051 6.92736 99.8812C6.72548 99.7046 6.50402 99.5701 6.27083 99.4823C6.26718 99.4786 6.26269 99.4766 6.25807 99.4766C6.25346 99.4766 6.24897 99.4786 6.24532 99.4823C6.24172 99.4878 6.23975 99.4948 6.23975 99.5021C6.23975 99.5093 6.24172 99.5164 6.24532 99.5219C6.67099 99.7926 7.04753 100.18 7.34957 100.658C7.65312 101.113 7.90831 101.62 8.10817 102.165C8.32391 102.701 8.43527 103.292 8.62086 103.843C8.70437 104.127 8.78557 104.41 8.883 104.693C8.96294 104.989 9.05828 105.277 9.16834 105.555C9.17006 105.559 9.17271 105.563 9.17598 105.566C9.17926 105.569 9.18304 105.57 9.1869 105.57C9.18983 105.571 9.1928 105.57 9.19561 105.569C9.19841 105.568 9.201 105.566 9.20319 105.563C9.20538 105.561 9.20713 105.557 9.20832 105.554C9.20951 105.55 9.21012 105.547 9.2101 105.543C9.21902 105.225 9.21049 104.906 9.18458 104.589C9.14746 104.279 9.09643 103.968 9.03843 103.658Z" fill="#263238"/>
<path d="M9.12421 86.4495C8.41574 86.1889 7.77491 85.6793 7.27084 84.9757C6.76676 84.2721 6.41857 83.4012 6.26382 82.457C5.72329 79.1679 7.45623 80.5779 5.90424 75.422C4.35225 70.2661 4.71183 69.0723 5.25932 67.5831C5.80681 66.0939 6.09215 66.5659 6.57004 68.5241C7.04794 70.4823 8.76695 73.5339 9.43508 79.2471C10.1032 84.9603 9.12421 86.4495 9.12421 86.4495Z" fill="#92E3A9"/>
<path d="M13.7186 80.9047C13.7186 80.9047 12.169 80.1981 12.1087 76.3639C12.0483 72.5297 13.2431 73.3185 13.4217 68.5372C13.6003 63.7559 13.8393 60.3967 14.4935 60.3145C15.1477 60.2323 16.8806 62.6625 17.4768 67.986C18.073 73.3094 16.6997 76.8177 15.5073 78.3952C14.3148 79.9728 13.7186 80.9047 13.7186 80.9047Z" fill="#92E3A9"/>
<path d="M8.29169 91.0671C8.29169 91.0671 7.93443 88.2501 7.21991 86.9192C6.50539 85.5884 4.95341 84.4128 3.93963 81.8181C2.92585 79.2234 1.79375 77.9839 1.85175 81.6628C1.90975 85.3417 3.17407 87.2329 4.71446 88.4846C6.25485 89.7362 8.29169 91.0671 8.29169 91.0671Z" fill="#92E3A9"/>
<path d="M7.63765 95.9196C7.63765 95.9196 6.20629 92.3169 4.11841 89.6551C2.03054 86.9934 0.362554 85.6656 0.958759 86.9934C1.55496 88.3213 2.2718 88.2451 3.27862 90.5931C4.28544 92.9412 3.99546 94.6618 5.42682 95.9927C6.85817 97.3235 7.63765 95.9196 7.63765 95.9196Z" fill="#92E3A9"/>
<path d="M7.45973 100.539C7.39941 100.305 7.3391 98.581 5.31154 97.174C3.28397 95.767 1.36777 96.3121 1.61599 97.0156C1.86422 97.7191 3.10535 98.8946 4.35807 99.6012C5.6108 100.308 7.45973 100.539 7.45973 100.539Z" fill="#92E3A9"/>
<path d="M13.5992 91.2226C13.5992 91.2226 12.7038 89.7365 13.1816 86.6058C13.6595 83.4751 14.7313 84.2547 15.933 82.6132C17.1347 80.9717 16.8888 80.7342 18.0812 79.0135C19.2736 77.2928 20.3454 76.3518 20.8233 77.0553C21.3012 77.7588 20.5913 79.9515 19.8698 81.2062C19.1483 82.4609 18.0139 83.0822 17.485 84.6475C16.9561 86.2129 17.1857 88.7193 15.8147 89.8918C14.4437 91.0643 13.5992 91.2226 13.5992 91.2226Z" fill="#92E3A9"/>
<path d="M16.5833 92.0839C16.5833 92.0839 18.7198 88.874 20.2811 86.526C21.8424 84.178 22.427 82.3782 22.4873 83.9435C22.5476 85.5089 23.0232 86.7605 21.7705 88.7979C20.5177 90.8353 16.5833 92.0839 16.5833 92.0839Z" fill="#92E3A9"/>
<path d="M15.4483 97.2492C15.4483 97.2492 15.388 95.9975 18.7866 93.1013C22.1852 90.2051 23.6166 89.6569 23.2593 90.8325C22.902 92.008 21.4034 93.1805 19.8004 95.294C18.1974 97.4075 15.4483 97.2492 15.4483 97.2492Z" fill="#92E3A9"/>
<path d="M9.26618 86.1149C9.26618 86.1149 8.47047 80.4991 7.64228 76.5066C6.81409 72.514 6.27124 70.0898 6.27124 70.0898" stroke="#263238" stroke-linecap="round" stroke-linejoin="round"/>
<path d="M13.583 80.949C13.583 80.949 15.0329 74.8582 15.5085 71.1854C15.9841 67.5126 15.4505 64.7656 15.2116 63.1211" stroke="#263238" stroke-linecap="round" stroke-linejoin="round"/>
<path d="M8.10199 90.955C7.46052 89.5056 6.72552 88.1312 5.90508 86.8467C4.59436 84.8124 3.58522 83.716 2.98438 81.7578" stroke="#263238" stroke-linecap="round" stroke-linejoin="round"/>
<path d="M13.6028 91.2211C13.6028 91.2211 14.0807 87.4661 15.2128 85.5079C16.3449 83.5497 18.6114 80.4981 19.5045 78.543" stroke="#263238" stroke-linecap="round" stroke-linejoin="round"/>
<path d="M7.31536 100.452C7.31536 100.452 5.30867 98.7379 3.87964 97.7969" stroke="#263238" stroke-linecap="round" stroke-linejoin="round"/>
<path d="M18.8055 116.231C18.6733 111.483 14.653 108.312 14.653 108.312H8.49143C8.49143 108.312 4.47111 111.48 4.33424 116.231C4.19736 120.981 8.89045 138.398 8.89045 138.398H14.2493C14.2493 138.398 18.9494 120.978 18.8055 116.231Z" fill="#263238" stroke="#263238" stroke-linecap="round" stroke-linejoin="round"/>
<path d="M15.4487 103.645H7.58667L8.49374 108.313H14.5416L15.4487 103.645Z" fill="#263238" stroke="#263238" stroke-linecap="round" stroke-linejoin="round"/>
<path d="M46.6134 77.721C46.6134 77.721 44.5789 80.5533 44.5789 81.4425C44.5789 82.3318 44.8248 84.4392 44.7019 85.2463C44.5789 86.0533 39.5239 91.1544 39.5239 91.1544L41.0643 96.2524C41.0643 96.2524 45.1937 87.6765 46.4278 85.4107C47.662 83.1449 49.0168 80.7969 49.1398 79.5818C49.2627 78.3666 47.1679 77.2459 46.6134 77.721Z" fill="#D4D4D4" stroke="#263238" stroke-miterlimit="10"/>
<path d="M46.9526 98.7344L52.9449 95.6342C52.9449 95.6342 56.8469 89.8479 59.8348 85.6086C62.8228 81.3694 66.5625 82.3379 66.5625 85.3894C66.5625 88.4409 65.4837 93.0029 64.4885 94.9825C63.4933 96.962 61.4982 102.066 61.4982 102.066C61.4982 102.066 68.474 104.247 70.3833 105.663C72.2925 107.079 79.962 114.223 83.9058 117.954C86.4994 120.39 88.005 121.383 88.4202 121.383C88.5316 121.383 88.7311 121.359 88.9677 121.322C89.9165 121.176 91.0556 119.864 91.8722 119.191C92.9927 118.277 94.707 117.013 95.7046 116.876C97.2821 116.657 96.7021 119.708 95.5399 121.889C94.3776 124.069 92.2921 124.724 91.5543 125.485C90.8166 126.247 89.2345 126.685 88.6476 126.795C88.0606 126.905 82.8363 124.069 80.593 122.869C78.3497 121.67 74.1206 121.395 71.5641 117.388C70.717 116.034 69.7637 114.801 68.7199 113.709C68.7199 113.709 54.8541 114.47 52.3626 114.799C49.871 115.128 44.1433 115.344 41.7353 115.344C39.3273 115.344 38.1 114.093 38.1 114.093C38.1 114.093 37.1721 112.399 38.5803 109.677C39.9884 106.954 46.9526 98.7344 46.9526 98.7344Z" fill="#6E6E6E" stroke="#263238" stroke-miterlimit="10"/>
<path d="M95.5362 121.903C96.6961 119.722 97.2784 116.671 95.7009 116.89C94.7034 117.027 92.989 118.294 91.8685 119.205C91.0542 119.862 89.9128 121.175 88.964 121.336C88.732 121.373 88.5279 121.397 88.4165 121.397C88.0662 121.397 86.9295 120.691 85.0156 118.988C84.7465 120.456 83.967 122.311 81.8792 123.59C84.4008 124.939 88.1567 126.916 88.6439 126.824C89.2262 126.715 90.8037 126.279 91.5507 125.515C92.2977 124.75 94.3739 124.083 95.5362 121.903Z" fill="#D4D4D4" stroke="#263238" stroke-miterlimit="10"/>
<path d="M95.5361 121.903C96.696 119.722 97.2783 116.671 95.7008 116.89C94.7032 117.027 92.9889 118.294 91.8684 119.205C91.0541 119.862 89.9127 121.175 88.9639 121.336C88.7319 121.373 88.5278 121.397 88.4164 121.397C88.3003 121.385 88.1861 121.35 88.0777 121.294C88.3607 122.177 88.6113 124.068 86.6858 126.066C87.688 126.544 88.4489 126.861 88.6507 126.824C89.233 126.715 90.8105 126.279 91.5575 125.515C92.3045 124.75 94.3738 124.083 95.5361 121.903Z" fill="white" stroke="#263238" stroke-miterlimit="10"/>
<path d="M52.4324 99.5232C52.2539 99.358 52.0688 99.2056 51.8779 99.0664" stroke="#263238" stroke-miterlimit="10"/>
<path d="M61.4926 102.066L53.9762 101.487C53.6659 100.939 53.3068 100.441 52.9067 100.004" stroke="#263238" stroke-miterlimit="10"/>
<path d="M48.0845 103.836C48.4119 103.449 48.7878 103.14 49.1957 102.922" stroke="#263238" stroke-miterlimit="10"/>
<path d="M45.9209 106.992C46.376 106.17 46.8736 105.389 47.4103 104.656" stroke="#263238" stroke-miterlimit="10"/>
<path d="M46.7639 104.02C46.7639 104.02 45.0866 105.999 44.676 108.533" stroke="#263238" stroke-miterlimit="10"/>
<path d="M46.948 98.7345C46.9363 99.0317 46.8918 99.3251 46.8158 99.6055C46.6812 100.132 45.8182 104.503 43.4867 108.258C41.9746 110.622 40.1478 112.606 38.0954 114.114C35.2859 111.251 32.7193 107.999 30.4398 104.414C26.51 98.2959 24.1762 92.4426 24.3131 85.6239C24.45 78.8052 26.1133 74.5264 26.1133 74.5264L25.9787 69.2821C26.2455 68.4081 27.6444 67.1869 29.5073 68.7583C31.3701 70.3298 32.8363 74.0026 32.8363 74.0026L32.5695 76.0978C32.5695 76.0978 33.3675 76.7983 33.8338 77.1485C34.3001 77.4987 36.0307 79.5057 37.5618 82.0394C39.0929 84.5732 40.6913 92.1807 40.9581 94.1024C41.2249 96.024 43.4218 96.3712 43.4218 96.3712L45.6837 97.9488L46.948 98.7345Z" fill="#92E3A9" stroke="#263238" stroke-miterlimit="10"/>
<path d="M32.8377 74.0026L32.571 76.0978C32.571 76.0978 28.4439 74.3497 26.1148 74.5264L25.9802 69.2821C26.247 68.4081 27.6459 67.1869 29.5087 68.7583C31.3716 70.3298 32.8377 74.0026 32.8377 74.0026Z" fill="#D4D4D4" stroke="#263238" stroke-miterlimit="10"/>
<path d="M35.1701 59.8692C35.1701 59.8692 36.3022 63.7399 36.0099 64.7419C35.841 65.3242 35.6985 65.9191 35.583 66.5234C35.583 66.5234 37.309 68.9872 36.975 69.642C36.6409 70.2967 35.7501 70.5982 35.7501 70.5982C35.7501 70.5982 35.5181 74.6974 35.3255 75.3704C35.133 76.0434 34.5345 76.7469 33.3003 76.284C32.0661 75.8211 30.2589 74.3228 29.5885 73.6041C28.9181 72.8853 28.5051 67.7172 28.5051 67.7172L29.897 67.1386C29.897 67.1386 29.5607 64.888 29.73 64.4739C29.8994 64.0597 31.8179 64.3551 31.4885 62.808C31.1591 61.2609 30.4747 60.6275 30.8598 60.0671C31.2449 59.5068 35.1701 59.8692 35.1701 59.8692Z" fill="#D4D4D4" stroke="#263238" stroke-miterlimit="10"/>
<path d="M35.4948 72.0708C35.4948 72.0708 33.5298 72.2961 33.2607 70.0547" stroke="#263238" stroke-miterlimit="10"/>
<path d="M33.8125 69.8672L32.5459 70.5524" stroke="#263238" stroke-miterlimit="10"/>
<path d="M34.6352 66.6294C34.5749 67.0832 34.4032 67.4212 34.2617 67.3877C34.1202 67.3542 34.0506 66.9613 34.1109 66.5076C34.1712 66.0538 34.3429 65.7188 34.4844 65.7523C34.6259 65.7858 34.6955 66.1787 34.6352 66.6294Z" fill="#263238"/>
<path d="M33.6101 65.3535C33.6101 65.3535 34.5125 64.2602 35.3013 65.1708" stroke="#263238" stroke-miterlimit="10"/>
<path d="M36.6678 59.584C36.582 60.5372 35.1669 59.8885 35.1669 59.8885L32.2508 61.0275C32.2508 61.0275 32.3111 62.6172 32.2833 63.6709C32.2554 64.7246 30.5875 65.4342 30.5875 65.4342L30.3555 70.2399L25.9477 70.0024L25.3144 68.0594C25.3144 68.0594 22.5306 64.6424 22.8345 61.2559C23.0201 59.182 24.2078 57.1598 26.1194 56.0787C26.7853 55.7074 27.4885 55.4643 28.2073 55.3569C28.9786 55.2415 29.7578 55.2517 30.5271 55.3874C34.9627 56.1457 36.7536 58.6186 36.6678 59.584Z" fill="#263238" stroke="#263238" stroke-miterlimit="10"/>
<path d="M28.1907 65.7273L26.5274 66.9455C26.4578 66.778 24.9777 63.1996 26.133 56.0733C26.7989 55.7021 27.5021 55.459 28.2209 55.3516C27.5481 58.7655 27.5249 61.278 27.6572 62.8464C27.8057 64.7619 28.1884 65.7182 28.1907 65.7273Z" fill="white" stroke="#263238" stroke-miterlimit="10"/>
<path d="M28.7384 71.3949C30.1421 70.6716 30.8334 68.5914 30.2825 66.7486C29.7315 64.9058 28.1469 63.9983 26.7431 64.7216C25.3394 65.4449 24.6481 67.5251 25.199 69.3679C25.75 71.2107 27.3346 72.1182 28.7384 71.3949Z" fill="white" stroke="#263238" stroke-miterlimit="10"/>
<path d="M28.7792 85.1849C29.6494 88.5924 30.7407 91.8956 32.0409 95.0582C34.1729 100.214 37.3766 105.809 38.5667 105.458C39.7568 105.108 46.4867 89.9023 46.953 88.5928C47.4193 87.2832 48.1524 85.3585 48.1524 85.3585C48.1524 85.3585 49.6835 83.8724 49.8157 83.2602C49.948 82.6481 49.6394 79.7458 49.6394 79.7458C49.6394 79.7458 50.4514 78.3449 50.1869 77.7328C49.9224 77.1206 49.4747 77.3125 49.0107 77.6627C48.5468 78.013 47.533 78.9905 47.533 78.9905C47.6624 78.3079 47.6719 77.5956 47.5608 76.9075C47.3613 75.9482 46.7535 76.271 46.6862 76.8831C46.6189 77.4952 46.6213 78.1013 46.4218 78.7104C46.1367 79.4437 45.9313 80.2259 45.8116 81.034C45.6794 82.0816 45.3198 84.9169 45.3198 84.9169C45.3198 84.9169 41.6336 90.3195 40.6337 91.6352C40.1396 92.2808 39.0933 93.3345 39.0933 93.3345L36.3698 86.2265C36.3698 86.2265 34.9779 79.761 33.5071 78.0038C32.7951 77.1564 31.9047 76.6111 30.9526 76.4394C30.0005 76.2677 29.0311 76.4775 28.1714 77.0415" fill="#92E3A9"/>
<path d="M28.7792 85.1849C29.6494 88.5924 30.7407 91.8956 32.0409 95.0582C34.1729 100.214 37.3766 105.809 38.5667 105.458C39.7568 105.108 46.4867 89.9023 46.953 88.5928C47.4193 87.2832 48.1524 85.3585 48.1524 85.3585C48.1524 85.3585 49.6835 83.8724 49.8157 83.2602C49.948 82.6481 49.6394 79.7458 49.6394 79.7458C49.6394 79.7458 50.4514 78.3449 50.1869 77.7328C49.9224 77.1206 49.4747 77.3125 49.0107 77.6627C48.5468 78.013 47.533 78.9905 47.533 78.9905C47.6624 78.3079 47.6719 77.5956 47.5608 76.9075C47.3613 75.9482 46.7535 76.271 46.6862 76.8831C46.6189 77.4952 46.6213 78.1013 46.4218 78.7104C46.1367 79.4437 45.9313 80.2259 45.8116 81.034C45.6794 82.0816 45.3198 84.9169 45.3198 84.9169C45.3198 84.9169 41.6336 90.3195 40.6337 91.6352C40.1396 92.2808 39.0933 93.3345 39.0933 93.3345L36.3698 86.2265C36.3698 86.2265 34.9779 79.761 33.5071 78.0038C32.7951 77.1564 31.9047 76.6111 30.9526 76.4394C30.0005 76.2677 29.0311 76.4775 28.1714 77.0415" stroke="#263238" stroke-miterlimit="10"/>
<path d="M47.5679 81.2073C47.5233 81.1961 47.4809 81.1733 47.4432 81.1403C47.4054 81.1073 47.3731 81.0647 47.348 81.0151C47.323 80.9654 47.3057 80.9097 47.2972 80.8512C47.2888 80.7927 47.2893 80.7326 47.2988 80.6744L48.9389 70.6092C48.9579 70.496 49.0096 70.3969 49.0832 70.3327C49.1567 70.2685 49.2464 70.2443 49.3333 70.2651C49.3778 70.2764 49.4202 70.2992 49.4579 70.3322C49.4957 70.3652 49.528 70.4078 49.5531 70.4574C49.5782 70.507 49.5954 70.5627 49.6039 70.6212C49.6123 70.6797 49.6118 70.7398 49.6024 70.7981L47.9599 80.848C47.9441 80.9638 47.8939 81.0666 47.8204 81.134C47.747 81.2013 47.6561 81.2277 47.5679 81.2073Z" fill="#263238" stroke="#263238" stroke-miterlimit="10"/>
<path d="M49.8109 83.2602C49.9432 82.6511 49.6346 79.7458 49.6346 79.7458C49.6346 79.7458 50.4466 78.3449 50.1821 77.7328C49.9176 77.1206 49.4699 77.3125 49.0059 77.6627C48.542 78.013 47.5282 78.9905 47.5282 78.9905C47.6576 78.3079 47.6671 77.5956 47.556 76.9075C47.3565 75.9482 46.7487 76.271 46.6814 76.8831C46.6141 77.4952 46.6165 78.1013 46.417 78.7104C46.1319 79.4437 45.9265 80.2259 45.8068 81.034C45.6746 82.0816 45.315 84.9169 45.315 84.9169C45.315 84.9169 44.6933 85.8306 43.8906 86.9939L46.5515 89.5673C46.7557 89.0861 46.8949 88.745 46.9482 88.5928C47.4122 87.2802 48.1476 85.3585 48.1476 85.3585C48.1476 85.3585 49.6787 83.8724 49.8109 83.2602Z" fill="#D4D4D4" stroke="#263238" stroke-miterlimit="10"/>
<path d="M47.5272 78.9922C47.5272 78.9922 46.7616 79.784 46.5413 80.3931" stroke="#263238" stroke-miterlimit="10"/>
<path d="M62.0546 87.1923C62.0546 87.1923 61.5767 90.4935 62.3538 93.009C63.131 95.5246 66.7848 104.64 67.0237 106.29C67.2627 107.941 66.4252 110.694 67.0841 111.714C67.7429 112.734 70.9165 113.051 73.9091 112.817C76.9017 112.582 78.6393 112.107 78.9989 110.456C79.3585 108.806 79.5974 107.941 78.6996 107.941C77.8018 107.941 76.9017 108.099 75.7047 107.785C74.5076 107.472 71.8746 105.504 71.515 105.191C71.1554 104.877 70.8561 103.933 70.8561 103.933C70.8561 103.933 70.0187 100.711 69.1789 93.1644C68.3391 85.6178 68.9469 82.3988 66.2466 81.2872C63.5463 80.1756 60.4214 84.7224 59.8298 85.5995" fill="#6E6E6E"/>
<path d="M62.0546 87.1923C62.0546 87.1923 61.5767 90.4935 62.3538 93.009C63.131 95.5246 66.7848 104.64 67.0237 106.29C67.2627 107.941 66.4252 110.694 67.0841 111.714C67.7429 112.734 70.9165 113.051 73.9091 112.817C76.9017 112.582 78.6393 112.107 78.9989 110.456C79.3585 108.806 79.5974 107.941 78.6996 107.941C77.8018 107.941 76.9017 108.099 75.7047 107.785C74.5076 107.472 71.8746 105.504 71.515 105.191C71.1554 104.877 70.8561 103.933 70.8561 103.933C70.8561 103.933 70.0187 100.711 69.1789 93.1644C68.3391 85.6178 68.9469 82.3988 66.2466 81.2872C63.5463 80.1756 60.4214 84.7224 59.8298 85.5995" stroke="#263238" stroke-miterlimit="10"/>
<path d="M79.0024 110.443C79.362 108.793 79.601 107.928 78.7032 107.928C77.8054 107.928 76.9053 108.086 75.7082 107.772C74.5112 107.459 71.8781 105.491 71.5186 105.178C71.159 104.864 70.8597 103.92 70.8597 103.92C70.5273 102.506 70.2539 101.07 70.0408 99.6168C67.9321 98.6575 66.329 100.479 65.5356 101.697C66.3058 103.81 66.9276 105.628 67.0273 106.265C67.2593 107.916 66.4288 110.669 67.0876 111.689C67.7465 112.709 70.92 113.026 73.9127 112.791C76.9053 112.557 78.6429 112.106 79.0024 110.443Z" fill="#D4D4D4" stroke="#263238" stroke-miterlimit="10"/>
<path d="M78.7008 107.94C77.8031 107.94 76.903 108.098 75.7059 107.785C74.5089 107.471 71.8758 105.504 71.5162 105.19C71.1566 104.876 70.8574 103.932 70.8574 103.932C70.8574 103.932 70.7855 103.658 70.6648 103.083C68.5352 102.912 67.3544 104.121 66.7373 105.187C66.8569 105.543 66.9532 105.912 67.025 106.289C67.257 107.94 66.4264 110.693 67.0853 111.713C67.7441 112.734 70.9177 113.05 73.9103 112.816C76.9029 112.581 78.6405 112.106 79.0001 110.456C79.3597 108.805 79.5986 107.94 78.7008 107.94Z" fill="white" stroke="#263238" stroke-miterlimit="10"/>
<path d="M49.7496 126.637H26.428V128.455H49.7496V126.637Z" fill="#919191" stroke="#263238" stroke-miterlimit="10"/>
<path d="M46.7507 117.238L54.2996 136.918C54.3553 137.064 54.3816 137.226 54.3761 137.39C54.3707 137.553 54.3335 137.711 54.2682 137.851C54.2029 137.99 54.1117 138.105 54.0031 138.184C53.8945 138.264 53.7721 138.306 53.6477 138.307C53.5172 138.306 53.3892 138.26 53.277 138.173C53.1647 138.086 53.0724 137.96 53.0097 137.81L44.6721 117.844L46.7507 117.238Z" fill="#919191" stroke="#263238" stroke-miterlimit="10"/>
<path d="M29.8508 111.988L22.9863 137.089C22.9413 137.241 22.9268 137.406 22.9441 137.568C22.9615 137.73 23.0103 137.883 23.0857 138.013C23.161 138.144 23.2606 138.246 23.3748 138.311C23.489 138.377 23.614 138.402 23.738 138.386C23.8683 138.37 23.9928 138.308 24.0986 138.207C24.2043 138.105 24.2873 137.968 24.3388 137.81L31.9526 112.323L29.8508 111.988Z" fill="#919191" stroke="#263238" stroke-miterlimit="10"/>
<path d="M27.9314 81.9298C27.9314 81.9298 24.6998 76.1709 23.3148 76.4724C21.9299 76.7739 20.531 89.6591 22.1549 98.299C23.7788 106.939 29.4346 115.868 37.2735 118.606C46.3952 121.788 54.1783 116.17 54.2456 115.122C54.3129 114.074 45.8268 109.817 27.9314 81.9298Z" fill="#D4D4D4"/>
<path opacity="0.29" d="M37.2725 118.603C46.3942 121.786 54.1773 116.167 54.2446 115.119C54.2724 114.678 52.8248 113.688 49.8368 110.691C34.8668 111.389 26.151 103.611 22.2537 98.8477C24.0191 107.311 29.6007 115.923 37.2725 118.603Z" fill="black"/>
<path d="M27.9314 81.9298C27.9314 81.9298 24.6998 76.1709 23.3148 76.4724C21.9299 76.7739 20.531 89.6591 22.1549 98.299C23.7788 106.939 29.4346 115.868 37.2735 118.606C46.3952 121.788 54.1783 116.17 54.2456 115.122C54.3129 114.074 45.8268 109.817 27.9314 81.9298Z" stroke="#263238" stroke-miterlimit="10"/>
<path d="M95.7032 125.67C95.7032 125.67 93.0354 124.422 86.8135 123.843C80.5916 123.264 74.6922 124.147 74.4602 124.906C74.2839 125.484 75.1887 133.067 75.6202 136.6C75.6814 137.101 75.8763 137.556 76.1701 137.885C76.4639 138.213 76.8372 138.394 77.2232 138.394H94.193C94.5811 138.394 94.9564 138.212 95.2509 137.88C95.5454 137.548 95.7396 137.089 95.7983 136.585L96.8284 127.778C96.8913 127.309 96.8123 126.826 96.6082 126.432C96.4041 126.039 96.0911 125.765 95.7357 125.67H95.7032Z" fill="#D4D4D4"/>
<path opacity="0.29" d="M95.4079 137.675C87.1793 137.7 82.7994 132.318 80.7278 127.604C79.9205 125.777 78.6051 124.668 77.248 124.02C75.6055 124.26 74.5477 124.592 74.4641 124.906C74.2878 125.484 75.1926 133.068 75.6241 136.6C75.6853 137.101 75.8802 137.556 76.174 137.885C76.4678 138.213 76.8411 138.394 77.2271 138.394H94.1969C94.4259 138.393 94.6523 138.329 94.861 138.205C95.0697 138.081 95.2561 137.9 95.4079 137.675Z" fill="black"/>
<path d="M95.7032 125.67C95.7032 125.67 93.0354 124.422 86.8135 123.843C80.5916 123.264 74.6922 124.147 74.4602 124.906C74.2839 125.484 75.1887 133.067 75.6202 136.6C75.6814 137.101 75.8763 137.556 76.1701 137.885C76.4639 138.213 76.8372 138.394 77.2232 138.394H94.193C94.5811 138.394 94.9564 138.212 95.2509 137.88C95.5454 137.548 95.7396 137.089 95.7983 136.585L96.8284 127.778C96.8913 127.309 96.8123 126.826 96.6082 126.432C96.4041 126.039 96.0911 125.765 95.7357 125.67H95.7032Z" stroke="#263238" stroke-miterlimit="10"/>
<path d="M103.473 138.395H108.113" stroke="#263238" stroke-miterlimit="10"/>
<path d="M1.33911 138.395H101.539" stroke="#263238" stroke-miterlimit="10"/>
</svg>
