<svg width="113" height="131" viewBox="0 0 113 131" fill="none" xmlns="http://www.w3.org/2000/svg">
<path d="M11.9688 44.9063H21.3438C21.9654 44.9063 22.5615 44.6594 23.001 44.2198C23.4406 43.7803 23.6875 43.1841 23.6875 42.5625V37.1016C23.6931 35.643 23.245 34.2187 22.4051 33.0261C21.5652 31.8334 20.3752 30.9316 19 30.4454V26.2735L29.875 29.9063L26.1719 41.0391C26.0658 41.3593 26.0301 41.6987 26.0672 42.034C26.1044 42.3693 26.2134 42.6926 26.387 42.9819C26.5606 43.2712 26.7945 43.5196 27.0729 43.7101C27.3513 43.9007 27.6675 44.0289 28 44.086L56.125 48.7735H56.8984L85.0234 44.086C85.3559 44.0289 85.6721 43.9007 85.9505 43.7101C86.2289 43.5196 86.4629 43.2712 86.6364 42.9819C86.81 42.6926 86.9191 42.3693 86.9562 42.034C86.9933 41.6987 86.9576 41.3593 86.8516 41.0391L83.125 29.9063L101.875 23.6954C102.327 23.544 102.722 23.2587 103.007 22.8773C103.292 22.496 103.455 22.0367 103.473 21.5607C103.49 21.0847 103.363 20.6145 103.107 20.2129C102.851 19.8113 102.478 19.4972 102.039 19.3125L57.5078 0.562543C57.2186 0.440066 56.9078 0.376953 56.5938 0.376953C56.2797 0.376953 55.9689 0.440066 55.6797 0.562543L11.1484 19.3125C10.7093 19.4972 10.337 19.8113 10.0809 20.2129C9.82475 20.6145 9.69711 21.0847 9.71493 21.5607C9.73275 22.0367 9.89518 22.496 10.1806 22.8773C10.466 23.2587 10.8608 23.544 11.3125 23.6954L14.4062 24.7266V30.4454C13.031 30.9316 11.841 31.8334 11.0012 33.0261C10.1613 34.2187 9.71313 35.643 9.71875 37.1016V42.5625C9.71827 43.1682 9.95228 43.7506 10.3717 44.1875C10.7912 44.6245 11.3635 44.8821 11.9688 44.9063ZM56.5 44.086L31.4688 39.9141L35.0781 29.0625C36.6719 27.7735 43.3984 23.0391 56.5 23.0391C69.6016 23.0391 76.3281 27.7266 77.9219 29.0625L81.5312 39.9141L56.5 44.086ZM56.5 5.27348L94.375 21.2344L81.5312 25.5235C81.4078 25.5827 81.2901 25.6533 81.1797 25.7344C79.4219 24.1875 71.8047 18.375 56.5 18.375C41.1953 18.375 33.5781 24.1875 31.8203 25.7344C31.709 25.6614 31.5914 25.5987 31.4688 25.5469L18.625 21.2579L56.5 5.27348ZM14.3125 37.125C14.2837 36.8101 14.3245 36.4926 14.4321 36.1951C14.5397 35.8977 14.7114 35.6275 14.9351 35.4039C15.1587 35.1802 15.4289 35.0085 15.7263 34.9009C16.0238 34.7933 16.3413 34.7525 16.6562 34.7813C16.9712 34.7525 17.2887 34.7933 17.5862 34.9009C17.8836 35.0085 18.1538 35.1802 18.3774 35.4039C18.6011 35.6275 18.7728 35.8977 18.8804 36.1951C18.988 36.4926 19.0288 36.8101 19 37.125V40.2188H14.3125V37.125ZM105.555 61.1954V58.0547C105.552 57.2363 105.385 56.4267 105.065 55.6735C104.745 54.9203 104.278 54.2388 103.69 53.6689C103.103 53.0989 102.407 52.6522 101.645 52.3549C100.882 52.0576 100.068 51.9157 99.25 51.9375C84.5787 52.11 70.0729 55.0604 56.5 60.6329C42.9271 55.0604 28.4213 52.11 13.75 51.9375C12.9284 51.9047 12.1088 52.0418 11.3425 52.3403C10.5763 52.6387 9.87989 53.092 9.29687 53.6719C8.709 54.2401 8.24197 54.9212 7.9238 55.6744C7.60563 56.4275 7.44288 57.2372 7.44531 58.0547V61.1954C5.39227 61.7116 3.56998 62.8976 2.26678 64.5659C0.963574 66.2342 0.253885 68.2894 0.25 70.4063V120.703C0.25 123.233 1.25501 125.659 3.04393 127.448C4.83285 129.237 7.25915 130.242 9.78906 130.242H103.211C105.741 130.242 108.167 129.237 109.956 127.448C111.745 125.659 112.75 123.233 112.75 120.703V70.4063C112.746 68.2894 112.036 66.2342 110.733 64.5659C109.43 62.8976 107.608 61.7116 105.555 61.1954ZM99.3672 56.625C99.5621 56.6222 99.7557 56.6581 99.9367 56.7305C100.118 56.8029 100.283 56.9105 100.422 57.0469C100.563 57.179 100.675 57.3387 100.752 57.5162C100.829 57.6936 100.868 57.8849 100.867 58.0782V115.219C100.867 115.59 100.723 115.947 100.465 116.214C100.207 116.48 99.8554 116.636 99.4844 116.648C85.5963 116.855 71.8479 119.456 58.8438 124.336V64.7344C71.7472 59.5936 85.4791 56.8456 99.3672 56.625ZM12.1094 58.0547C12.1088 57.8615 12.148 57.6701 12.2246 57.4927C12.3012 57.3153 12.4136 57.1555 12.5547 57.0235C12.6904 56.8888 12.8513 56.7822 13.0283 56.7098C13.2052 56.6374 13.3947 56.6006 13.5859 56.6016C27.4913 56.824 41.2396 59.58 54.1562 64.7344V124.336C41.1461 119.445 27.3895 116.837 13.4922 116.625C13.1212 116.613 12.7695 116.457 12.5114 116.19C12.2534 115.923 12.1092 115.567 12.1094 115.195V58.0547ZM4.9375 120.703V70.4063C4.94023 69.5431 5.17432 68.6965 5.61538 67.9545C6.05644 67.2125 6.68835 66.6024 7.44531 66.1875V115.219C7.43875 116.809 8.05623 118.338 9.16505 119.477C10.2739 120.617 11.7855 121.276 13.375 121.313C23.3138 121.548 33.1887 122.972 42.7891 125.555H9.78906C8.50235 125.555 7.26833 125.044 6.35849 124.134C5.44865 123.224 4.9375 121.99 4.9375 120.703ZM108.062 120.703C108.062 121.99 107.551 123.224 106.642 124.134C105.732 125.044 104.498 125.555 103.211 125.555H70.1641C79.7795 122.968 89.6704 121.544 99.625 121.313C101.215 121.276 102.726 120.617 103.835 119.477C104.944 118.338 105.561 116.809 105.555 115.219V66.1875C106.312 66.6024 106.944 67.2125 107.385 67.9545C107.826 68.6965 108.06 69.5431 108.062 70.4063V120.703Z" fill="#10BAAC"/>
<path d="M18.6017 67.4053C20.9455 67.5694 23.2892 67.7803 25.633 68.0616H26.0314C26.653 68.0989 27.264 67.8877 27.7299 67.4746C28.1958 67.0614 28.4785 66.4801 28.5158 65.8585C28.5531 65.2369 28.3419 64.6259 27.9288 64.16C27.5156 63.6941 26.9343 63.4114 26.3127 63.3741C23.9689 63.0694 21.4142 62.8585 19.0002 62.6944C18.3786 62.654 17.7664 62.8622 17.2983 63.2731C16.8302 63.6841 16.5445 64.2642 16.5041 64.8858C16.4637 65.5074 16.6718 66.1196 17.0828 66.5877C17.4938 67.0558 18.0739 67.3415 18.6955 67.3819L18.6017 67.4053ZM16.422 72.3272C16.3834 72.9453 16.591 73.5535 16.9994 74.019C17.4079 74.4845 17.9839 74.7694 18.6017 74.8116C22.9686 75.0974 27.318 75.6059 31.633 76.335H32.0314C32.653 76.3879 33.2702 76.1916 33.747 75.7894C34.2239 75.3873 34.5215 74.8121 34.5744 74.1905C34.6272 73.5689 34.431 72.9518 34.0288 72.4749C33.6266 71.998 33.0515 71.7004 32.4299 71.6475C27.9816 70.9205 23.4992 70.4198 19.0002 70.1475C18.6866 70.1153 18.3698 70.1467 18.0687 70.2398C17.7676 70.3329 17.4884 70.4857 17.2477 70.6892C17.007 70.8927 16.8098 71.1427 16.668 71.4241C16.5261 71.7055 16.4425 72.0127 16.422 72.3272ZM16.422 84.9132C16.3834 85.5312 16.591 86.1394 16.9994 86.6049C17.4079 87.0704 17.9839 87.3554 18.6017 87.3975C28.1478 87.997 37.5889 89.7278 46.7267 92.5538C46.9598 92.5891 47.1968 92.5891 47.4299 92.5538C48.0515 92.647 48.6846 92.4895 49.1901 92.1159C49.6956 91.7423 50.0319 91.1832 50.1252 90.5616C50.2184 89.94 50.0609 89.3068 49.6873 88.8013C49.3137 88.2959 48.7546 87.9595 48.133 87.8663C38.6583 85.0129 28.8795 83.29 19.0002 82.7335C18.6866 82.7013 18.3698 82.7327 18.0687 82.8258C17.7676 82.9188 17.4884 83.0717 17.2477 83.2752C17.007 83.4787 16.8098 83.7286 16.668 84.01C16.5261 84.2915 16.4425 84.5986 16.422 84.9132ZM48.2033 96.8428C38.7155 93.905 28.9126 92.1033 19.0002 91.4757C18.6924 91.4556 18.3837 91.4965 18.0917 91.5958C17.7996 91.6951 17.53 91.8509 17.2983 92.0544C17.0665 92.2579 16.877 92.505 16.7408 92.7817C16.6045 93.0584 16.5241 93.3593 16.5041 93.6671C16.4841 93.9748 16.5249 94.2836 16.6242 94.5756C16.7235 94.8676 16.8793 95.1372 17.0828 95.369C17.2863 95.6007 17.5335 95.7902 17.8102 95.9264C18.0869 96.0627 18.3877 96.1431 18.6955 96.1632C28.2414 96.7632 37.6825 98.4941 46.8205 101.319C47.0535 101.355 47.2906 101.355 47.5236 101.319C48.1452 101.413 48.7784 101.255 49.2839 100.882C49.7893 100.508 50.1257 99.9488 50.2189 99.3272C50.3122 98.7056 50.1546 98.0724 49.781 97.567C49.4074 97.0615 48.8483 96.7251 48.2267 96.6319L48.2033 96.8428ZM48.2033 105.843C38.7107 102.944 28.9079 101.182 19.0002 100.593C18.6924 100.573 18.3837 100.614 18.0917 100.713C17.7996 100.812 17.53 100.968 17.2983 101.172C16.8302 101.583 16.5445 102.163 16.5041 102.784C16.4637 103.406 16.6718 104.018 17.0828 104.486C17.4938 104.954 18.0739 105.24 18.6955 105.28C28.2415 105.88 37.6826 107.611 46.8205 110.437C47.0535 110.472 47.2906 110.472 47.5236 110.437C48.1452 110.53 48.7784 110.372 49.2839 109.999C49.7893 109.625 50.1257 109.066 50.2189 108.444C50.3122 107.823 50.1546 107.19 49.781 106.684C49.4074 106.179 48.8483 105.842 48.2267 105.749L48.2033 105.843ZM65.4767 92.671C65.7098 92.7063 65.9468 92.7063 66.1799 92.671C75.3177 89.8448 84.7588 88.1139 94.3049 87.5147C94.6126 87.4947 94.9135 87.4143 95.1902 87.278C95.4669 87.1417 95.714 86.9523 95.9175 86.7205C96.121 86.4887 96.2768 86.2191 96.3762 85.9271C96.4755 85.6351 96.5163 85.3264 96.4963 85.0186C96.4762 84.7108 96.3958 84.41 96.2595 84.1333C96.1233 83.8566 95.9339 83.6094 95.7021 83.406C95.4703 83.2025 95.2007 83.0466 94.9087 82.9473C94.6167 82.848 94.3079 82.8072 94.0002 82.8272C84.0561 83.4466 74.2212 85.2484 64.7033 88.1944C64.0817 88.2876 63.5226 88.624 63.149 89.1295C62.7754 89.6349 62.6179 90.2681 62.7111 90.8897C62.8043 91.5113 63.1407 92.0704 63.6462 92.444C64.1516 92.8176 64.7848 92.9751 65.4064 92.8819L65.4767 92.671ZM65.4767 101.413C65.7098 101.449 65.9468 101.449 66.1799 101.413C75.3178 98.5876 84.7589 96.8568 94.3049 96.2569C94.9227 96.2148 95.4987 95.9298 95.9071 95.4643C96.3155 94.9988 96.5231 94.3906 96.4845 93.7725C96.4788 93.4565 96.4092 93.1449 96.2799 92.8565C96.1506 92.5681 95.9643 92.3088 95.7322 92.0942C95.5002 91.8796 95.2271 91.7142 94.9294 91.6079C94.6318 91.5016 94.3157 91.4566 94.0002 91.4757C84.0561 92.0957 74.2213 93.8975 64.7033 96.8428C64.0817 96.9361 63.5226 97.2724 63.149 97.7779C62.7754 98.2834 62.6179 98.9166 62.7111 99.5382C62.8043 100.16 63.1407 100.719 63.6462 101.092C64.1516 101.466 64.7848 101.624 65.4064 101.53L65.4767 101.413ZM65.4767 110.53C65.7098 110.566 65.9468 110.566 66.1799 110.53C75.3177 107.704 84.7588 105.973 94.3049 105.374C94.9265 105.334 95.5065 105.048 95.9175 104.58C96.3285 104.112 96.5367 103.5 96.4963 102.878C96.4558 102.256 96.1702 101.676 95.7021 101.265C95.234 100.854 94.6218 100.646 94.0002 100.687C84.0883 101.243 74.2775 102.974 64.7736 105.843C64.152 105.936 63.5929 106.272 63.2193 106.778C62.8457 107.283 62.6882 107.917 62.7814 108.538C62.8747 109.16 63.211 109.719 63.7165 110.092C64.222 110.466 64.8551 110.624 65.4767 110.53Z" fill="#10BAAC"/>
</svg>
