<svg width="44" height="44" viewBox="0 0 44 44" fill="none" xmlns="http://www.w3.org/2000/svg">
<rect width="44" height="44" rx="22" fill="#3878EB"/>
<path d="M21.2049 28.0455C21.3094 28.1499 21.4334 28.2328 21.5699 28.2894C21.7064 28.3459 21.8527 28.375 22.0004 28.375C22.1482 28.375 22.2945 28.3459 22.431 28.2894C22.5675 28.2328 22.6915 28.1499 22.796 28.0455L27.0386 23.8029C27.2495 23.5919 27.3681 23.3057 27.3681 23.0074C27.3681 22.709 27.2495 22.4229 27.0386 22.2119C26.8276 22.0009 26.5414 21.8824 26.2431 21.8824C25.9447 21.8824 25.6586 22.0009 25.4476 22.2119L23.1254 24.534V12.25C23.1254 11.9516 23.0069 11.6655 22.7959 11.4545C22.585 11.2435 22.2988 11.125 22.0004 11.125C21.7021 11.125 21.4159 11.2435 21.2049 11.4545C20.994 11.6655 20.8754 11.9516 20.8754 12.25V24.534L18.5533 22.2119C18.3423 22.0009 18.0562 21.8824 17.7578 21.8824C17.4594 21.8824 17.1733 22.0009 16.9623 22.2119C16.7513 22.4229 16.6328 22.709 16.6328 23.0074C16.6328 23.3057 16.7513 23.5919 16.9623 23.8029L21.2049 28.0455Z" fill="white"/>
<path d="M31.75 20.875C31.4516 20.875 31.1655 20.9935 30.9545 21.2045C30.7435 21.4155 30.625 21.7016 30.625 22V30.625H13.375V22C13.375 21.7016 13.2565 21.4155 13.0455 21.2045C12.8345 20.9935 12.5484 20.875 12.25 20.875C11.9516 20.875 11.6655 20.9935 11.4545 21.2045C11.2435 21.4155 11.125 21.7016 11.125 22V31C11.125 31.4973 11.3225 31.9742 11.6742 32.3258C12.0258 32.6775 12.5027 32.875 13 32.875H31C31.4973 32.875 31.9742 32.6775 32.3258 32.3258C32.6775 31.9742 32.875 31.4973 32.875 31V22C32.875 21.7016 32.7565 21.4155 32.5455 21.2045C32.3345 20.9935 32.0484 20.875 31.75 20.875Z" fill="white"/>
</svg>
