<svg width="36" height="36" viewBox="0 0 36 36" fill="none" xmlns="http://www.w3.org/2000/svg">
<rect width="36" height="36" rx="18" fill="#218C75" fill-opacity="0.1"/>
<path d="M15.9173 18.7302L13.134 15.251C12.9607 15.0344 12.8741 14.9261 12.8125 14.8055C12.7578 14.6986 12.7179 14.5847 12.6937 14.467C12.6665 14.3343 12.6665 14.1957 12.6665 13.9183V13.4666C12.6665 12.7199 12.6665 12.3465 12.8118 12.0613C12.9397 11.8104 13.1436 11.6065 13.3945 11.4786C13.6797 11.3333 14.0531 11.3333 14.7998 11.3333H21.1998C21.9466 11.3333 22.3199 11.3333 22.6052 11.4786C22.856 11.6065 23.06 11.8104 23.1878 12.0613C23.3332 12.3465 23.3332 12.7199 23.3332 13.4666V13.9183C23.3332 14.1957 23.3332 14.3343 23.3059 14.467C23.2818 14.5847 23.2418 14.6986 23.1872 14.8055C23.1256 14.9261 23.039 15.0344 22.8657 15.251L20.0823 18.7302M13.3332 12L17.9999 18L22.6665 12M20.3569 18.9763C21.6586 20.278 21.6586 22.3886 20.3569 23.6903C19.0551 24.9921 16.9446 24.9921 15.6428 23.6903C14.3411 22.3886 14.3411 20.278 15.6428 18.9763C16.9446 17.6745 19.0551 17.6745 20.3569 18.9763Z" stroke="#218C75" stroke-width="1.5" stroke-linecap="round" stroke-linejoin="round"/>
</svg>
