<svg width="19" height="19" viewBox="0 0 19 19" fill="none" xmlns="http://www.w3.org/2000/svg">
<path d="M1.65618 7.0078L1.65656 7.00775L4.32953 6.6006C5.81034 6.37504 7.08185 5.42744 7.72128 4.07289L8.94778 1.47468C9.15058 1.04552 9.71646 1.04417 9.92124 1.47502C9.9213 1.47515 9.92136 1.47528 9.92142 1.4754L11.1476 4.07289C11.787 5.42744 13.0585 6.37504 14.5393 6.6006L17.2123 7.00775L17.2127 7.0078C17.6364 7.07201 17.8666 7.66593 17.5099 8.02878L17.5098 8.02893L15.4754 10.1002C14.4694 11.1244 14.0124 12.5672 14.2454 13.9837L14.7336 16.9521C14.8206 17.4835 14.3049 17.7797 13.9501 17.5847L13.95 17.5847L11.6006 16.2944C10.2515 15.5535 8.61736 15.5535 7.26829 16.2944L4.91883 17.5847L4.91724 17.5855C4.56593 17.7801 4.04772 17.4868 4.13529 16.9521L4.62345 13.9837C4.85642 12.5672 4.39949 11.1244 3.3935 10.1002L1.35905 8.02893L1.35891 8.02878C1.00223 7.66593 1.23248 7.07201 1.65618 7.0078Z" stroke="#949DA6"/>
</svg>
