<svg width="22" height="22" viewBox="0 0 22 22" fill="none" xmlns="http://www.w3.org/2000/svg">
<path fill-rule="evenodd" clip-rule="evenodd" d="M11 0C4.95 0 0 4.95 0 11C0 17.05 4.95 22 11 22C17.05 22 22 17.05 22 11C22 4.95 17.05 0 11 0ZM11 19.91C6.105 19.91 2.09 15.95 2.09 11C2.09 6.105 6.05 2.09 11 2.09C15.95 2.09 19.91 6.105 19.91 11C19.91 15.895 15.895 19.91 11 19.91ZM14.85 9.9H12.1V7.15C12.1 6.545 11.605 6.05 11 6.05C10.395 6.05 9.9 6.545 9.9 7.15V9.9H7.15C6.545 9.9 6.05 10.395 6.05 11C6.05 11.605 6.545 12.1 7.15 12.1H9.9V14.85C9.9 15.455 10.395 15.95 11 15.95C11.605 15.95 12.1 15.455 12.1 14.85V12.1H14.85C15.455 12.1 15.95 11.605 15.95 11C15.95 10.395 15.455 9.9 14.85 9.9Z" fill="#303030"/>
</svg>
