<svg width="16" height="16" viewBox="0 0 16 16" fill="none" xmlns="http://www.w3.org/2000/svg">
<path d="M11.2437 1.20703C10.0203 1.20703 8.87397 1.66462 7.99998 2.48333C7.12598 1.66462 5.97968 1.20703 4.7563 1.20703C2.13368 1.20703 0 3.34076 0 5.96342C0 7.25525 0.425164 8.52704 1.26366 9.74337C1.91197 10.6838 2.80887 11.5929 3.92937 12.4452C5.809 13.8751 7.66475 14.654 7.74285 14.6865L7.99806 14.7926L8.25384 14.6879C8.33199 14.6559 10.1889 13.888 12.0696 12.4633C13.1907 11.6139 14.0881 10.7052 14.7367 9.76226C15.575 8.54361 16 7.26553 16 5.96346C16 3.34076 13.8663 1.20703 11.2437 1.20703ZM8.00141 13.335C6.74962 12.7553 1.33966 10.014 1.33966 5.96342C1.33966 4.07945 2.87237 2.54674 4.75634 2.54674C5.827 2.54674 6.81558 3.03478 7.46862 3.88573L8.00002 4.5782L8.53142 3.88573C9.18446 3.03478 10.173 2.54674 11.2437 2.54674C13.1276 2.54674 14.6604 4.07945 14.6604 5.96342C14.6603 10.0431 9.25265 12.761 8.00141 13.335Z" fill="white"/>
</svg>
