<svg width="20" height="20" viewBox="0 0 20 20" fill="none" xmlns="http://www.w3.org/2000/svg">
<path fill-rule="evenodd" clip-rule="evenodd" d="M4.8778 4.75527L4.28854 4.16602L2.9165 5.53814L2.3778 4.99935L1.78854 5.5886L2.9165 6.71657L4.8778 4.75527ZM1.6665 15.294C1.6665 14.6106 2.22484 14.044 2.9165 14.044C3.60817 14.044 4.1665 14.6106 4.1665 15.294C4.1665 15.9773 3.59984 16.544 2.9165 16.544C2.23317 16.544 1.6665 15.9773 1.6665 15.294ZM4.28854 9.16602L4.8778 9.75527L2.9165 11.7166L1.78854 10.5886L2.3778 9.99935L2.9165 10.5381L4.28854 9.16602ZM17.9165 16.1273H6.24984V14.4606H17.9165V16.1273ZM6.24984 11.1273H17.9165V9.46064H6.24984V11.1273ZM6.24984 6.12731V4.46064H17.9165V6.12731H6.24984Z" fill="#898989"/>
</svg>
