<svg width="20" height="20" viewBox="0 0 20 20" fill="none" xmlns="http://www.w3.org/2000/svg">
<path fill-rule="evenodd" clip-rule="evenodd" d="M13.0002 9.82435C13.8085 9.26602 14.3752 8.34935 14.3752 7.49935C14.3752 5.61602 12.9168 4.16602 11.0418 4.16602H5.8335V15.8327H11.7002C13.4418 15.8327 14.7918 14.416 14.7918 12.6743C14.7918 11.4077 14.0752 10.3243 13.0002 9.82435ZM8.3335 6.24935H10.8335C11.5252 6.24935 12.0835 6.80768 12.0835 7.49935C12.0835 8.19102 11.5252 8.74935 10.8335 8.74935H8.3335V6.24935ZM11.2502 13.7493H8.3335V11.2493H11.2502C11.9418 11.2493 12.5002 11.8077 12.5002 12.4993C12.5002 13.191 11.9418 13.7493 11.2502 13.7493Z" fill="#898989"/>
</svg>
