<svg width="20" height="20" viewBox="0 0 20 20" fill="none" xmlns="http://www.w3.org/2000/svg">
<path fill-rule="evenodd" clip-rule="evenodd" d="M3.24984 10.0007C3.24984 8.57565 4.40817 7.41732 5.83317 7.41732H9.1665V5.83398H5.83317C3.53317 5.83398 1.6665 7.70065 1.6665 10.0007C1.6665 12.3007 3.53317 14.1673 5.83317 14.1673H9.1665V12.584H5.83317C4.40817 12.584 3.24984 11.4257 3.24984 10.0007ZM6.6665 10.834H13.3332V9.16732H6.6665V10.834ZM14.1665 5.83398H10.8332V7.41732H14.1665C15.5915 7.41732 16.7498 8.57565 16.7498 10.0007C16.7498 11.4257 15.5915 12.584 14.1665 12.584H10.8332V14.1673H14.1665C16.4665 14.1673 18.3332 12.3007 18.3332 10.0007C18.3332 7.70065 16.4665 5.83398 14.1665 5.83398Z" fill="#898989"/>
</svg>
