<svg width="20" height="20" viewBox="0 0 20 20" fill="none" xmlns="http://www.w3.org/2000/svg">
<path fill-rule="evenodd" clip-rule="evenodd" d="M5.70833 6.73398C5.70833 4.47565 7.875 3.33398 10.2 3.33398C11.5667 3.33398 12.7 3.74232 13.45 4.40065C14.0917 4.94232 14.6667 5.84232 14.6667 7.10065H12.1583C12.1583 6.84232 12.1167 6.60898 12.0333 6.39232C11.7917 5.67565 11.0333 5.32565 10.1583 5.32565C8.60833 5.32565 8.20833 6.17565 8.20833 6.74232C8.20833 7.14232 8.41667 7.47565 8.825 7.75065C9.14167 7.95898 9.46667 8.15065 10 8.33398H6.15833C5.98333 8.05065 5.70833 7.59232 5.70833 6.73398ZM17.5 10.834V9.16732H2.5V10.834H10.5167C11.475 11.209 12.15 11.459 12.15 12.4757C12.15 13.309 11.475 13.8673 10.25 13.8673C8.96667 13.8673 7.80833 13.4173 7.80833 11.7757H5.33333C5.33333 12.234 5.4 12.7173 5.53333 13.0923C6.20833 15.0007 8.275 15.8423 10.2583 15.8423C12.15 15.8423 14.675 15.1007 14.675 12.4673C14.675 12.2173 14.6667 11.5007 14.275 10.8507H17.5V10.834Z" fill="#898989"/>
</svg>
