<svg width="21" height="21" viewBox="0 0 21 21" fill="none" xmlns="http://www.w3.org/2000/svg">
<path fill-rule="evenodd" clip-rule="evenodd" d="M12.1125 1.86299C11.1812 1.07692 9.8188 1.07692 8.88749 1.86299L8.03932 2.57888C7.64349 2.91298 7.15365 3.11589 6.6375 3.15954L5.53155 3.25307C4.31717 3.35577 3.35381 4.31913 3.25111 5.5335L3.15759 6.63945C3.11394 7.1556 2.91102 7.64544 2.57692 8.04129L1.86104 8.88944C1.07497 9.82075 1.07497 11.1832 1.86104 12.1145L2.57692 12.9626C2.91102 13.3585 3.11394 13.8483 3.15759 14.3645L3.25111 15.4705C3.35381 16.6848 4.31717 17.6482 5.53155 17.7508L6.6375 17.8443C7.15365 17.8881 7.64349 18.091 8.03934 18.4251L8.88749 19.141C9.8188 19.927 11.1812 19.927 12.1125 19.141L12.9607 18.4251C13.3565 18.091 13.8464 17.8881 14.3625 17.8443L15.4685 17.7508C16.6829 17.6482 17.6462 16.6848 17.7489 15.4705L17.8424 14.3645C17.8861 13.8483 18.089 13.3585 18.4231 12.9626L19.139 12.1145C19.925 11.1832 19.925 9.82075 19.139 8.88944L18.4231 8.04128C18.089 7.64544 17.8861 7.1556 17.8424 6.63945L17.7489 5.5335C17.6462 4.31913 16.6829 3.35577 15.4685 3.25307L14.3625 3.15954C13.8464 3.11589 13.3565 2.91298 12.9607 2.57888L12.1125 1.86299ZM15.046 8.7975C15.4854 8.35817 15.4854 7.64585 15.046 7.20652C14.6067 6.76717 13.8944 6.76717 13.455 7.20652L9.25054 11.411L7.54604 9.70652C7.1067 9.26717 6.39439 9.26717 5.95505 9.70652C5.5157 10.1459 5.5157 10.8582 5.95505 11.2975L8.45505 13.7975C8.89439 14.2368 9.6067 14.2368 10.046 13.7975L15.046 8.7975Z" fill="#10BAAC"/>
</svg>
