<svg width="55" height="74" viewBox="0 0 55 74" fill="none" xmlns="http://www.w3.org/2000/svg">
<g clip-path="url(#clip0_3190_30052)">
<path fill-rule="evenodd" clip-rule="evenodd" d="M29.8198 69.0768L27.5635 73.1899L25.3123 69.0869C26.0441 69.1678 26.7759 69.2233 27.5026 69.2233C28.2648 69.2233 29.0474 69.1677 29.8198 69.0768ZM36.1314 57.5915L30.8769 67.1567C30.6888 67.1921 30.4906 67.2224 30.3026 67.2476C29.3676 67.3841 28.4173 67.47 27.4975 67.47C26.5777 67.47 25.6223 67.3841 24.6873 67.2476C24.545 67.2274 24.4027 67.1971 24.2553 67.1769L19.0058 57.6168C19.2955 57.6521 19.5902 57.6723 19.9206 57.6723C22.1769 57.6723 23.3762 56.7426 24.5653 55.8078C25.3733 55.1863 26.1813 54.5547 27.4873 54.5547C28.7933 54.5547 29.5963 55.1863 30.4093 55.8078C31.5985 56.7426 32.7978 57.6723 35.0541 57.6723C35.4454 57.6723 35.796 57.6471 36.1314 57.5915Z" fill="#FFC78B"/>
<path fill-rule="evenodd" clip-rule="evenodd" d="M27.5025 22.9102H27.4873C21.3688 22.9152 15.8094 25.4063 11.7795 29.4133C7.76493 33.4101 5.26978 38.9229 5.25962 44.9965V45.0319V45.047C5.2647 51.1257 7.77002 56.6587 11.7999 60.6656C14.3153 63.1618 17.4305 65.0667 20.9064 66.148L17.7455 60.2462C16.6326 59.5388 15.601 58.7202 14.6711 57.7956C11.3832 54.5314 9.34028 50.0141 9.3352 45.047V45.0319V44.9965C9.34028 40.0345 11.3882 35.5273 14.666 32.2631C17.9488 28.9939 22.4868 26.9626 27.4873 26.9626H27.5025H27.5381C32.5182 26.9677 37.0461 28.9989 40.3289 32.2631H40.3391C43.627 35.5273 45.6648 40.0446 45.6698 45.0167V45.0319V45.0672C45.6597 50.0242 43.627 54.5263 40.3391 57.7956C39.4904 58.6394 38.5554 59.3923 37.5543 60.0593L34.3426 66.0672C37.722 64.9758 40.7659 63.0961 43.2255 60.6505C47.2452 56.6536 49.7403 51.1358 49.7454 45.0723V45.0369V45.0218C49.7403 38.938 47.2401 33.4101 43.2103 29.4032L43.2153 29.3981C39.1957 25.4013 33.6413 22.9253 27.5381 22.9152" fill="#FFC78B"/>
<path fill-rule="evenodd" clip-rule="evenodd" d="M37.9608 23.5411C30.9836 19.9485 24.0215 20.1607 17.0341 23.5411C17.0341 20.1758 17.0341 16.9824 17.0341 13.607C22.0701 7.66985 33.3466 7.94776 37.9608 13.607C37.9608 16.4114 37.9608 20.7317 37.9608 23.5411ZM44.3384 16.2901V14.8096V7.55869V6.4622C44.3384 6.12366 44.0844 5.83564 43.7439 5.79522L38.6418 5.15349L27.5025 0.449219L0 12.0608L15.2097 15.9819V13.3493L15.4181 12.7834C15.9212 12.1872 16.5005 11.6313 17.1205 11.1311C20.012 8.80676 23.8945 7.69512 27.716 7.73049C31.5425 7.77091 35.3437 8.96845 38.0574 11.2423C38.6164 11.7122 39.1347 12.2377 39.6022 12.8036L39.8004 13.3493V15.9819L42.9918 15.1583V16.2901C42.6818 16.5074 42.4734 16.8611 42.4734 17.2704C42.4734 17.71 42.7174 18.089 43.068 18.2962C42.8851 18.3871 42.7072 18.5134 42.5497 18.6852L42.138 22.5507C42.5497 22.8842 43.0832 23.0863 43.6626 23.0863C44.2419 23.0863 44.7704 22.8842 45.1973 22.5507L44.7856 18.6852C44.6281 18.5134 44.4502 18.3821 44.2673 18.2962C44.623 18.089 44.8568 17.71 44.8568 17.2704C44.8619 16.8611 44.6535 16.5024 44.3384 16.2901ZM55 12.0608L45.6953 8.12967V14.4559L55 12.0608Z" fill="#FFC78B"/>
<path fill-rule="evenodd" clip-rule="evenodd" d="M18.2994 52.3276V25.0469H24.4433V51.3221C24.0317 51.5596 23.6556 51.8274 23.2796 52.1003C22.5478 52.6258 21.816 53.1563 20.632 53.1563C19.6156 53.1563 18.9397 52.7672 18.2994 52.3276ZM30.5516 52.6813V26.4061H36.6954V53.6869C36.0602 54.1265 35.3793 54.5206 34.3578 54.5206C33.1789 54.5206 32.4471 53.9901 31.7153 53.4595C31.3392 53.1917 30.9683 52.9188 30.5516 52.6813Z" fill="#FFC78B"/>
</g>
<defs>
<clipPath id="clip0_3190_30052">
<rect width="55" height="72.7419" fill="white" transform="matrix(-1 0 0 1 55 0.449219)"/>
</clipPath>
</defs>
</svg>
