<svg width="501" height="501" viewBox="0 0 501 501" fill="none" xmlns="http://www.w3.org/2000/svg">
<path d="M84.577 329.321C158.926 290.195 280.575 290.195 354.918 329.321C429.267 368.443 429.267 432.466 354.918 471.592C280.575 510.714 158.926 510.714 84.577 471.592C10.2333 432.462 10.2333 368.443 84.577 329.321Z" fill="url(#paint0_radial_4059_124173)"/>
<path d="M366.147 352.588H349.572C342.776 345.678 333.898 339.189 322.914 333.412C265.271 303.076 170.945 303.076 113.297 333.412C102.318 339.189 93.4445 345.678 86.6439 352.588H70.0691V388.284H70.0835C69.9486 408.369 84.345 428.482 113.302 443.722C170.95 474.062 265.276 474.062 322.919 443.722C351.881 428.482 366.277 408.369 366.142 388.284H366.156V352.588H366.147Z" fill="url(#paint1_linear_4059_124173)"/>
<path d="M113.302 297.431C170.95 267.096 265.276 267.096 322.919 297.431C380.567 327.767 380.567 377.41 322.919 407.746C265.276 438.081 170.95 438.081 113.302 407.746C55.6583 377.41 55.6583 327.767 113.302 297.431Z" fill="white"/>
<path d="M366.118 353.305C366.127 352.826 366.127 352.347 366.118 351.868V322.319H354.623C347.422 313.256 336.872 304.773 322.914 297.427C282.189 275.993 309.535 357.839 322.914 407.742V443.709C351.148 428.851 365.52 409.363 366.094 389.782L366.118 353.305Z" fill="#FFDA6A"/>
<path d="M322.921 236.904C265.277 206.568 170.951 206.568 113.302 236.904L218.112 302.148L322.921 236.904Z" fill="url(#paint2_linear_4059_124173)"/>
<path d="M113.302 236.906V297.432L218.111 362.681V302.146L113.302 236.906Z" fill="url(#paint3_linear_4059_124173)"/>
<path d="M218.097 302.146L322.905 236.906V297.432L218.097 362.681V302.146Z" fill="url(#paint4_linear_4059_124173)"/>
<path d="M322.907 267.164C380.555 297.499 380.555 347.143 322.907 377.474L218.097 332.404L322.907 267.164Z" fill="url(#paint5_linear_4059_124173)"/>
<path d="M218.097 332.406V362.676L322.905 407.742V377.477L218.097 332.406Z" fill="#FFCD39"/>
<path d="M330.753 349.089C339.547 349.089 346.677 342.591 346.677 334.574C346.677 326.557 339.547 320.059 330.753 320.059C321.958 320.059 314.829 326.557 314.829 334.574C314.829 342.591 321.958 349.089 330.753 349.089Z" fill="url(#paint6_linear_4059_124173)"/>
<path d="M370.841 396.82V401.38C370.841 402.633 371.549 403.801 372.72 404.456L387.936 413.027C389.512 413.914 391.502 413.919 393.083 413.045L397.744 410.642C398.669 410.163 399.243 409.266 399.238 408.3L399.228 405.677C399.228 405.677 398.597 405.879 397.652 405.356L387.521 399.764V396.82H370.841Z" fill="#A5CBEF"/>
<path d="M370.841 394.281V398.846C370.841 400.098 371.549 401.262 372.72 401.917L387.936 410.488C389.512 411.375 391.502 411.384 393.083 410.506L397.647 407.979C399.773 406.802 399.768 403.995 397.647 402.822L387.516 397.229V394.281H370.841Z" fill="#3C5185"/>
<path d="M381.096 403.037V402.119L386.952 399.039L386.962 399.874L381.096 403.037Z" fill="#3C5185"/>
<path d="M383.292 404.822V403.943L389.152 400.863L389.186 401.645L383.292 404.822Z" fill="#3C5185"/>
<path d="M386.221 406.7V405.822L392.082 402.742L392.048 403.616L386.221 406.7Z" fill="#3C5185"/>
<path d="M373.262 397.389C370.013 395.675 370.013 392.881 373.262 391.172C376.51 389.463 381.821 389.463 385.07 391.172C388.318 392.881 388.318 395.675 385.07 397.389C381.826 399.098 376.51 399.098 373.262 397.389Z" fill="#3C5185"/>
<path d="M375.284 396.33C373.144 395.201 373.144 393.355 375.284 392.226C377.424 391.102 380.933 391.102 383.073 392.226C385.218 393.355 385.218 395.201 383.073 396.33C380.933 397.459 377.429 397.459 375.284 396.33Z" fill="#363650"/>
<path d="M355.291 405.266V409.826C355.291 411.078 356 412.242 357.171 412.901L372.387 421.472C373.963 422.36 375.953 422.364 377.539 421.49L382.194 419.087C383.12 418.608 383.693 417.712 383.688 416.745L383.679 414.122C383.679 414.122 383.047 414.329 382.098 413.802L371.972 408.209V405.266H355.291Z" fill="#A5CBEF"/>
<path d="M355.291 402.719V407.283C355.291 408.535 356 409.7 357.171 410.354L372.387 418.925C373.963 419.813 375.953 419.822 377.539 418.943L382.098 416.417C384.219 415.244 384.219 412.432 382.093 411.259L371.967 405.667V402.719H355.291Z" fill="#3C5185"/>
<path d="M365.552 411.474V410.556L371.408 407.477L371.418 408.311L365.552 411.474Z" fill="#3C5185"/>
<path d="M367.77 413.259V412.38L373.626 409.301L373.655 410.083L367.77 413.259Z" fill="#3C5185"/>
<path d="M370.685 415.138V414.259L376.541 411.18L376.507 412.054L370.685 415.138Z" fill="#3C5185"/>
<path d="M357.728 405.83C354.479 404.117 354.479 401.323 357.728 399.614C360.976 397.905 366.287 397.905 369.536 399.614C372.784 401.323 372.784 404.117 369.536 405.83C366.287 407.539 360.971 407.539 357.728 405.83Z" fill="#3C5185"/>
<path d="M359.727 404.77C357.588 403.641 357.588 401.796 359.727 400.671C361.867 399.542 365.376 399.542 367.516 400.671C369.661 401.796 369.661 403.641 367.516 404.77C365.376 405.899 361.867 405.899 359.727 404.77Z" fill="#363650"/>
<path d="M379.05 397.423C375.33 397.423 372.312 397.731 372.312 394.335V361.812C372.312 356.232 369.016 351.039 363.714 348.254L338.324 335.993C333.129 333.269 331.924 328.181 331.924 322.716V321.376C331.924 317.985 334.941 315.234 338.667 315.234C342.387 315.234 345.404 317.985 345.404 321.376V322.716C345.404 323.797 346.045 324.807 347.072 325.348L370.438 337.609C379.913 342.578 385.798 351.852 385.798 361.816V394.339C385.798 397.731 382.781 397.423 379.05 397.423Z" fill="url(#paint7_linear_4059_124173)"/>
<path d="M363.624 405.474C359.904 405.474 356.805 405.724 356.805 402.328V369.805C356.805 364.221 353.508 359.028 348.206 356.243L322.142 345.211C316.951 342.483 316.416 336.166 316.416 330.7V329.365C316.416 325.973 319.433 323.219 323.154 323.219C326.875 323.219 329.897 325.973 329.897 329.365V330.7C329.897 331.781 330.533 332.792 331.564 333.332L354.93 345.594C364.4 350.562 370.285 356.783 370.285 366.743V402.328C370.285 405.72 367.35 405.474 363.624 405.474Z" fill="url(#paint8_linear_4059_124173)"/>
<path d="M342.961 353.451L324.839 345.899C323.109 345.033 323.08 342.771 324.786 341.87L352.393 327.324L372.775 338.364L342.961 353.451Z" fill="#F6F8FB"/>
<path d="M345.445 351.989L329.642 345.571C328.143 344.824 328.124 342.873 329.598 342.096L354.848 328.793L372.425 338.318L345.445 351.989Z" fill="#E5E9F4"/>
<path d="M353.863 337.622C351.632 337.622 349.819 335.971 349.819 333.932V319.575C349.819 311.056 348.528 306.971 345.988 298.768L341.269 283.55C340.662 281.595 341.915 279.557 344.065 279.003C346.205 278.45 348.446 279.588 349.053 281.547L353.771 296.765C356.514 305.622 357.907 310.38 357.907 319.575V333.932C357.912 335.975 356.099 337.622 353.863 337.622Z" fill="#EDF3FA"/>
<path d="M332.286 270.929L328.96 272.677C317.923 278.485 313.354 282.026 311.749 293.554C309.908 306.787 313.73 341.397 313.73 341.397C330.396 340.54 346.373 321.697 346.373 321.697C343.433 304.612 349.419 295.962 349.54 284.491C349.607 278.428 340.267 266.729 332.286 270.929Z" fill="#EDF3FA"/>
<path opacity="0.15" d="M349.542 284.491C349.609 278.428 340.264 266.729 332.288 270.929L328.962 272.677C325.497 274.501 322.393 276.754 319.704 279.342C322.166 277.128 324.938 275.168 327.998 273.561L331.324 271.812C339.3 267.612 348.645 279.311 348.578 285.378C348.458 296.827 342.481 305.473 345.402 322.532C346.014 322.023 346.375 321.702 346.375 321.702C343.435 304.612 349.421 295.957 349.542 284.491Z" fill="white"/>
<path d="M330.767 281.017C328.646 281.017 326.926 279.448 326.926 277.511V269.555H334.613V277.511C334.613 279.444 332.888 281.017 330.767 281.017Z" fill="#F2B1B5"/>
<path d="M326.925 272.93L324.814 273.949L328.038 290.428L332.347 280.697L326.925 272.93Z" fill="white"/>
<path d="M332.338 280.696L334.604 270.258H335.587L339.934 284.092L332.338 280.696Z" fill="white"/>
<path d="M339.157 348.575C337.952 348.575 336.762 348.087 335.962 347.152L323.869 332.97C317.286 325.247 313.941 315.617 314.456 305.851L315.42 292.003C315.526 289.969 317.43 288.392 319.657 288.497C321.888 288.594 323.609 290.325 323.503 292.359L322.539 306.202C322.115 314.211 324.857 322.11 330.26 328.445L342.352 342.626C343.726 344.234 343.408 346.554 341.644 347.802C340.902 348.32 340.029 348.575 339.157 348.575Z" fill="#F2B1B5"/>
<path d="M342.233 341.15L329.717 336.875C329.158 336.682 328.873 336.115 329.085 335.606L329.437 334.745C329.649 334.239 330.271 333.976 330.83 334.169L343.341 338.439C343.901 338.633 344.19 339.199 343.978 339.709L343.626 340.57C343.419 341.084 342.792 341.339 342.233 341.15Z" fill="#F2B1B5"/>
<path d="M376.633 317.09L376.224 316.985C375.843 316.888 375.433 316.928 375.091 317.108L345.166 332.721C344.462 333.091 343.884 334 343.879 334.738L341.175 353.431C341.175 353.607 341.272 353.774 341.431 353.875L341.884 354.161L372.652 337.888C373.356 337.519 373.934 336.614 373.934 335.876L376.633 317.09Z" fill="url(#paint9_linear_4059_124173)"/>
<path d="M377.01 317.838C377.01 317.1 376.437 316.801 375.733 317.17L345.538 333.06C344.835 333.429 344.256 334.334 344.251 335.072L341.418 353.366C341.413 354.104 341.986 354.407 342.69 354.038L373.024 338.218C373.728 337.849 374.307 336.948 374.307 336.21L377.01 317.838Z" fill="#F6F8FB"/>
<path d="M361.85 334.088C360.611 334.479 359.252 335.894 358.828 337.233C358.403 338.569 359.073 339.338 360.312 338.942C361.551 338.547 362.91 337.132 363.334 335.801C363.763 334.466 363.093 333.692 361.85 334.088Z" fill="#E5E9F4"/>
<path opacity="0.33" d="M328.022 319.12C325.4 314.801 323.029 309.837 323.217 306.23C323.217 306.23 322.778 292.29 320.175 292.18C317.611 292.075 316.228 289.597 316.098 291.969L315.139 305.817C314.618 315.667 317.963 325.376 324.556 333.183L327.202 337.409C330.759 335.928 333.916 332.607 336.817 330.815C333.969 327.537 330.243 322.784 328.022 319.12Z" fill="#3C5185"/>
<path d="M334.968 333.335L331.03 328.379C331.03 328.379 322.793 314.097 323.208 306.233L324.172 292.39C324.297 290.018 322.287 288.001 319.685 287.887C317.121 287.786 314.87 289.605 314.745 291.977L313.781 305.824C313.265 315.674 316.605 325.383 323.203 333.19L328.572 338.879L334.968 333.335Z" fill="#EDF3FA"/>
<path d="M328.368 271.111L327.442 270.939C324.936 270.482 322.917 262.553 323.413 260.272L325.972 248.582L347.121 252.431L343.366 268.752C341.805 275.851 336.151 272.53 328.368 271.111Z" fill="#F2B1B5"/>
<path d="M347.816 251.74C347.425 250.145 346.312 248.731 344.924 247.615C340.76 244.254 330.865 240.704 326.561 245.756C325.405 244.386 322.937 244.518 321.453 245.594C319.963 246.67 319.245 248.384 318.686 250.036C318.016 251.991 317.423 253.844 317.963 255.887C318.903 259.468 320.686 262.829 322.677 266.04C323.125 266.769 324.344 268.606 324.985 267.406C326.18 265.157 322.484 262.108 324.807 260.245C325.737 259.499 327.318 259.569 328.166 260.395C328.884 261.098 329.067 262.178 329.872 262.794C330.46 263.242 331.342 263.338 332.032 263.035C332.133 262.991 332.239 262.934 332.292 262.837C332.355 262.719 332.311 262.574 332.268 262.451C331.636 260.584 331.4 258.611 331.583 256.665C331.632 256.107 331.752 255.492 332.244 255.154C332.509 254.969 332.841 254.894 333.164 254.837C334.147 254.653 335.603 254.2 336.596 254.271C337.81 254.363 338.904 254.965 340.061 255.316C341.223 255.663 342.688 255.676 343.459 254.82C343.7 254.547 343.873 254.2 344.216 254.055C344.587 253.897 345.04 254.038 345.387 254.24C345.888 254.521 346.466 255.026 347.122 254.868C348.447 254.53 348.023 252.588 347.816 251.74Z" fill="#3C5185"/>
<path d="M343.362 266.399C343.155 265.472 342.74 264.606 341.844 264.22C341.203 263.943 340.47 263.987 339.767 264.04C338.851 264.11 337.921 264.185 337.068 264.496C336.229 264.804 335.627 265.327 335.207 266.052C334.933 266.526 334.942 267.813 334.552 268.077C331.549 267.045 333.578 263.807 332.446 261.834C332.075 261.188 331.54 260.551 330.759 260.358C327.877 259.642 329.303 263.895 328.84 265.019C328.305 266.324 326.807 267.348 326.922 268.74C327.062 270.463 329.082 271.697 330.455 272.624C331.959 273.634 333.342 275.326 335.323 275.295C336.258 275.278 337.164 275.023 338.051 274.768C339.824 274.263 341.675 274.003 342.793 272.519C343.868 271.104 343.719 269.228 343.531 267.519C343.502 267.154 343.454 266.772 343.362 266.399Z" fill="#3C5185"/>
<path d="M383.942 276.568C394.275 271.134 411.173 271.134 421.501 276.568C431.834 282.002 431.834 290.899 421.501 296.333C411.173 301.768 394.275 301.768 383.942 296.333C373.609 290.899 373.609 282.002 383.942 276.568Z" fill="url(#paint10_radial_4059_124173)"/>
<path d="M421.366 281.107H419.245C418.373 280.224 417.235 279.389 415.828 278.647C408.435 274.758 396.337 274.758 388.949 278.647C387.537 279.389 386.404 280.219 385.527 281.107H383.406V285.685C383.387 288.263 385.238 290.842 388.949 292.797C396.337 296.685 408.435 296.685 415.828 292.797C419.544 290.842 421.385 288.263 421.366 285.685V281.107Z" fill="url(#paint11_linear_4059_124173)"/>
<path d="M388.936 274.04C396.325 270.148 408.422 270.148 415.815 274.04C423.204 277.933 423.204 284.294 415.815 288.187C408.422 292.079 396.325 292.079 388.936 288.187C381.543 284.294 381.543 277.933 388.936 274.04Z" fill="#4A65A3"/>
<path d="M409.729 283.937C409.994 283.603 409.801 283.226 409.348 283.046L409.044 282.922C409.594 283.147 410.418 282.988 410.751 282.562C411.016 282.228 410.828 281.851 410.37 281.67L408.158 280.783L406.191 279.992C406.191 279.992 406.553 279.803 407.015 279.54C407.112 279.487 407.208 279.43 407.314 279.368C407.348 279.351 407.377 279.333 407.411 279.311C407.873 279.039 408.355 278.727 408.644 278.472C408.717 278.406 408.861 278.266 409.016 278.108C409.059 278.068 409.097 278.028 409.131 277.989C409.247 277.875 409.367 277.752 409.444 277.659C409.608 277.475 409.628 277.273 409.521 277.106C409.459 277.009 409.348 276.921 409.199 276.855C408.799 276.697 408.244 276.759 407.888 276.996C407.266 277.422 406.307 278.024 405.714 278.182C405.184 278.314 403.203 278.793 403.203 278.793L403.121 278.762L402.321 278.441L402.957 277.87C403.02 277.813 403.005 277.743 402.924 277.712L400.003 276.539L396.06 280.054L394.118 281.789L397.029 282.953L397.044 282.958C397.126 282.993 397.241 282.975 397.304 282.918L397.314 282.909L397.863 282.422L398.364 282.624C398.417 282.646 398.465 282.672 398.504 282.698C398.547 282.729 398.581 282.76 398.61 282.791C398.668 282.852 398.706 282.914 398.716 282.988L398.923 283.981C398.962 284.161 399.111 284.315 399.347 284.412L403.285 285.989C403.743 286.169 404.398 286.13 404.813 285.862C405.338 285.515 405.275 285 404.721 284.776L405.627 285.141C406.085 285.321 406.741 285.286 407.155 285.014C407.68 284.667 407.618 284.153 407.064 283.933L408.018 284.315C408.567 284.522 409.387 284.359 409.729 283.937Z" fill="white"/>
<path d="M426.496 331.103C437.673 325.216 455.964 325.216 467.145 331.103C478.322 336.985 478.322 346.611 467.145 352.493C455.968 358.376 437.678 358.376 426.496 352.493C415.315 346.611 415.315 336.985 426.496 331.103Z" fill="url(#paint12_radial_4059_124173)"/>
<path d="M466.977 336.018H464.678C463.733 335.06 462.5 334.159 460.977 333.36C452.976 329.151 439.886 329.151 431.886 333.36C430.363 334.164 429.133 335.064 428.184 336.018H425.885V340.973C425.866 343.763 427.861 346.553 431.881 348.666C439.881 352.879 452.971 352.879 460.972 348.666C464.991 346.553 466.986 343.763 466.967 340.973V336.018H466.977Z" fill="url(#paint13_linear_4059_124173)"/>
<path d="M431.897 328.364C439.898 324.155 452.988 324.155 460.988 328.364C468.984 332.572 468.984 339.461 460.988 343.67C452.988 347.883 439.898 347.883 431.897 343.67C423.901 339.461 423.901 332.572 431.897 328.364Z" fill="url(#paint14_linear_4059_124173)"/>
<path d="M450.561 339.705C450.561 339.705 450.267 339.705 450.161 339.7L441.061 338.962L440.738 333.291C440.719 332.588 441.11 331.924 441.919 331.454C443.587 330.488 446.373 330.707 448.156 331.942C449.057 332.566 449.52 333.326 449.549 334.055C450.691 334.143 451.852 334.503 452.754 335.123C454.532 336.357 454.633 338.141 452.966 339.103C452.306 339.49 451.452 339.687 450.561 339.705Z" fill="white"/>
<path d="M9.12554 324.052C20.63 317.998 39.4505 317.998 50.955 324.052C62.4594 330.106 62.4594 340.013 50.955 346.067C39.4505 352.121 20.63 352.121 9.12554 346.067C-2.37889 340.013 -2.37407 330.106 9.12554 324.052Z" fill="url(#paint15_radial_4059_124173)"/>
<path d="M50.7813 329.108H48.4149C47.4462 328.12 46.1786 327.193 44.6122 326.367C36.3803 322.039 22.9095 322.039 14.6775 326.367C13.1112 327.193 11.8437 328.12 10.8702 329.108H8.50843V334.204C8.48916 337.073 10.5471 339.946 14.6775 342.121C22.9095 346.453 36.3803 346.453 44.6122 342.121C48.7426 339.946 50.8006 337.077 50.7813 334.204V329.108Z" fill="url(#paint16_linear_4059_124173)"/>
<path d="M14.6822 321.229C22.9141 316.898 36.385 316.898 44.6169 321.229C52.844 325.561 52.844 332.652 44.6169 336.984C36.385 341.311 22.9141 341.311 14.6822 336.984C6.45032 332.652 6.45032 325.561 14.6822 321.229Z" fill="url(#paint17_linear_4059_124173)"/>
<path d="M40.3072 330.673C39.9747 328.849 37.9745 326.912 34.8176 325.361C31.8487 323.898 28.6483 323.09 25.8144 323.09C23.1105 323.09 20.8984 323.806 19.5923 325.106C18.7729 325.915 18.4452 326.894 18.638 327.944C18.985 329.864 21.0911 331.938 24.2528 333.498C26.2337 334.477 27.935 335.079 29.7617 335.466L30.1281 335.549L30.2822 334.187L29.9882 334.13C28.605 333.853 27.0434 333.304 25.4626 332.527C22.8985 331.261 21.2743 329.715 21.0093 328.283C20.8695 327.531 21.1105 326.837 21.737 326.218C22.8166 325.155 24.5179 324.588 26.6626 324.588C28.9086 324.588 31.41 325.212 33.709 326.341C36.2104 327.571 37.7191 328.972 37.9601 330.277C38.0854 330.967 37.8588 331.608 37.2757 332.184C36.572 332.882 35.502 333.282 34.3453 333.282C33.6416 333.282 32.9765 333.137 32.4511 332.874C32.1812 332.738 32.0318 332.597 32.0318 332.478C32.0318 332.399 32.0992 332.114 33.0005 331.635L36.5333 329.697L36.22 329.421C35.5597 328.849 34.5476 328.208 33.4391 327.663C31.4871 326.697 29.352 326.17 27.4338 326.17C25.718 326.17 24.3396 326.596 23.5588 327.365C23.154 327.773 22.9853 328.248 23.0768 328.748C23.2166 329.517 23.954 330.282 25.0963 330.844C26.4265 331.499 27.7278 331.819 29.0773 331.819C29.2894 331.819 29.5014 331.811 29.7183 331.793C29.6412 331.982 29.6364 332.153 29.6556 332.289C29.7569 333.036 30.6438 333.577 31.1643 333.831C32.4415 334.46 33.897 334.807 35.2755 334.807C36.9768 334.807 38.4467 334.275 39.4203 333.309C40.1866 332.562 40.4856 331.652 40.3072 330.673ZM25.7614 329.087C25.7325 328.937 25.7903 328.788 25.9397 328.634C26.4554 328.129 27.4145 327.835 28.576 327.835C29.7713 327.835 31.0389 328.133 32.1474 328.678C32.451 328.827 32.7402 328.986 33.0005 329.148L31.463 329.996C30.9521 330.286 30.0653 330.466 29.1592 330.466C28.2531 330.466 27.4001 330.29 26.7494 329.974C26.1662 329.697 25.8096 329.381 25.7614 329.087Z" fill="white"/>
<path d="M112.098 173.639C125.511 166.579 147.469 166.579 160.882 173.639C174.3 180.699 174.3 192.253 160.882 199.313C147.469 206.373 125.511 206.373 112.098 199.313C98.6754 192.257 98.6754 180.703 112.098 173.639Z" fill="url(#paint18_radial_4059_124173)"/>
<path d="M160.705 179.543H157.943C156.816 178.392 155.336 177.311 153.505 176.344C143.904 171.297 128.192 171.297 118.591 176.344C116.765 177.311 115.285 178.392 114.152 179.543H111.396V185.487C111.371 188.834 113.772 192.182 118.591 194.726C128.192 199.778 143.904 199.778 153.505 194.726C158.329 192.186 160.724 188.834 160.7 185.487H160.705V179.543Z" fill="url(#paint19_linear_4059_124173)"/>
<path d="M118.573 170.356C128.174 165.303 143.886 165.303 153.487 170.356C163.087 175.403 163.087 183.676 153.487 188.728C143.886 193.78 128.174 193.78 118.573 188.728C108.973 183.68 108.973 175.408 118.573 170.356Z" fill="#3C5185"/>
<path d="M136.698 185.099C134.885 185.832 131.994 185.701 130.249 184.8C128.499 183.904 128.547 182.577 130.36 181.843C130.702 181.703 131.092 181.602 131.502 181.527L130.302 178.223C129.164 178.157 128.041 177.911 127.188 177.468C125.439 176.571 125.487 175.245 127.299 174.511C129.111 173.777 131.998 173.905 133.748 174.805C134.63 175.262 135.054 175.82 135.025 176.361L141.869 177.34C142.096 177.143 142.375 176.958 142.761 176.804C144.573 176.071 147.46 176.202 149.209 177.099C150.959 177.999 150.911 179.326 149.099 180.06C147.286 180.798 144.399 180.666 142.65 179.765C141.811 179.335 141.397 178.808 141.382 178.294L134.447 177.296C134.23 177.463 133.974 177.626 133.642 177.762C133.276 177.907 132.856 178.012 132.423 178.092L133.613 181.373C134.774 181.426 135.931 181.681 136.808 182.133C138.558 183.034 138.505 184.361 136.698 185.099Z" fill="white"/>
<path d="M184.062 237.796L173.685 242.26C172.663 242.699 171.82 243.428 171.29 244.342C170.403 245.853 170.504 247.685 171.545 249.109C173.618 250.998 176.683 251.639 179.459 250.774L192.159 246.798L193.542 245.252H194.906L197.133 245.932L204.261 244.904L204.723 235.621L193.378 232.164L184.062 237.796Z" fill="#3C5185"/>
<path d="M199.17 240.33C195.555 240.33 193.545 237.672 193.512 234.369L192.229 189.786L193.675 146.925C194.003 143.613 200.066 141.179 203.676 141.473C207.31 141.776 215.643 149.003 215.315 152.316L204.5 190.282L204.828 234.268C204.862 237.589 202.876 240.308 199.228 240.339C199.213 240.33 199.194 240.33 199.17 240.33Z" fill="url(#paint20_linear_4059_124173)"/>
<path d="M217.699 248.633L206.368 261.268C205.621 262.111 205.004 263.051 204.541 264.053L204.112 264.98C203.442 266.421 203.823 268.086 205.062 269.162L205.64 269.663C206.864 270.731 208.681 271.008 210.219 270.357L211.838 269.676C213.405 269.018 214.807 268.073 215.959 266.904L222.605 261.342L223.955 258.496L224.61 257.946L225.738 258.724L228.557 256.365C229.473 255.631 229.907 254.515 229.7 253.417L228.958 249.52L217.699 248.633Z" fill="#3C5185"/>
<path d="M200.862 157.034C199.271 157.034 197.748 156.216 197.021 154.819L184.938 131.605C181.583 125.152 182.258 117.485 186.702 111.603L199.97 94.0386C201.3 92.2769 203.951 91.8376 205.879 93.0414C207.807 94.2539 208.298 96.6658 206.968 98.4275L193.7 115.992C190.967 119.607 190.553 124.321 192.611 128.293L204.693 151.507C205.696 153.435 204.795 155.742 202.674 156.66C202.091 156.915 201.469 157.034 200.862 157.034Z" fill="#F2B1B5"/>
<path d="M190.191 118.34C189.222 118.34 188.234 118.076 187.372 117.532C185.102 116.113 184.528 113.279 186.09 111.214L199.363 93.6498C200.92 91.5806 204.028 91.0578 206.294 92.4812C208.559 93.9046 209.132 96.7383 207.576 98.8032L194.298 116.363C193.334 117.655 191.777 118.34 190.191 118.34Z" fill="white"/>
<path d="M223.598 253.659C220.022 253.659 218.032 251.053 217.945 247.776L212.985 193.027L208.272 168.799L195.519 153.506L207.563 143.436C207.66 140.111 220.123 144.39 223.767 144.451C227.415 144.543 233.122 156.765 233.03 160.091L227.136 194.767L229.251 247.499C229.338 250.825 227.391 253.58 223.747 253.654C223.704 253.659 223.651 253.659 223.598 253.659Z" fill="url(#paint21_linear_4059_124173)"/>
<path d="M225.756 98.0068C231.81 101.192 235.535 107.079 235.535 113.453L234.991 116.212C232.846 126.98 232.079 137.941 232.687 148.876L233.646 165.962C221.862 170.904 199.243 162.386 193.036 152.193L194.178 124.002L193.089 106.073C192.448 95.4192 204.733 88.1571 215.138 93.0336L225.756 98.0068Z" fill="white"/>
<path d="M210.826 103.306H211.216C213.958 103.306 218.084 98.4249 218.084 95.9208V88.404C218.084 86.8751 216.725 85.6406 215.052 85.6406H211.178C209.5 85.6406 208.146 86.8751 208.146 88.404V95.9208C208.146 98.4205 208.083 103.306 210.826 103.306Z" fill="#F2B1B5"/>
<path d="M216.726 92.2714C219.839 91.7003 221.858 88.9414 221.241 86.1034L217.815 70.4766L197.139 74.2328L198.686 81.2928C200.339 88.8667 208.417 93.7827 216.726 92.2714Z" fill="#F2B1B5"/>
<path d="M211.903 77.5748C213.494 78.1327 214.839 79.8241 215.229 81.2168C215.538 82.3107 215.142 82.7544 214.569 83.7122C214.241 84.2569 213.995 84.8939 214.169 85.4914C214.188 85.5617 214.217 85.632 214.27 85.6803C214.333 85.7331 214.415 85.755 214.496 85.7682C215.181 85.8516 215.75 85.3113 216.169 84.8148C216.81 84.0592 217.687 83.3694 218.641 84.169C219.678 85.0389 219.008 86.0098 218.603 86.906C218.111 87.9912 217.533 90.3767 218.849 91.2334C219.904 91.9231 222.208 91.0225 223.162 90.4822C223.307 90.3987 223.451 90.3108 223.586 90.2142C226.406 88.2064 225.977 84.2305 226.411 81.3485C226.763 79.0025 226.107 77.0124 225.75 74.7411C225.413 72.5313 225.481 70.4884 223.697 68.7136C222.059 67.0925 218.998 66.5433 217.2 68.0238C216.207 66.864 214.603 66.2621 213.007 66.082C211.407 65.9063 209.793 66.1127 208.197 66.3148C205.103 66.7146 203.031 67.5142 200.481 69.0606C199.281 69.7811 198.365 70.8179 197.343 71.7229C196.341 72.6148 196.37 73.7702 196.644 74.9915C196.958 76.3666 197.652 77.645 198.341 78.9059C198.49 78.7829 198.553 78.6028 198.616 78.4271C199.045 77.1882 199.059 76.1294 200.081 75.1321C201.035 74.2007 201.922 74.394 203.204 74.8158C203.566 74.9388 203.932 75.0882 204.235 75.3078C205.04 75.9097 204.828 76.8674 205.768 77.421C206.525 77.8691 207.498 77.8471 208.385 77.7021C209.277 77.5659 210.154 77.3199 211.055 77.3902C211.34 77.4166 211.624 77.4781 211.903 77.5748Z" fill="#48486A"/>
<path d="M162.709 82.9636L209.527 80.3672C210.236 80.9778 210.096 83.2096 209.527 83.9345L170.589 95.8007L162.709 82.9636Z" fill="url(#paint22_linear_4059_124173)"/>
<path d="M166.254 83.5311C163.097 81.8661 160.514 83.228 160.514 86.5536C160.514 89.8793 163.097 93.9607 166.254 95.6169C169.411 97.2819 171.994 95.92 171.994 92.5943C171.994 89.2687 169.411 85.1918 166.254 83.5311Z" fill="#4A65A3"/>
<path d="M166.262 84.2734C163.491 82.8192 161.226 84.0054 161.226 86.9269C161.226 89.8485 163.491 93.4246 166.262 94.8832C169.033 96.3417 171.299 95.1511 171.299 92.2296C171.299 89.3081 169.033 85.7319 166.262 84.2734Z" fill="#A5CBEF"/>
<path opacity="0.3" d="M231.456 108.266C230.218 106.456 227.601 105.902 225.61 107.027L211.19 115.207C209.291 116.283 207.016 116.463 204.939 115.699C202.862 114.93 201.363 113.357 200.813 111.341L196.567 96.4961C194.249 99.0178 192.856 102.322 193.082 106.06L193.68 115.901C195.314 119.042 198.114 121.529 201.753 122.873C204.38 123.844 207.151 124.13 209.836 123.756C211.874 123.475 213.855 122.812 215.677 121.775L230.097 113.599C232.088 112.47 232.695 110.084 231.456 108.266Z" fill="#B7D5F2"/>
<path d="M208.397 120.872C205.683 120.872 202.994 120.209 200.555 118.886C196.27 116.571 193.547 112.648 193.08 108.123L190.352 84.3072C190.106 82.1808 191.803 80.2785 194.135 80.0545C196.458 79.8436 198.555 81.3813 198.801 83.5032L201.528 107.359C201.741 109.432 202.965 111.189 204.888 112.231C206.811 113.272 209.095 113.408 211.148 112.6L226.754 106.489C228.904 105.65 231.405 106.559 232.326 108.518C233.251 110.482 232.258 112.758 230.104 113.601L214.498 119.712C212.532 120.486 210.459 120.872 208.397 120.872Z" fill="#F2B1B5"/>
<path d="M212.815 120.7C210.882 120.7 209.041 119.672 208.232 117.949C207.142 115.647 208.318 112.972 210.844 111.983L226.45 105.868C228.98 104.88 231.91 105.952 232.995 108.254C234.079 110.556 232.908 113.231 230.378 114.22L214.777 120.331C214.14 120.581 213.47 120.7 212.815 120.7Z" fill="white"/>
<path d="M198.074 92.0619C197.442 91.9476 197.033 91.3897 197.163 90.8141L198.989 82.4538C199.115 81.8783 199.727 81.5049 200.358 81.6235C200.99 81.7378 201.395 82.2957 201.269 82.8668L199.443 91.2315C199.313 91.7982 198.7 92.1717 198.074 92.0619Z" fill="#F2B1B5"/>
<path d="M217.978 93.6094L220.619 94.8878L218.079 109.148L211.212 103.305L217.978 93.6094Z" fill="#3C5185"/>
<path d="M211.208 103.308L208.456 92.0917L205.646 91.6875L202.354 105.012L211.208 103.308Z" fill="#3C5185"/>
<path d="M168.468 86.0352L163.668 92.647C164.169 93.2445 164.718 93.7409 165.316 94.1846L169.895 87.8715C169.49 87.2038 168.998 86.5975 168.468 86.0352Z" fill="#B7D5F2"/>
<path d="M163.074 91.921L167.792 85.419C167.296 84.9885 166.795 84.5667 166.25 84.2767C165.72 83.9999 165.214 83.8418 164.732 83.7539L161.45 88.2746C161.71 89.5267 162.259 90.7744 163.074 91.921Z" fill="#B7D5F2"/>
<path d="M405.163 134.267L264.365 59.727C262.605 58.7956 260.398 59.9554 260.398 61.8137V153.641C260.398 156.181 261.878 158.522 264.287 159.796L405.086 234.337C406.845 235.268 409.053 234.108 409.053 232.25V140.422C409.053 137.892 407.573 135.541 405.163 134.267Z" fill="#3C5185"/>
<path d="M406.24 233.968V142.14C406.24 139.605 404.756 137.259 402.35 135.985L261.552 61.4451C261.21 61.265 260.853 61.1815 260.496 61.1552C260.949 59.7054 262.824 58.919 264.366 59.7362L405.165 134.276C407.575 135.551 409.055 137.897 409.055 140.431V232.259C409.055 233.757 407.618 234.781 406.139 234.64C406.201 234.425 406.24 234.205 406.24 233.968Z" fill="url(#paint23_linear_4059_124173)"/>
<path d="M373.219 172.562H372.573V217.132L373.219 217.475V172.562Z" fill="#2D3D64"/>
<path d="M284.146 170.317L284.796 170.659V127.289H284.146V170.317Z" fill="#2D3D64"/>
<path d="M310.861 184.462L311.512 184.805V139.027H310.861V184.462Z" fill="#2D3D64"/>
<path d="M342.451 201.179L343.097 201.522V127.289H342.451V201.179Z" fill="#2D3D64"/>
<path d="M284.474 128.497C285.028 128.497 285.477 127.958 285.477 127.294C285.477 126.629 285.028 126.09 284.474 126.09C283.921 126.09 283.472 126.629 283.472 127.294C283.472 127.958 283.921 128.497 284.474 128.497Z" fill="#2D3D64"/>
<path d="M311.19 140.233C311.743 140.233 312.192 139.692 312.192 139.025C312.192 138.357 311.743 137.816 311.19 137.816C310.636 137.816 310.187 138.357 310.187 139.025C310.187 139.692 310.636 140.233 311.19 140.233Z" fill="#2D3D64"/>
<path d="M342.765 128.497C343.319 128.497 343.767 127.958 343.767 127.294C343.767 126.629 343.319 126.09 342.765 126.09C342.211 126.09 341.762 126.629 341.762 127.294C341.762 127.958 342.211 128.497 342.765 128.497Z" fill="#2D3D64"/>
<path d="M372.91 172.92C373.464 172.92 373.912 172.379 373.912 171.712C373.912 171.045 373.464 170.504 372.91 170.504C372.356 170.504 371.907 171.045 371.907 171.712C371.907 172.379 372.356 172.92 372.91 172.92Z" fill="#2D3D64"/>
<path opacity="0.1" d="M260.398 151.611V149.871C263.786 150.433 267.343 149.897 270.385 148.21L273.715 146.361C279.243 143.298 285.986 143.066 291.75 145.737L296.469 147.92C304.508 151.646 314.046 151.558 321.999 147.692L324.067 146.686C328.525 144.52 333.619 144.12 338.42 145.565C343.21 147.011 347.047 150.095 349.206 154.26L362.894 180.58C368.471 191.299 377.431 200.015 388.8 205.784L409.053 216.055V218.015L387.884 207.278C376.163 201.333 366.938 192.358 361.198 181.313L347.51 154.993C345.567 151.259 342.131 148.491 337.822 147.195C333.518 145.899 328.949 146.255 324.949 148.201L322.881 149.207C314.389 153.333 304.195 153.425 295.621 149.453L290.902 147.266C285.716 144.863 279.658 145.073 274.693 147.828L271.363 149.678C268.023 151.523 264.133 152.155 260.398 151.611Z" fill="#05105D"/>
<path d="M411.415 214.725C411.743 214.725 412.065 214.567 412.239 214.286C412.49 213.873 412.331 213.35 411.873 213.122L390.676 202.367C379.306 196.599 370.346 187.883 364.77 177.163L351.082 150.843C348.922 146.683 345.091 143.599 340.295 142.149C335.499 140.699 330.4 141.103 325.947 143.269L323.874 144.275C315.927 148.141 306.384 148.225 298.344 144.504L293.626 142.32C287.861 139.649 281.119 139.878 275.59 142.944L272.26 144.794C267.792 147.267 262.206 147.329 257.675 144.943L254.962 143.515C254.514 143.278 253.94 143.419 253.675 143.827C253.415 144.236 253.574 144.759 254.017 144.996L256.736 146.428C261.859 149.121 268.182 149.06 273.238 146.257L276.569 144.407C281.533 141.653 287.591 141.442 292.773 143.845L297.491 146.033C306.065 150.004 316.264 149.916 324.752 145.791L326.819 144.785C330.819 142.843 335.389 142.487 339.697 143.779C344.001 145.075 347.433 147.847 349.38 151.577L363.068 177.897C368.808 188.942 378.034 197.921 389.755 203.861L410.952 214.616C411.106 214.69 411.261 214.725 411.415 214.725Z" fill="url(#paint24_linear_4059_124173)"/>
<path opacity="0.3" d="M405.165 134.261L362.646 111.75V155.243C362.646 155.986 363.22 156.891 363.923 157.264L409.055 181.014V140.416C409.055 137.886 407.575 135.535 405.165 134.261Z" fill="#2D3D64"/>
<path d="M367.561 85.9177C367.561 85.1796 368.135 84.8765 368.838 85.2499L486.544 147.195C487.248 147.564 487.821 148.473 487.821 149.211V215.567C487.821 216.31 487.248 216.608 486.544 216.239L368.838 154.294C368.135 153.921 367.561 153.016 367.561 152.273V85.9177Z" fill="#4A65A3"/>
<path d="M458.806 159.408C457.992 158.116 457.095 156.869 456.136 155.683C455.177 154.492 454.155 153.376 453.1 152.348C452.04 151.324 450.941 150.384 449.818 149.55C448.704 148.724 447.562 148.003 446.434 147.419C445.345 146.848 444.29 146.408 443.268 146.092L446.362 137.723C447.981 138.215 449.625 138.905 451.259 139.757C452.84 140.583 454.411 141.571 455.934 142.701C457.389 143.777 458.816 144.989 460.17 146.303C461.486 147.586 462.754 148.974 463.939 150.441C465.106 151.882 466.205 153.416 467.202 154.988C468.195 156.557 469.106 158.191 469.891 159.839L469.106 160.151L461.014 163.375C460.363 162.035 459.626 160.695 458.806 159.408ZM457.674 192.625C458.792 192.625 459.891 192.529 460.946 192.331C462.517 192.037 464.007 191.523 465.366 190.811C466.725 190.091 467.959 189.172 469.024 188.083C470.06 187.02 470.937 185.79 471.646 184.419C472.33 183.092 472.846 181.634 473.188 180.078C473.526 178.554 473.699 176.911 473.704 175.197C473.709 173.537 473.554 171.801 473.241 170.035L463.679 171.428C463.905 172.724 464.016 173.985 464.012 175.175C464.012 176.313 463.901 177.376 463.689 178.334C463.501 179.204 463.221 179.986 462.869 180.671C462.566 181.269 462.195 181.787 461.775 182.218C461.399 182.604 460.975 182.925 460.513 183.167C460.055 183.408 459.544 183.584 458.994 183.685C458.377 183.799 457.698 183.826 456.98 183.773C456.16 183.712 455.278 183.536 454.368 183.255C453.351 182.938 452.29 182.49 451.215 181.923C450.092 181.335 448.95 180.614 447.832 179.78C446.728 178.954 445.62 178.018 444.555 176.981C443.504 175.957 442.487 174.837 441.523 173.642C440.574 172.46 439.672 171.208 438.853 169.912C438.034 168.621 437.292 167.281 436.646 165.941C436 164.601 435.446 163.23 434.993 161.881C434.539 160.528 434.197 159.188 433.971 157.897C433.739 156.605 433.624 155.344 433.624 154.154C433.624 153.02 433.73 151.961 433.937 150.999C434.125 150.138 434.4 149.356 434.747 148.675C435.055 148.078 435.426 147.559 435.846 147.129C436.217 146.742 436.636 146.43 437.094 146.189C437.561 145.943 438.072 145.767 438.622 145.666L438.68 137.016H438.145C436.973 137.016 435.797 137.161 434.689 137.516C433.841 137.789 433.026 138.132 432.255 138.536C430.901 139.247 429.667 140.166 428.597 141.26C427.556 142.327 426.679 143.557 425.975 144.928C425.295 146.25 424.78 147.709 424.438 149.264C424.105 150.797 423.936 152.436 423.936 154.145C423.936 155.806 424.091 157.537 424.409 159.298C424.708 160.976 425.146 162.703 425.72 164.438C426.284 166.121 426.973 167.817 427.773 169.477C428.558 171.112 429.464 172.742 430.462 174.319C431.465 175.9 432.563 177.429 433.725 178.87C434.911 180.338 436.178 181.726 437.484 183.004C438.843 184.327 440.265 185.539 441.711 186.611C443.234 187.745 444.805 188.733 446.372 189.559C447.996 190.411 449.639 191.105 451.264 191.602C452.907 192.111 454.56 192.432 456.155 192.56C456.666 192.608 457.172 192.625 457.674 192.625Z" fill="url(#paint25_linear_4059_124173)"/>
<path d="M486.544 147.191L368.838 85.246C368.134 84.8726 367.561 85.1758 367.561 85.9138V86.5508L484.698 148.197C485.402 148.566 485.98 149.475 485.98 150.214V215.932L486.544 216.231C487.248 216.6 487.821 216.301 487.821 215.559V149.203C487.821 148.469 487.248 147.56 486.544 147.191Z" fill="url(#paint26_linear_4059_124173)"/>
<path d="M401.733 118.13V122.725L375.495 108.921V104.133L401.733 118.13Z" fill="#EDF3FA"/>
<path d="M419.117 141.569V146.169L375.495 123.456V118.672L419.117 141.569Z" fill="#EDF3FA"/>
<path d="M419.117 153.679V158.283L375.495 135.57V130.781L419.117 153.679Z" fill="#EDF3FA"/>
<path d="M419.117 164.988V169.587L375.495 146.879V142.09L419.117 164.988Z" fill="#EDF3FA"/>
<path d="M500.499 293.106C500.499 296.717 497.709 298.167 494.296 296.326L421.959 257.262C418.546 255.421 415.722 250.953 415.674 247.342L415.023 192.984C414.98 189.373 417.742 187.914 421.159 189.742L494.277 228.877C497.694 230.704 500.494 235.164 500.494 238.775V293.106H500.499Z" fill="#3C5185"/>
<path d="M500.494 292.629V254.812C500.215 254.122 499.868 253.463 499.328 252.914C497.685 251.253 494.933 250.853 492.533 251.297C490.128 251.741 487.963 252.874 485.785 253.902C482.662 255.365 479.346 256.639 475.842 256.938C472.338 257.232 468.598 256.45 466.049 254.245C463.446 251.996 462.121 248.398 458.805 247.159C455.86 246.056 452.568 247.273 449.527 248.143C442.823 250.054 434.668 249.9 429.762 245.322C426.894 242.647 425.111 238.526 421.13 237.621C420.889 237.564 420.643 237.524 420.402 237.498C418.744 237.313 417.052 237.77 415.568 238.53L415.674 247.348C415.717 250.959 418.542 255.427 421.954 257.268L428.085 260.58C432.181 262.676 436.225 264.855 440.259 267.042C451.643 273.228 463.032 279.414 474.416 285.604L494.287 296.332C495.14 296.789 495.95 297.044 496.687 297.114C496.967 297.123 497.236 297.119 497.516 297.048C499.174 296.644 499.916 294.918 500.321 293.393C500.393 293.143 500.437 292.884 500.494 292.629Z" fill="url(#paint27_linear_4059_124173)"/>
<path d="M498.337 294.42V240.093C498.337 236.481 495.542 232.027 492.125 230.195L419.006 191.064C417.792 190.418 416.674 190.185 415.719 190.313C416.741 188.792 418.794 188.476 421.165 189.746L494.284 228.881C497.701 230.709 500.501 235.168 500.501 238.779V293.106C500.501 295.426 499.349 296.849 497.619 297.082C498.082 296.418 498.337 295.522 498.337 294.42Z" fill="url(#paint28_linear_4059_124173)"/>
<path d="M280.777 117.212C280.888 117.049 280.946 116.864 280.936 116.654C280.931 116.443 280.868 116.245 280.753 116.052C280.642 115.854 280.492 115.718 280.324 115.634C280.01 115.481 279.721 115.608 279.461 116.034L278.541 114.936C278.762 114.598 279.003 114.378 279.273 114.286C279.543 114.193 279.89 114.246 280.319 114.461C280.757 114.672 281.138 115.028 281.476 115.529C281.813 116.034 281.996 116.579 282.02 117.168C282.035 117.488 281.977 117.769 281.861 117.994C281.741 118.231 281.514 118.481 281.182 118.771L280.319 119.5L282.295 120.471L282.343 121.723L278.82 119.992L278.777 118.956L280.169 117.796C280.454 117.572 280.656 117.37 280.777 117.212Z" fill="white"/>
<path d="M285.201 123.188C284.507 122.85 283.982 122.305 283.616 121.549C283.249 120.794 283.052 119.924 283.013 118.944C282.975 117.964 283.114 117.261 283.437 116.844C283.75 116.422 284.261 116.387 284.95 116.721C285.644 117.064 286.17 117.608 286.531 118.364C286.902 119.12 287.1 119.985 287.143 120.969C287.182 121.949 287.037 122.648 286.714 123.074C286.396 123.487 285.89 123.526 285.201 123.188ZM284.281 118.092C284.141 118.39 284.078 118.861 284.102 119.484C284.126 120.108 284.228 120.653 284.401 121.11C284.575 121.567 284.825 121.879 285.153 122.041C285.49 122.204 285.731 122.133 285.866 121.835C286.011 121.527 286.073 121.062 286.044 120.438C286.02 119.814 285.924 119.269 285.75 118.812C285.577 118.355 285.326 118.043 284.989 117.876C284.661 117.714 284.43 117.784 284.281 118.092Z" fill="white"/>
<path d="M287.647 118.188L289.672 119.18L289.913 125.432L288.838 124.905L288.645 119.848L287.696 119.382L287.647 118.188Z" fill="white"/>
<path d="M291.367 120.358C291.685 120.186 292.09 120.23 292.586 120.467C293.083 120.713 293.502 121.078 293.844 121.57C294.186 122.058 294.364 122.545 294.379 123.024C294.403 123.499 294.268 123.841 293.989 124.039C294.417 124.645 294.644 125.269 294.668 125.919C294.692 126.469 294.538 126.846 294.196 127.049C293.854 127.251 293.405 127.211 292.837 126.934C292.273 126.658 291.805 126.245 291.439 125.7C291.073 125.151 290.875 124.602 290.851 124.052C290.832 123.407 291.015 122.98 291.415 122.783C291.102 122.286 290.933 121.794 290.914 121.32C290.899 120.845 291.053 120.529 291.367 120.358ZM292.239 125.296C292.413 125.52 292.596 125.678 292.788 125.77C292.991 125.867 293.164 125.884 293.323 125.827C293.487 125.77 293.564 125.608 293.555 125.34C293.545 125.072 293.454 124.83 293.285 124.602C293.116 124.382 292.928 124.219 292.726 124.123C292.519 124.022 292.34 124.004 292.186 124.066C292.027 124.131 291.955 124.294 291.964 124.562C291.974 124.83 292.065 125.076 292.239 125.296ZM292.2 122.603C292.34 122.809 292.504 122.958 292.687 123.046C292.87 123.139 293.025 123.143 293.155 123.068C293.285 122.989 293.352 122.849 293.343 122.638C293.333 122.422 293.256 122.212 293.121 122.001C292.981 121.794 292.817 121.645 292.629 121.553C292.441 121.46 292.292 121.456 292.157 121.531C292.032 121.61 291.969 121.755 291.979 121.966C291.984 122.181 292.061 122.392 292.2 122.603Z" fill="white"/>
<path d="M307.624 128.204C307.739 128.042 307.797 127.857 307.787 127.646C307.778 127.435 307.72 127.233 307.6 127.04C307.489 126.847 307.344 126.711 307.175 126.623C306.857 126.469 306.568 126.601 306.308 127.027L305.392 125.924C305.609 125.59 305.85 125.371 306.12 125.274C306.39 125.182 306.737 125.234 307.171 125.45C307.604 125.665 307.99 126.016 308.327 126.522C308.665 127.022 308.848 127.567 308.872 128.16C308.882 128.481 308.829 128.758 308.708 128.986C308.592 129.219 308.366 129.474 308.028 129.764L307.171 130.493L309.142 131.464L309.19 132.712L305.667 130.981L305.628 129.948L307.021 128.789C307.306 128.56 307.508 128.362 307.624 128.204Z" fill="white"/>
<path d="M312.038 134.186C311.348 133.848 310.818 133.299 310.457 132.548C310.086 131.787 309.888 130.922 309.85 129.938C309.811 128.958 309.951 128.255 310.274 127.838C310.597 127.421 311.103 127.381 311.787 127.719C312.486 128.058 313.011 128.607 313.368 129.362C313.739 130.118 313.941 130.984 313.98 131.968C314.018 132.947 313.879 133.646 313.551 134.068C313.238 134.485 312.736 134.525 312.038 134.186ZM311.127 129.086C310.982 129.389 310.919 129.854 310.948 130.478C310.972 131.107 311.069 131.651 311.242 132.108C311.416 132.565 311.667 132.877 311.999 133.04C312.332 133.202 312.573 133.132 312.712 132.829C312.852 132.526 312.915 132.056 312.891 131.436C312.867 130.808 312.765 130.263 312.597 129.811C312.423 129.349 312.168 129.037 311.835 128.875C311.503 128.712 311.267 128.783 311.127 129.086Z" fill="white"/>
<path d="M314.499 129.18L316.518 130.168L316.759 136.42L315.689 135.897L315.492 130.836L314.542 130.375L314.499 129.18Z" fill="white"/>
<path d="M319.315 136.571C319.629 136.725 319.865 136.712 320.024 136.536C320.178 136.36 320.27 136.057 320.289 135.627C319.995 135.732 319.672 135.706 319.325 135.534C318.853 135.302 318.457 134.915 318.13 134.379C317.807 133.843 317.629 133.254 317.604 132.626C317.585 131.993 317.73 131.572 318.053 131.352C318.376 131.128 318.79 131.146 319.301 131.396C319.653 131.567 319.966 131.805 320.226 132.099C320.491 132.398 320.708 132.736 320.872 133.109C321.171 133.834 321.34 134.647 321.373 135.534C321.397 136.106 321.359 136.58 321.272 136.958C321.171 137.336 321.036 137.599 320.853 137.762C320.486 138.069 320.019 138.087 319.46 137.815C319.224 137.705 318.997 137.547 318.78 137.358C318.564 137.169 318.395 137.002 318.284 136.861C318.173 136.725 318.038 136.554 317.894 136.343L318.409 135.631C318.448 135.684 318.491 135.75 318.544 135.838C318.602 135.921 318.713 136.048 318.872 136.22C319.031 136.391 319.176 136.501 319.315 136.571ZM319.383 134.392C319.605 134.502 319.783 134.511 319.927 134.427C320.067 134.335 320.139 134.159 320.125 133.9C320.115 133.637 320.033 133.373 319.879 133.114C319.735 132.855 319.551 132.67 319.335 132.565C319.123 132.464 318.954 132.459 318.824 132.56C318.698 132.666 318.636 132.846 318.645 133.109C318.655 133.373 318.727 133.623 318.857 133.869C318.983 134.107 319.166 134.282 319.383 134.392Z" fill="white"/>
<path d="M339.113 118.512C339.224 118.35 339.282 118.17 339.272 117.959C339.267 117.748 339.205 117.546 339.089 117.353C338.973 117.159 338.829 117.023 338.66 116.935C338.347 116.781 338.057 116.913 337.797 117.339L336.877 116.237C337.098 115.903 337.339 115.683 337.609 115.586C337.879 115.494 338.226 115.547 338.655 115.762C339.094 115.973 339.474 116.329 339.812 116.834C340.149 117.335 340.332 117.88 340.356 118.473C340.371 118.794 340.313 119.07 340.193 119.299C340.077 119.532 339.85 119.786 339.518 120.076L338.655 120.806L340.626 121.777L340.679 123.024L337.156 121.293L337.113 120.261L338.506 119.101C338.795 118.873 338.992 118.675 339.113 118.512Z" fill="white"/>
<path d="M343.537 124.495C342.843 124.156 342.318 123.607 341.952 122.852C341.585 122.096 341.388 121.231 341.349 120.246C341.311 119.267 341.451 118.564 341.769 118.147C342.087 117.729 342.598 117.69 343.287 118.028C343.976 118.366 344.506 118.915 344.868 119.671C345.239 120.422 345.436 121.292 345.48 122.272C345.518 123.256 345.374 123.95 345.051 124.376C344.733 124.793 344.231 124.829 343.537 124.495ZM342.622 119.394C342.482 119.697 342.419 120.163 342.443 120.787C342.468 121.411 342.569 121.96 342.737 122.417C342.916 122.874 343.166 123.186 343.494 123.348C343.831 123.511 344.068 123.44 344.207 123.137C344.352 122.834 344.415 122.364 344.386 121.745C344.362 121.116 344.265 120.572 344.092 120.115C343.918 119.658 343.668 119.346 343.33 119.183C343.002 119.016 342.766 119.087 342.622 119.394Z" fill="white"/>
<path d="M348.362 123.047C348.482 122.889 348.535 122.7 348.525 122.49C348.521 122.283 348.458 122.081 348.342 121.888C348.232 121.69 348.082 121.558 347.913 121.47C347.6 121.317 347.311 121.448 347.051 121.87L346.135 120.772C346.352 120.434 346.593 120.218 346.858 120.122C347.133 120.029 347.48 120.082 347.913 120.297C348.347 120.508 348.733 120.864 349.07 121.365C349.403 121.87 349.586 122.415 349.61 123.004C349.624 123.324 349.571 123.605 349.446 123.834C349.335 124.067 349.104 124.322 348.766 124.612L347.908 125.336L349.884 126.307L349.933 127.559L346.41 125.828L346.371 124.792L347.764 123.632C348.048 123.408 348.246 123.206 348.362 123.047Z" fill="white"/>
<path d="M352.789 129.028C352.1 128.694 351.57 128.145 351.204 127.389C350.842 126.633 350.64 125.764 350.602 124.784C350.558 123.8 350.703 123.101 351.021 122.684C351.344 122.262 351.855 122.227 352.539 122.561C353.233 122.904 353.758 123.448 354.125 124.204C354.486 124.96 354.688 125.829 354.727 126.809C354.766 127.793 354.626 128.492 354.303 128.909C353.985 129.326 353.484 129.366 352.789 129.028ZM351.879 123.932C351.729 124.235 351.671 124.7 351.7 125.324C351.724 125.952 351.816 126.497 351.994 126.95C352.168 127.407 352.418 127.723 352.751 127.886C353.079 128.048 353.32 127.978 353.459 127.675C353.604 127.367 353.667 126.901 353.638 126.282C353.614 125.654 353.517 125.109 353.344 124.652C353.17 124.195 352.915 123.883 352.587 123.716C352.255 123.554 352.014 123.628 351.879 123.932Z" fill="white"/>
<path d="M369.158 162.241C369.269 162.078 369.332 161.894 369.322 161.683C369.313 161.472 369.25 161.275 369.134 161.077C369.023 160.884 368.874 160.747 368.705 160.664C368.392 160.51 368.103 160.637 367.843 161.064L366.922 159.965C367.144 159.627 367.385 159.407 367.655 159.315C367.925 159.218 368.272 159.276 368.705 159.486C369.139 159.702 369.52 160.058 369.857 160.558C370.195 161.059 370.383 161.608 370.402 162.197C370.416 162.518 370.363 162.795 370.243 163.023C370.127 163.256 369.896 163.511 369.563 163.801L368.701 164.53L370.677 165.496L370.725 166.749L367.202 165.022L367.158 163.985L368.551 162.821C368.835 162.597 369.038 162.399 369.158 162.241Z" fill="white"/>
<path d="M373.568 168.219C372.874 167.881 372.348 167.331 371.982 166.576C371.616 165.82 371.418 164.955 371.38 163.971C371.341 162.991 371.481 162.292 371.804 161.871C372.127 161.449 372.633 161.414 373.317 161.752C374.016 162.095 374.541 162.64 374.898 163.391C375.269 164.146 375.471 165.016 375.51 165.996C375.549 166.98 375.404 167.678 375.081 168.1C374.773 168.513 374.262 168.557 373.568 168.219ZM372.652 163.118C372.512 163.421 372.45 163.892 372.474 164.515C372.503 165.144 372.599 165.684 372.772 166.137C372.946 166.598 373.197 166.91 373.529 167.072C373.862 167.235 374.103 167.164 374.242 166.861C374.382 166.558 374.445 166.093 374.421 165.469C374.392 164.84 374.295 164.3 374.122 163.843C373.948 163.386 373.698 163.074 373.365 162.907C373.033 162.745 372.797 162.815 372.652 163.118Z" fill="white"/>
<path d="M378.404 166.778C378.52 166.62 378.573 166.431 378.563 166.224C378.559 166.014 378.496 165.811 378.385 165.618C378.269 165.425 378.125 165.289 377.951 165.201C377.638 165.047 377.349 165.183 377.089 165.605L376.173 164.502C376.39 164.168 376.636 163.949 376.901 163.852C377.171 163.76 377.517 163.813 377.951 164.028C378.385 164.243 378.771 164.595 379.108 165.1C379.445 165.601 379.624 166.145 379.648 166.738C379.662 167.059 379.609 167.336 379.489 167.564C379.373 167.797 379.142 168.056 378.809 168.342L377.947 169.071L379.923 170.038L379.971 171.29L376.448 169.559L376.409 168.527L377.802 167.367C378.086 167.134 378.289 166.941 378.404 166.778Z" fill="white"/>
<path d="M380.359 165.336L382.379 166.329L382.619 172.58L381.545 172.058L381.352 166.997L380.403 166.531L380.359 165.336Z" fill="white"/>
<path d="M363.317 95.9369C363.317 101.033 359.379 103.08 354.569 100.48L252.551 45.3925C247.736 42.7917 243.755 36.5006 243.692 31.4001L242.776 6.62211C242.709 1.52594 246.608 -0.534495 251.428 2.04874L354.55 57.2412C359.37 59.82 363.317 66.1067 363.317 71.2029V95.9369Z" fill="#3C5185"/>
<path d="M360.269 97.7892V73.0552C360.269 67.959 356.322 61.6723 351.503 59.0935L248.381 3.90102C246.675 2.98722 245.084 2.66653 243.745 2.84226C245.191 0.702743 248.082 0.254632 251.432 2.04708L354.553 57.2395C359.373 59.8184 363.32 66.1051 363.32 71.2012V95.9353C363.32 99.2083 361.691 101.216 359.253 101.545C359.898 100.605 360.269 99.34 360.269 97.7892Z" fill="url(#paint29_linear_4059_124173)"/>
<path d="M350.911 66.1457V69.735L249.823 16.6601V12.9258L350.911 66.1457Z" fill="#EDF3FA"/>
<path d="M350.911 76.1687V79.758L249.823 26.683V22.9531L350.911 76.1687Z" fill="#EDF3FA"/>
<path d="M350.911 86.1843V89.7736L249.823 36.6986V32.9688L350.911 86.1843Z" fill="#EDF3FA"/>
<path d="M51.0729 250.665V254.605C51.0729 255.686 51.6899 256.696 52.702 257.259L65.85 264.666C67.214 265.435 68.9346 265.443 70.3034 264.683L74.3278 262.605C75.123 262.193 75.6195 261.415 75.6146 260.58L75.6051 258.318C75.6051 258.318 75.0652 258.493 74.2459 258.041L65.4982 253.204V250.66H51.0729V250.665Z" fill="#3C5185"/>
<path d="M51.0729 248.469V252.41C51.0729 253.491 51.6899 254.501 52.702 255.064L65.8499 262.471C67.2139 263.239 68.9345 263.248 70.3033 262.488L74.2409 260.305C76.0772 259.294 76.0772 256.86 74.2409 255.846L65.4932 251.009V248.465H51.0729V248.469Z" fill="#5D7DBE"/>
<path d="M59.9263 256.036V255.245L64.9867 252.578L64.9964 253.303L59.9263 256.036Z" fill="white"/>
<path d="M61.8427 257.579V256.823L66.9034 254.156L66.9324 254.837L61.8427 257.579Z" fill="white"/>
<path d="M64.3762 259.2V258.44L69.4369 255.777L69.408 256.533L64.3762 259.2Z" fill="white"/>
<path d="M53.1803 251.151C50.3704 249.675 50.3704 247.258 53.1803 245.782C55.9853 244.302 60.5736 244.302 63.3834 245.782C66.1884 247.258 66.1884 249.675 63.3834 251.151C60.5736 252.627 55.9853 252.627 53.1803 251.151Z" fill="#3C5185"/>
<path d="M54.9137 250.241C53.0629 249.265 53.0629 247.675 54.9137 246.7C56.7693 245.72 59.7959 245.72 61.6467 246.7C63.4974 247.675 63.4974 249.265 61.6467 250.241C59.7959 251.216 56.7693 251.216 54.9137 250.241Z" fill="white"/>
<path d="M58.2952 250.631C56.4347 250.631 54.9261 249.256 54.9261 247.56V177.852C54.9261 176.152 56.4347 174.781 58.2952 174.781C60.1604 174.781 61.6642 176.156 61.6642 177.852V247.56C61.6642 249.251 60.1556 250.631 58.2952 250.631Z" fill="#F2B1B5"/>
<path d="M58.2827 248.066C55.1789 248.066 53.9305 245.777 53.9305 242.948L53.5353 221.671L44.4263 183.625C44.4263 180.796 55.1789 168.117 58.2827 168.117C61.3914 168.117 63.9024 170.41 63.9024 173.24L63.6663 221.095L62.6397 242.952C62.6397 245.772 61.3866 248.066 58.2827 248.066Z" fill="url(#paint30_linear_4059_124173)"/>
<path d="M73.2069 180.92C71.7803 180.92 70.4598 180.09 69.9972 178.785L61.0761 153.374L57.9578 127.951C57.7506 126.264 59.0808 124.743 60.9363 124.554C62.7871 124.366 64.4498 125.583 64.6571 127.265L67.703 152.083L76.4216 176.913C76.9854 178.526 76.0071 180.256 74.2383 180.775C73.8961 180.872 73.5539 180.92 73.2069 180.92Z" fill="#F2B1B5"/>
<path d="M64.1549 144.601C62.4102 144.698 60.8486 143.555 60.6076 141.947L58.4533 127.577C58.1978 125.895 59.4943 124.348 61.3353 124.115C63.2102 123.882 64.8825 125.064 65.1332 126.742L67.2876 141.113C67.5431 142.795 66.2513 144.342 64.4054 144.575C64.3186 144.588 64.2368 144.597 64.1549 144.601Z" fill="url(#paint31_linear_4059_124173)"/>
<path d="M33.7675 263.821V267.757C33.7675 268.838 34.3844 269.848 35.3917 270.411L48.5444 277.822C49.9035 278.586 51.6241 278.595 52.9929 277.835L57.0172 275.757C57.8173 275.344 58.3137 274.571 58.3089 273.736L58.2992 271.469C58.2992 271.469 57.7594 271.645 56.9353 271.193L48.1877 266.36V263.816H33.7675V263.821Z" fill="#3C5185"/>
<path d="M33.7675 261.625V265.562C33.7675 266.643 34.3844 267.653 35.3917 268.215L48.5445 275.627C49.9036 276.391 51.6242 276.4 52.993 275.64L56.9354 273.457C58.7717 272.446 58.7717 270.012 56.9306 268.997L48.183 264.165V261.621H33.7675V261.625Z" fill="#5D7DBE"/>
<path d="M42.6278 269.184V268.393L47.6835 265.727L47.6932 266.451L42.6278 269.184Z" fill="white"/>
<path d="M44.5217 270.723V269.967L49.5822 267.305L49.6111 267.981L44.5217 270.723Z" fill="white"/>
<path d="M47.0625 272.348V271.588L52.123 268.93L52.0989 269.685L47.0625 272.348Z" fill="white"/>
<path d="M35.8712 264.307C33.0662 262.831 33.0662 260.415 35.8712 258.939C38.6762 257.458 43.2694 257.458 46.0744 258.939C48.8794 260.415 48.8794 262.831 46.0744 264.307C43.2694 265.788 38.6762 265.788 35.8712 264.307Z" fill="#3C5185"/>
<path d="M37.5931 263.39C35.7424 262.414 35.7424 260.824 37.5931 259.849C39.4438 258.873 42.4753 258.873 44.3212 259.849C46.1767 260.824 46.1767 262.414 44.3212 263.39C42.4705 264.369 39.439 264.369 37.5931 263.39Z" fill="white"/>
<path d="M62.6608 101.225L61.9041 99.9906C61.4944 98.9231 60.1979 98.308 58.9545 98.2508C57.711 98.1981 56.5013 98.5935 55.3349 98.9801C53.2191 99.6787 51.0985 100.382 48.9778 101.085C44.8619 102.446 40.2062 104.331 39.0784 108.184C38.2977 110.864 39.5121 113.851 38.3844 116.426C38.0084 117.291 37.3868 118.056 37.0446 118.93C36.1385 121.232 37.3434 123.776 38.8037 125.823C39.276 126.473 39.8111 127.145 40.6015 127.435C41.9558 127.941 43.4931 127.159 44.4667 126.166C45.4354 125.168 46.1199 123.938 47.2477 123.095C49.0261 121.764 51.5805 121.636 53.4602 120.428C57.1616 118.038 56.8049 112.547 60.3232 109.937C61.4269 109.115 62.868 108.628 63.6729 107.556C65.0657 105.697 63.8657 103.193 62.6608 101.225Z" fill="url(#paint32_linear_4059_124173)"/>
<path d="M41.0695 263.93C39.2043 263.93 37.7006 262.555 37.7006 260.859V191.942C37.7006 190.246 39.2091 188.871 41.0695 188.871C42.9299 188.871 44.4384 190.246 44.4384 191.942V260.859C44.4432 262.555 42.9299 263.93 41.0695 263.93Z" fill="#F2B1B5"/>
<path d="M63.2564 175.285L62.3118 128.277L32.5941 143.241L35.5581 164.561L32.4929 181.343L32.3291 182.591C31.8953 182.995 31.5049 183.474 31.2446 184.155C31.1434 184.414 31.047 184.792 30.9458 185.24C30.218 188.685 30.6952 192.252 32.1845 195.485L33.7556 198.899L35.9245 228.373L36.7052 255.51C36.7052 258.181 37.5921 260.571 40.5127 260.826C43.8624 261.116 45.424 258.722 45.424 255.73L47.8867 229.182L53.5304 188.865L54.9811 188.157C60.167 185.622 63.3624 180.649 63.2564 175.285Z" fill="url(#paint33_linear_4059_124173)"/>
<path d="M75.4031 142.892C75.567 142.861 75.7261 142.8 75.8658 142.69L88.874 132.418C89.2884 132.093 89.3366 131.522 88.9752 131.144C88.6137 130.766 87.9919 130.727 87.5774 131.052L74.5646 141.319C74.1501 141.644 74.1068 142.215 74.4634 142.593C74.7092 142.852 75.0706 142.953 75.4031 142.892Z" fill="#3C5185"/>
<path d="M30.7684 137.1C30.7684 134.284 32.9566 130.827 35.6362 129.421L50.4902 121.605L58.4233 121.706C60.0234 121.728 61.5368 122.357 62.6067 123.442C63.5513 124.404 64.0766 125.647 64.0766 126.934V131.701L66.2455 139.218C66.6504 140.611 66.3466 142.1 65.4213 143.273L64.0766 144.982L64.4043 177.567C59.3341 175.282 38.2918 192.491 30.8118 187.913C29.8913 187.346 30.7684 183.849 30.7684 183.849C30.7684 183.331 30.8263 182.812 30.9276 182.298L33.1541 171.719C33.8096 167.115 33.8579 162.458 33.294 157.845L30.7684 137.1Z" fill="url(#paint34_linear_4059_124173)"/>
<path d="M47.4099 130.488C45.2507 130.488 43.5012 128.893 43.5012 126.92V114.29C43.5012 112.326 45.2459 110.727 47.4099 110.727C49.5738 110.727 51.3185 112.321 51.3185 114.29V126.92C51.3137 128.893 49.569 130.488 47.4099 130.488Z" fill="#F2B1B5"/>
<path d="M45.625 121.191H44.661V101.391H61.3128V106.895C61.308 114.79 54.2858 121.191 45.625 121.191Z" fill="#F2B1B5"/>
<path opacity="0.25" d="M64.1214 149.392L47.5949 160.124C47.4406 160.226 47.2768 160.243 47.0985 160.195C46.9201 160.146 46.7997 160.032 46.7515 159.874L39.5413 139.177C38.9774 137.561 35.2664 137.921 35.2664 137.921L40.3221 161.732C41.0257 163.753 42.7657 165.357 44.9683 166.029C45.7153 166.257 46.4913 166.367 47.272 166.367C48.7758 166.367 50.2602 165.946 51.5085 165.137L64.1744 156.909L64.1214 149.392Z" fill="#5D7DBE"/>
<path d="M49.5113 163.806C48.7401 163.806 47.9642 163.697 47.2075 163.468C45.0049 162.8 43.2698 161.192 42.5661 159.171L35.356 138.479C34.7921 136.863 35.7753 135.132 37.549 134.622C39.3178 134.108 41.2167 135 41.7806 136.617L48.9908 157.313C49.0486 157.471 49.1642 157.586 49.3377 157.634C49.5112 157.691 49.6799 157.669 49.8341 157.568L76.0915 140.505C77.6049 139.516 79.7111 139.841 80.7955 141.221C81.8751 142.6 81.5185 144.52 80.0051 145.508L53.7526 162.572C52.5043 163.385 51.015 163.806 49.5113 163.806Z" fill="#F2B1B5"/>
<path d="M43.6538 155.413C42.1356 155.413 40.7188 154.526 40.232 153.129L34.9834 138.064C34.3858 136.342 35.4317 134.497 37.321 133.952C39.2102 133.403 41.2343 134.356 41.8368 136.079L47.0804 151.139C47.6829 152.865 46.637 154.706 44.7478 155.255C44.3863 155.361 44.0201 155.413 43.6538 155.413Z" fill="url(#paint35_linear_4059_124173)"/>
<path d="M37.9772 133.621C37.7073 133.634 37.4421 133.669 37.1771 133.713C36.8445 133.766 36.5071 133.823 36.2228 133.986C35.7746 134.232 35.5192 134.671 35.2782 135.093C34.777 135.958 34.5938 136.872 34.0877 137.724C33.5961 138.542 33.0757 139.398 33.0371 140.352C32.9648 141.933 33.7696 143.554 33.4756 145.123C33.0755 144.644 32.5359 144.341 31.9141 144.125C29.9188 143.444 28.9066 142.118 28.574 140.18C28.174 137.905 28.4728 135.734 27.48 133.573C26.5113 131.46 26.545 129.127 27.0077 126.908C27.6728 123.754 29.2971 121.21 30.5212 118.271C31.5093 115.912 30.8682 113.566 31.6153 111.229C32.29 109.107 34.0828 107.306 34.9311 105.206C35.8372 102.961 36.2806 101.537 38.1747 99.7359C39.5869 98.3872 40.7437 96.6387 42.5896 95.7074C44.0499 94.9693 45.5006 95.1977 47.0333 94.9605C48.5996 94.7189 50.0358 94.1258 51.6745 94.0116C54.8892 93.7875 58.2244 94.363 61.0053 95.8787C63.2271 97.0912 64.3454 99.0989 62.3018 100.962C59.998 103.062 57.1833 102.737 54.2964 103.382C53.771 103.501 53.2409 103.703 52.8842 104.077C52.4697 104.516 52.3589 105.135 52.4312 105.711C52.6963 107.661 53.6361 108.808 51.5347 110.284C50.6961 110.873 49.7226 111.273 48.8792 111.853C48.0743 112.411 47.5056 113.113 47.3224 114.023C47.1634 114.814 47.3947 115.644 47.1393 116.422C46.8839 117.186 46.1079 117.586 45.6789 118.267C44.6475 119.905 45.433 122.102 44.4643 123.771C44.1799 124.255 43.7607 124.69 43.6643 125.23C43.5583 125.854 43.9101 126.456 44.2475 127.001C44.715 127.752 45.1824 128.499 45.6499 129.25C46.0452 129.887 46.4452 130.528 46.6283 131.24C46.8067 131.943 46.7682 132.677 46.6814 133.393C46.5609 134.337 46.344 135.291 45.862 136.134C45.5295 136.723 45.0572 137.263 44.4596 137.65C43.5439 138.243 43.1728 137.927 42.4691 137.21C41.11 135.831 40.7195 133.705 38.3049 133.621C38.194 133.617 38.0832 133.617 37.9772 133.621Z" fill="url(#paint36_linear_4059_124173)"/>
<path d="M61.0043 95.8724C58.4307 94.471 55.3751 93.8823 52.3869 93.9789C54.9606 94.0624 57.5295 94.6643 59.7465 95.8724C61.9683 97.085 63.0817 99.0927 61.0382 100.955C58.7344 103.055 55.9197 102.73 53.0327 103.376C52.5074 103.495 51.9772 103.697 51.6206 104.07C51.2109 104.51 51.0953 105.129 51.1676 105.705C51.4327 107.655 52.3725 108.802 50.2711 110.278C49.4325 110.867 48.459 111.266 47.6155 111.846C46.8106 112.404 46.2419 113.107 46.0588 114.017C45.8997 114.807 46.1311 115.638 45.8757 116.415C45.6202 117.18 44.8442 117.579 44.4153 118.26C43.3887 119.899 44.1694 122.096 43.2007 123.765C42.9163 124.248 42.4971 124.683 42.4007 125.224C42.2947 125.848 42.6465 126.449 42.9839 126.994C43.4562 127.745 43.9188 128.492 44.3863 129.244C44.7815 129.881 45.1816 130.522 45.3647 131.234C45.5479 131.937 45.5046 132.67 45.4178 133.386C45.2973 134.331 45.0804 135.284 44.5984 136.128C44.2659 136.716 43.7936 137.257 43.196 137.643C43.143 137.679 43.0947 137.701 43.0465 137.731C43.4466 138.026 43.8177 138.056 44.4587 137.643C45.0563 137.257 45.5286 136.716 45.8611 136.128C46.3431 135.284 46.56 134.331 46.6805 133.386C46.7721 132.67 46.8059 131.937 46.6276 131.234C46.4444 130.522 46.0444 129.876 45.6492 129.244C45.1817 128.492 44.7141 127.745 44.2466 126.994C43.9092 126.449 43.5525 125.843 43.6634 125.224C43.7598 124.683 44.1792 124.248 44.4635 123.765C45.4323 122.096 44.6466 119.899 45.678 118.26C46.1069 117.579 46.8829 117.18 47.1384 116.415C47.3938 115.638 47.1625 114.807 47.3215 114.017C47.5046 113.107 48.0734 112.404 48.8782 111.846C49.7217 111.262 50.6952 110.862 51.5338 110.278C53.6352 108.802 52.6905 107.655 52.4303 105.705C52.3532 105.129 52.4688 104.51 52.8833 104.07C53.2399 103.697 53.7701 103.495 54.2954 103.376C57.1872 102.735 60.0019 103.055 62.3009 100.955C64.3444 99.0971 63.2262 97.0893 61.0043 95.8724Z" fill="#FEC55E"/>
<path d="M79.1625 142.95C79.2878 142.844 79.3841 142.699 79.442 142.537L80.2614 139.883C80.4156 139.391 80.1119 138.873 79.5673 138.723C79.0227 138.574 78.4588 138.859 78.2997 139.356L77.4804 142.014C77.3214 142.506 77.6249 143.02 78.1695 143.169C78.531 143.266 78.9071 143.174 79.1625 142.95Z" fill="#F2B1B5"/>
<path d="M80.575 141.813C80.7003 141.703 80.7968 141.562 80.8498 141.4L81.669 138.742C81.8281 138.254 81.5244 137.736 80.9798 137.587C80.4352 137.437 79.8713 137.723 79.7122 138.219L78.8881 140.877C78.7339 141.365 79.0376 141.883 79.5822 142.033C79.9485 142.129 80.3244 142.037 80.575 141.813Z" fill="#F2B1B5"/>
<path d="M80.7954 144.779C80.9159 144.674 81.0074 144.542 81.0605 144.388L83.0462 138.009C83.1957 137.543 82.9015 137.047 82.3858 136.911C81.8701 136.775 81.3303 137.038 81.1809 137.513L79.1953 143.887C79.0459 144.353 79.3398 144.849 79.8555 144.986C80.1977 145.078 80.5592 144.99 80.7954 144.779Z" fill="#F2B1B5"/>
<path d="M75.2054 142.511C75.3885 142.418 75.5525 142.286 75.6729 142.115L77.5573 139.259C77.9139 138.737 77.7356 138.047 77.1572 137.717C76.5789 137.388 75.8223 137.551 75.4609 138.078L73.5765 140.929C73.2199 141.456 73.3981 142.146 73.9764 142.475C74.3668 142.695 74.8343 142.695 75.2054 142.511Z" fill="#F2B1B5"/>
<path d="M68.6325 178.526C68.7578 178.372 68.8494 178.192 68.8783 177.99L70.5315 171.853C70.6182 171.238 70.1459 170.675 69.4663 170.596C68.7916 170.513 68.1746 170.948 68.0879 171.567L66.4348 177.7C66.3481 178.315 66.8204 178.882 67.5 178.957C67.953 179.009 68.3723 178.834 68.6325 178.526Z" fill="#F2B1B5"/>
<path d="M76.0401 144.727C77.6 144.727 78.8645 143.574 78.8645 142.153C78.8645 140.731 77.6 139.578 76.0401 139.578C74.4803 139.578 73.2158 140.731 73.2158 142.153C73.2158 143.574 74.4803 144.727 76.0401 144.727Z" fill="#F2B1B5"/>
<path d="M133.608 374.441C132.523 374.481 131.424 374.165 130.528 373.488C122.503 367.399 117.751 358.815 117.134 349.316C116.522 339.818 120.142 330.781 127.323 323.879L128.162 323.071C129.882 321.415 132.75 321.345 134.567 322.913C136.384 324.481 136.466 327.1 134.74 328.756L133.902 329.564C128.456 334.792 125.718 341.637 126.181 348.833C126.644 356.029 130.248 362.527 136.321 367.135C138.244 368.598 138.504 371.204 136.904 372.957C136.051 373.892 134.842 374.397 133.608 374.441Z" fill="#F2B1B5"/>
<path d="M123.406 340.406C119.989 340.077 117.965 336.804 119.353 333.931C121.247 330.016 123.893 326.379 127.243 323.163L128.168 322.271C130.076 320.439 133.248 320.36 135.262 322.095C137.272 323.835 137.359 326.73 135.455 328.562L134.525 329.454C131.971 331.914 129.956 334.686 128.52 337.678C127.638 339.506 125.584 340.617 123.406 340.406Z" fill="white"/>
<path d="M106.526 435.941L85.0066 447.425L84.9969 449.424C84.9873 451.204 85.9946 452.855 87.6622 453.787L91.783 456.093C92.9252 456.735 94.3662 456.735 95.5133 456.098L112.218 447.188C113.837 446.288 114.83 444.684 114.83 442.949V440.677L106.526 435.941Z" fill="#3C5185"/>
<path d="M101.413 436.699L87.253 444.154C84.2359 445.819 84.2214 449.8 87.2288 451.482L91.0025 453.591C92.6267 454.501 94.6751 454.5 96.2993 453.595L112.31 445.073C115.732 443.166 115.655 438.61 112.17 436.805L111.722 436.572C108.517 434.911 104.57 434.959 101.413 436.699Z" fill="#3C5185"/>
<path d="M111.429 440.792C111.207 439.548 110.445 438.375 109.077 437.664L108.662 437.448C107.568 436.882 106.378 436.535 105.168 436.398C104.296 436.513 103.452 436.789 102.671 437.215L95.0514 441.266C93.0658 442.364 93.0562 444.992 95.037 446.099L97.5288 447.491C98.6036 448.089 99.9483 448.093 101.023 447.496L109.862 442.742C110.706 442.272 111.226 441.561 111.429 440.792Z" fill="#F2B1B5"/>
<path d="M125.3 445.262L103.781 456.741L103.771 458.74C103.761 460.52 104.774 462.171 106.436 463.103L110.557 465.409C111.704 466.051 113.145 466.051 114.288 465.414L130.992 456.508C132.617 455.603 133.605 454 133.605 452.265V449.993L125.3 445.262Z" fill="#3C5185"/>
<path d="M120.178 446.019L106.018 453.479C103.005 455.139 102.986 459.12 105.994 460.802L109.772 462.911C111.396 463.82 113.44 463.82 115.064 462.915L131.075 454.392C134.501 452.486 134.424 447.93 130.94 446.124L130.492 445.896C127.282 444.231 123.339 444.279 120.178 446.019Z" fill="#3C5185"/>
<path d="M130.202 450.108C129.981 448.865 129.219 447.692 127.851 446.984L127.436 446.765C126.342 446.198 125.152 445.851 123.942 445.715C123.074 445.829 122.226 446.106 121.445 446.532L113.83 450.582C111.84 451.681 111.83 454.308 113.811 455.415L116.303 456.808C117.378 457.405 118.722 457.409 119.797 456.812L128.636 452.059C129.475 451.589 130 450.877 130.202 450.108Z" fill="#F2B1B5"/>
<path d="M107.157 443.573C104.646 443.573 102.621 441.723 102.621 439.443V412.688C102.621 410.404 104.651 408.559 107.157 408.559C109.663 408.559 111.687 410.408 111.687 412.688V439.443C111.692 441.723 109.663 443.573 107.157 443.573Z" fill="#F2B1B5"/>
<path opacity="0.3" d="M103.637 439.436V412.681C103.637 410.559 105.401 408.828 107.661 408.595C107.493 408.578 107.329 408.547 107.155 408.547C104.644 408.547 102.62 410.396 102.62 412.677V439.431C102.62 441.716 104.649 443.561 107.155 443.561C107.329 443.561 107.493 443.53 107.661 443.513C105.401 443.289 103.637 441.562 103.637 439.436Z" fill="#EF9EA3"/>
<path d="M125.892 452.943C123.386 452.943 121.362 451.094 121.362 448.814V409.665C121.362 407.376 123.391 405.531 125.892 405.531C128.393 405.531 130.427 407.381 130.427 409.665V448.814C130.427 451.094 128.393 452.943 125.892 452.943Z" fill="#F2B1B5"/>
<path d="M138.218 352.469L129.48 374.549L114.091 382.062C107.189 385.739 101.145 390.356 101.145 401.704C101.145 401.704 100.841 404.863 100.692 408.869C100.417 416.272 126.776 418.908 132.545 421.039C135.499 422.133 136.304 408.628 136.304 408.628C136.304 408.628 136.531 405.012 141.909 402.187L160.041 392.658C171.338 386.736 171.353 371.882 160.065 365.943L138.218 352.469Z" fill="url(#paint37_linear_4059_124173)"/>
<path opacity="0.15" d="M102.72 408.869C102.87 404.863 103.178 401.704 103.178 401.704C103.178 390.356 109.217 385.739 116.124 382.062L131.513 374.549L139.846 353.479L138.203 352.469L129.464 374.549L114.075 382.062C107.174 385.739 101.13 390.356 101.13 401.704C101.13 401.704 100.826 404.863 100.677 408.869C100.402 416.272 126.761 418.908 132.53 421.039C132.93 421.188 133.287 421.052 133.614 420.735C126.38 418.653 102.465 415.925 102.72 408.869Z" fill="#EF9EA3"/>
<path d="M100.686 390.252V390.858C100.686 391.179 100.869 391.473 101.178 391.635L120.794 401.942C121.507 402.316 122.678 402.316 123.387 401.942L153.91 385.929C154.3 385.722 154.546 385.34 154.546 384.927V384.69L134.467 374.137C133.759 373.764 132.592 373.759 131.879 374.137L100.686 390.252Z" fill="#D1E1F2"/>
<path d="M101.218 389.593C100.509 389.967 100.509 390.582 101.218 390.96L120.795 401.262C121.508 401.635 122.679 401.635 123.388 401.262L154.046 385.187C154.754 384.814 154.759 384.199 154.046 383.821L134.463 373.461C133.755 373.088 132.589 373.084 131.875 373.461L101.218 389.593Z" fill="white"/>
<path d="M106.705 388.248L125.906 398.427L150.12 385.735L130.923 375.508L106.705 388.248Z" fill="url(#paint38_linear_4059_124173)"/>
<path d="M115.331 395.58C115.263 395.58 115.205 395.563 115.143 395.532L111.032 393.37C110.853 393.278 110.791 393.067 110.897 392.905C111.003 392.742 111.224 392.685 111.403 392.782L115.519 394.943C115.697 395.035 115.76 395.246 115.654 395.409C115.581 395.514 115.456 395.58 115.331 395.58Z" fill="#3C5185"/>
<path d="M122.696 300.01L123.071 298.406C123.129 297.093 124.344 296.012 125.698 295.568C127.057 295.125 128.547 295.186 129.988 295.256C132.6 295.379 135.212 295.502 137.824 295.625C142.895 295.863 148.77 296.508 151.454 300.436C153.324 303.169 153.088 306.855 155.296 309.363C156.033 310.207 157.006 310.861 157.715 311.727C159.58 314.007 159.199 317.192 158.332 319.92C158.057 320.79 157.71 321.695 156.944 322.266C155.633 323.246 153.633 322.859 152.187 322.055C150.741 321.251 149.522 320.096 147.955 319.507C145.483 318.58 142.601 319.235 140.061 318.475C135.072 316.968 133.41 310.765 128.537 308.963C127.009 308.392 125.221 308.3 123.934 307.36C121.693 305.721 122.088 302.567 122.696 300.01Z" fill="#3C5185"/>
<path d="M166.921 333.655C165.393 330.018 161.138 325.431 157.436 323.485L144.438 316.645L135.237 316.768C133.381 316.79 131.622 317.519 130.384 318.775C129.285 319.891 128.677 322.479 128.677 323.973V328.357L126.162 337.078C125.694 338.694 126.046 340.425 127.116 341.783L128.783 343.992C131.791 347.977 133.227 352.77 132.866 357.594L131.743 372.461C138.765 385.452 169.321 373.985 169.321 373.985C166.275 353.412 173.37 348.979 166.921 333.655Z" fill="white"/>
<path opacity="0.15" d="M133.786 372.461L134.904 357.594C135.266 352.77 133.83 347.982 130.827 343.992L129.159 341.783C128.085 340.421 127.733 338.694 128.2 337.078L130.721 328.357V323.973C130.721 322.479 131.323 319.891 132.422 318.775C133.666 317.519 135.42 316.79 137.276 316.768L144.491 316.671L144.438 316.645L135.237 316.768C133.381 316.79 131.622 317.519 130.384 318.775C129.285 319.891 128.678 322.479 128.678 323.973V328.357L126.162 337.078C125.694 338.694 126.046 340.425 127.116 341.783L128.784 343.992C131.791 347.977 133.227 352.77 132.866 357.594L131.743 372.461C134.422 377.412 140.514 378.805 147.035 378.638C141.31 378.471 136.182 376.894 133.786 372.461Z" fill="#7EA7DF"/>
<path d="M148.023 326.955C150.529 326.955 152.553 325.101 152.553 322.821V308.165C152.553 305.88 150.524 304.035 148.023 304.035C145.521 304.035 143.488 305.885 143.488 308.165V322.821C143.483 325.101 145.517 326.955 148.023 326.955Z" fill="#F2B1B5"/>
<path d="M150.094 316.587L142.715 294.621L124.241 299.783L125.962 304.91C129.09 314.206 139.895 319.439 150.094 316.587Z" fill="#F2B1B5"/>
<path opacity="0.33" d="M144.133 376.432L141.41 378.291C146.553 379.103 152.625 378.352 157.821 377.245C168.164 365.686 170.781 349.357 163.691 335.391C162.51 333.062 158.703 339.142 158.703 339.142C165.282 352.098 156.683 367.874 144.133 376.432Z" fill="#7EA7DF"/>
<path d="M142.698 385.249C141.29 385.376 139.83 384.911 138.813 383.869C137.122 382.139 137.295 379.494 139.189 377.952L147.985 370.804C158.53 362.242 161.099 347.906 154.091 336.725C152.833 334.718 153.595 332.156 155.802 331.01C158.005 329.854 160.815 330.557 162.073 332.565C171.22 347.164 167.871 365.879 154.101 377.06L145.305 384.208C144.553 384.823 143.638 385.17 142.698 385.249Z" fill="#F2B1B5"/>
<path d="M162.232 350.749C159.668 350.644 157.576 348.913 157.137 346.611C156.448 343.013 155.089 339.481 153.021 336.181C151.532 333.805 152.438 330.782 155.041 329.429C157.643 328.067 160.964 328.897 162.449 331.27C165.138 335.562 166.907 340.149 167.803 344.823C168.42 347.991 165.76 350.89 162.232 350.749Z" fill="white"/>
<path d="M162.794 337.92C164.153 337.902 165.512 338.152 166.76 338.644C167.917 339.106 169.122 339.795 170.346 339.51C171.999 339.123 172.558 337.287 172.838 335.758C173.074 334.427 173.31 333.061 172.968 331.756C172.52 330.029 171.151 328.659 170.076 327.182C168.515 325.034 167.536 322.534 167.247 319.973C167.03 318.04 167.204 316.076 166.968 314.143C166.693 311.872 165.57 310.391 164.317 308.529C162.832 306.31 162.403 303.661 160.842 301.486C159.304 299.347 156.644 297.906 154.918 295.837C153.073 293.627 152.051 292.186 149.28 290.771C147.207 289.717 145.27 288.131 142.879 287.674C140.985 287.309 139.457 288.008 137.679 288.219C135.842 288.438 134.026 288.228 132.165 288.605C128.522 289.352 125.037 291.03 122.516 293.57C120.502 295.604 120.01 298.178 122.974 299.61C126.314 301.223 129.312 299.993 132.758 299.817C133.389 299.782 134.054 299.843 134.585 300.146C136.021 300.972 135.37 304.285 135.765 305.721C136.189 307.233 137.023 308.696 138.378 309.645C139.578 310.484 141.082 310.853 142.494 311.345C143.906 311.832 145.347 312.535 146.065 313.744C147.414 316.006 145.689 318.752 145.761 321.326C145.805 322.859 146.537 324.358 147.752 325.416C148.571 326.128 149.607 326.655 150.224 327.521C150.851 328.395 150.957 329.485 151.092 330.521C151.27 331.896 151.526 333.285 152.085 334.572C153.251 337.247 155.444 338.539 158.683 338.385C159.849 338.328 160.991 338.051 162.153 337.964C162.374 337.933 162.582 337.924 162.794 337.92Z" fill="#3C5185"/>
<path d="M140.166 377.758L133.389 383.513C132.864 383.957 132.85 384.708 133.36 385.169C133.838 385.6 134.599 385.613 135.096 385.2L141.896 379.502L140.166 377.758Z" fill="#F2B1B5"/>
<path d="M147.4 375.52L137.235 376.881C136.45 376.983 135.92 377.668 136.064 378.375C136.204 379.043 136.893 379.496 137.631 379.399L147.776 378.103L147.4 375.52Z" fill="#F2B1B5"/>
<path d="M133.608 374.443C132.524 374.483 131.425 374.167 130.529 373.486C120.778 366.088 115.843 354.806 117.328 343.304C117.627 341.042 119.227 341.542 121.723 341.819C124.21 342.087 126.625 342.008 126.331 344.275C125.208 352.987 128.943 361.536 136.322 367.142C138.245 368.601 138.505 371.206 136.905 372.959C136.052 373.894 134.842 374.4 133.608 374.443Z" fill="#F2B1B5"/>
<path d="M128.757 365.35L137.62 367.349C138.304 367.503 138.989 367.107 139.128 366.479C139.259 365.886 138.859 365.302 138.222 365.157L129.398 363.109L128.757 365.35Z" fill="#F2B1B5"/>
<path d="M127.141 369.966L132.853 376.464C133.291 376.965 134.106 377.031 134.636 376.605C135.137 376.209 135.2 375.528 134.79 375.049L129.142 368.543L127.141 369.966Z" fill="#F2B1B5"/>
<path d="M130.013 369.611L135.719 376.108C136.162 376.609 136.972 376.675 137.502 376.254C138.003 375.854 138.071 375.173 137.661 374.698L132.013 368.188L130.013 369.611Z" fill="#F2B1B5"/>
<path d="M132.531 368.942L138.237 375.44C138.681 375.941 139.49 376.011 140.02 375.585C140.522 375.19 140.589 374.504 140.179 374.03L134.531 367.523L132.531 368.942Z" fill="#F2B1B5"/>
<path d="M132.538 367.305L139.315 372.884C139.84 373.315 140.65 373.257 141.103 372.765C141.527 372.304 141.474 371.614 140.987 371.21L134.259 365.613L132.538 367.305Z" fill="#F2B1B5"/>
<defs>
<radialGradient id="paint0_radial_4059_124173" cx="0" cy="0" r="1" gradientUnits="userSpaceOnUse" gradientTransform="translate(219.748 400.454) scale(193.007 90.9913)">
<stop offset="0.0913" stop-color="#48486A"/>
<stop offset="0.1179" stop-color="#505070"/>
<stop offset="0.3508" stop-color="#8D8DA3"/>
<stop offset="0.5638" stop-color="#BEBECA"/>
<stop offset="0.7497" stop-color="#E2E2E7"/>
<stop offset="0.9014" stop-color="#F7F7F9"/>
<stop offset="1" stop-color="white"/>
</radialGradient>
<linearGradient id="paint1_linear_4059_124173" x1="70.0633" y1="388.566" x2="366.149" y2="388.566" gradientUnits="userSpaceOnUse">
<stop offset="0.0038" stop-color="#A5CBEF"/>
<stop offset="0.4419" stop-color="#CEE3F6"/>
<stop offset="1" stop-color="white"/>
</linearGradient>
<linearGradient id="paint2_linear_4059_124173" x1="252.676" y1="196.398" x2="189.645" y2="285.304" gradientUnits="userSpaceOnUse">
<stop stop-color="#3C5185"/>
<stop offset="1" stop-color="#7EA7DF"/>
</linearGradient>
<linearGradient id="paint3_linear_4059_124173" x1="149.495" y1="316.966" x2="180.381" y2="277.6" gradientUnits="userSpaceOnUse">
<stop stop-color="#7EA7DF"/>
<stop offset="1" stop-color="#3C5185"/>
</linearGradient>
<linearGradient id="paint4_linear_4059_124173" x1="218.095" y1="299.792" x2="322.904" y2="299.792" gradientUnits="userSpaceOnUse">
<stop stop-color="#7EA7DF"/>
<stop offset="1" stop-color="#3C5185"/>
</linearGradient>
<linearGradient id="paint5_linear_4059_124173" x1="218.095" y1="322.322" x2="366.141" y2="322.322" gradientUnits="userSpaceOnUse">
<stop offset="0.1499" stop-color="#FF9800"/>
<stop offset="1" stop-color="#FFC107"/>
</linearGradient>
<linearGradient id="paint6_linear_4059_124173" x1="314.83" y1="334.575" x2="346.68" y2="334.575" gradientUnits="userSpaceOnUse">
<stop stop-color="#5D7DBE"/>
<stop offset="0.3052" stop-color="#5573B1"/>
<stop offset="0.872" stop-color="#41588E"/>
<stop offset="1" stop-color="#3C5185"/>
</linearGradient>
<linearGradient id="paint7_linear_4059_124173" x1="331.924" y1="356.33" x2="385.797" y2="356.33" gradientUnits="userSpaceOnUse">
<stop stop-color="#5D7DBE"/>
<stop offset="0.3052" stop-color="#5573B1"/>
<stop offset="0.872" stop-color="#41588E"/>
<stop offset="1" stop-color="#3C5185"/>
</linearGradient>
<linearGradient id="paint8_linear_4059_124173" x1="316.418" y1="364.351" x2="370.285" y2="364.351" gradientUnits="userSpaceOnUse">
<stop stop-color="#5D7DBE"/>
<stop offset="0.3052" stop-color="#5573B1"/>
<stop offset="0.872" stop-color="#41588E"/>
<stop offset="1" stop-color="#3C5185"/>
</linearGradient>
<linearGradient id="paint9_linear_4059_124173" x1="341.176" y1="335.546" x2="376.631" y2="335.546" gradientUnits="userSpaceOnUse">
<stop stop-color="#D3DAED"/>
<stop offset="1" stop-color="#99A7D8"/>
</linearGradient>
<radialGradient id="paint10_radial_4059_124173" cx="0" cy="0" r="1" gradientUnits="userSpaceOnUse" gradientTransform="translate(402.721 286.45) scale(26.8169 12.6427)">
<stop offset="0.0913" stop-color="#3C5185"/>
<stop offset="0.2537" stop-color="#6F7FA5"/>
<stop offset="0.4365" stop-color="#A2ACC5"/>
<stop offset="0.6088" stop-color="#CAD0DE"/>
<stop offset="0.7654" stop-color="#E7EAF0"/>
<stop offset="0.9009" stop-color="#F9F9FB"/>
<stop offset="1" stop-color="white"/>
</radialGradient>
<linearGradient id="paint11_linear_4059_124173" x1="383.4" y1="285.724" x2="421.364" y2="285.724" gradientUnits="userSpaceOnUse">
<stop stop-color="#3C5185"/>
<stop offset="0.128" stop-color="#41588E"/>
<stop offset="0.6948" stop-color="#5573B1"/>
<stop offset="1" stop-color="#5D7DBE"/>
</linearGradient>
<radialGradient id="paint12_radial_4059_124173" cx="0" cy="0" r="1" gradientUnits="userSpaceOnUse" gradientTransform="translate(446.82 341.798) scale(29.0223 13.6824)">
<stop offset="0.0913" stop-color="#3C5185"/>
<stop offset="0.2537" stop-color="#6F7FA5"/>
<stop offset="0.4365" stop-color="#A2ACC5"/>
<stop offset="0.6088" stop-color="#CAD0DE"/>
<stop offset="0.7654" stop-color="#E7EAF0"/>
<stop offset="0.9009" stop-color="#F9F9FB"/>
<stop offset="1" stop-color="white"/>
</radialGradient>
<linearGradient id="paint13_linear_4059_124173" x1="425.895" y1="341.013" x2="466.979" y2="341.013" gradientUnits="userSpaceOnUse">
<stop stop-color="#FFC107"/>
<stop offset="0.8501" stop-color="#FF9800"/>
</linearGradient>
<linearGradient id="paint14_linear_4059_124173" x1="425.901" y1="336.018" x2="466.986" y2="336.018" gradientUnits="userSpaceOnUse">
<stop offset="0.1499" stop-color="#FF9800"/>
<stop offset="1" stop-color="#FFC107"/>
</linearGradient>
<radialGradient id="paint15_radial_4059_124173" cx="0" cy="0" r="1" gradientUnits="userSpaceOnUse" gradientTransform="translate(30.0388 335.055) scale(29.8652 14.0798)">
<stop offset="0.0913" stop-color="#3C5185"/>
<stop offset="0.2537" stop-color="#6F7FA5"/>
<stop offset="0.4365" stop-color="#A2ACC5"/>
<stop offset="0.6088" stop-color="#CAD0DE"/>
<stop offset="0.7654" stop-color="#E7EAF0"/>
<stop offset="0.9009" stop-color="#F9F9FB"/>
<stop offset="1" stop-color="white"/>
</radialGradient>
<linearGradient id="paint16_linear_4059_124173" x1="8.50554" y1="334.248" x2="50.7808" y2="334.248" gradientUnits="userSpaceOnUse">
<stop stop-color="#FFC107"/>
<stop offset="0.8501" stop-color="#FF9800"/>
</linearGradient>
<linearGradient id="paint17_linear_4059_124173" x1="8.50541" y1="329.102" x2="50.7855" y2="329.102" gradientUnits="userSpaceOnUse">
<stop offset="0.1499" stop-color="#FF9800"/>
<stop offset="1" stop-color="#FFC107"/>
</linearGradient>
<radialGradient id="paint18_radial_4059_124173" cx="0" cy="0" r="1" gradientUnits="userSpaceOnUse" gradientTransform="translate(136.486 186.478) scale(34.829 16.42)">
<stop offset="0.0913" stop-color="#3C5185"/>
<stop offset="0.2537" stop-color="#6F7FA5"/>
<stop offset="0.4365" stop-color="#A2ACC5"/>
<stop offset="0.6088" stop-color="#CAD0DE"/>
<stop offset="0.7654" stop-color="#E7EAF0"/>
<stop offset="0.9009" stop-color="#F9F9FB"/>
<stop offset="1" stop-color="white"/>
</radialGradient>
<linearGradient id="paint19_linear_4059_124173" x1="111.392" y1="185.537" x2="160.703" y2="185.537" gradientUnits="userSpaceOnUse">
<stop stop-color="#3C5185"/>
<stop offset="0.128" stop-color="#41588E"/>
<stop offset="0.6948" stop-color="#5573B1"/>
<stop offset="1" stop-color="#5D7DBE"/>
</linearGradient>
<linearGradient id="paint20_linear_4059_124173" x1="192.232" y1="190.889" x2="215.328" y2="190.889" gradientUnits="userSpaceOnUse">
<stop stop-color="#5D7DBE"/>
<stop offset="0.0028" stop-color="#5D7DBE"/>
<stop offset="0.4117" stop-color="#4B659F"/>
<stop offset="0.7585" stop-color="#40568C"/>
<stop offset="1" stop-color="#3C5185"/>
</linearGradient>
<linearGradient id="paint21_linear_4059_124173" x1="195.525" y1="197.916" x2="233.037" y2="197.916" gradientUnits="userSpaceOnUse">
<stop stop-color="#5D7DBE"/>
<stop offset="0.3052" stop-color="#5573B1"/>
<stop offset="0.872" stop-color="#41588E"/>
<stop offset="1" stop-color="#3C5185"/>
</linearGradient>
<linearGradient id="paint22_linear_4059_124173" x1="187.766" y1="92.062" x2="186.519" y2="81.6921" gradientUnits="userSpaceOnUse">
<stop stop-color="#3C5185"/>
<stop offset="0.2415" stop-color="#40568C"/>
<stop offset="0.5883" stop-color="#4B659F"/>
<stop offset="0.9972" stop-color="#5D7DBE"/>
<stop offset="1" stop-color="#5D7DBE"/>
</linearGradient>
<linearGradient id="paint23_linear_4059_124173" x1="409.755" y1="244.097" x2="340.512" y2="83.9217" gradientUnits="userSpaceOnUse">
<stop offset="0.0038" stop-color="#3C5185"/>
<stop offset="1" stop-color="#5D7DBE"/>
</linearGradient>
<linearGradient id="paint24_linear_4059_124173" x1="412.357" y1="177.597" x2="253.551" y2="177.597" gradientUnits="userSpaceOnUse">
<stop offset="0.1499" stop-color="#FF9800"/>
<stop offset="1" stop-color="#FFC107"/>
</linearGradient>
<linearGradient id="paint25_linear_4059_124173" x1="472.626" y1="192.405" x2="434.18" y2="138.456" gradientUnits="userSpaceOnUse">
<stop offset="0.1499" stop-color="#FF9800"/>
<stop offset="1" stop-color="#FFC107"/>
</linearGradient>
<linearGradient id="paint26_linear_4059_124173" x1="487.82" y1="150.738" x2="367.563" y2="150.738" gradientUnits="userSpaceOnUse">
<stop offset="0.0038" stop-color="#3C5185"/>
<stop offset="1" stop-color="#5D7DBE"/>
</linearGradient>
<linearGradient id="paint27_linear_4059_124173" x1="415.57" y1="267.288" x2="500.496" y2="267.288" gradientUnits="userSpaceOnUse">
<stop offset="0.1499" stop-color="#FF9800"/>
<stop offset="1" stop-color="#FFC107"/>
</linearGradient>
<linearGradient id="paint28_linear_4059_124173" x1="415.722" y1="243.02" x2="500.503" y2="243.02" gradientUnits="userSpaceOnUse">
<stop stop-color="#5D7DBE"/>
<stop offset="0.9962" stop-color="#3C5185"/>
</linearGradient>
<linearGradient id="paint29_linear_4059_124173" x1="243.745" y1="51.2427" x2="363.319" y2="51.2427" gradientUnits="userSpaceOnUse">
<stop offset="0.0038" stop-color="#3C5185"/>
<stop offset="1" stop-color="#5D7DBE"/>
</linearGradient>
<linearGradient id="paint30_linear_4059_124173" x1="44.4239" y1="208.087" x2="63.9" y2="208.087" gradientUnits="userSpaceOnUse">
<stop stop-color="#5D7DBE"/>
<stop offset="0.3052" stop-color="#5573B1"/>
<stop offset="0.872" stop-color="#41588E"/>
<stop offset="1" stop-color="#3C5185"/>
</linearGradient>
<linearGradient id="paint31_linear_4059_124173" x1="58.419" y1="134.347" x2="67.3189" y2="134.347" gradientUnits="userSpaceOnUse">
<stop stop-color="#A8D9FB"/>
<stop offset="1" stop-color="white"/>
</linearGradient>
<linearGradient id="paint32_linear_4059_124173" x1="36.726" y1="112.924" x2="64.2975" y2="112.924" gradientUnits="userSpaceOnUse">
<stop offset="0.1499" stop-color="#FF9800"/>
<stop offset="1" stop-color="#FFC107"/>
</linearGradient>
<linearGradient id="paint33_linear_4059_124173" x1="30.6152" y1="194.567" x2="63.2603" y2="194.567" gradientUnits="userSpaceOnUse">
<stop stop-color="#5D7DBE"/>
<stop offset="0.3052" stop-color="#5573B1"/>
<stop offset="0.872" stop-color="#41588E"/>
<stop offset="1" stop-color="#3C5185"/>
</linearGradient>
<linearGradient id="paint34_linear_4059_124173" x1="30.3901" y1="155.145" x2="66.4147" y2="155.145" gradientUnits="userSpaceOnUse">
<stop stop-color="#A8D9FB"/>
<stop offset="1" stop-color="white"/>
</linearGradient>
<linearGradient id="paint35_linear_4059_124173" x1="34.8167" y1="144.605" x2="47.2515" y2="144.605" gradientUnits="userSpaceOnUse">
<stop stop-color="#A8D9FB"/>
<stop offset="1" stop-color="white"/>
</linearGradient>
<linearGradient id="paint36_linear_4059_124173" x1="26.6891" y1="119.536" x2="63.3727" y2="119.536" gradientUnits="userSpaceOnUse">
<stop offset="0.1499" stop-color="#FF9800"/>
<stop offset="1" stop-color="#FFC107"/>
</linearGradient>
<linearGradient id="paint37_linear_4059_124173" x1="100.694" y1="386.784" x2="168.527" y2="386.784" gradientUnits="userSpaceOnUse">
<stop stop-color="#5D7DBE"/>
<stop offset="0.3052" stop-color="#5573B1"/>
<stop offset="0.872" stop-color="#41588E"/>
<stop offset="1" stop-color="#3C5185"/>
</linearGradient>
<linearGradient id="paint38_linear_4059_124173" x1="106.707" y1="386.969" x2="150.121" y2="386.969" gradientUnits="userSpaceOnUse">
<stop offset="0.1499" stop-color="#FF9800"/>
<stop offset="1" stop-color="#FFC107"/>
</linearGradient>
</defs>
</svg>
