<svg width="24" height="24" viewBox="0 0 24 24" fill="none" xmlns="http://www.w3.org/2000/svg">
<g clip-path="url(#clip0_1383_33201)">
<path d="M16.0215 5.86771C16.2961 6.14231 16.7413 6.14231 17.0159 5.86771C17.2905 5.59317 17.2905 5.14795 17.0159 4.87335L16.71 4.5674H20.3343V9.13617C20.3689 10.0681 21.7063 10.0674 21.7406 9.13617V3.86432C21.7406 3.47601 21.4258 3.1612 21.0375 3.1612H16.71L17.0159 2.85524C17.2905 2.5807 17.2905 2.13548 17.0159 1.86088C16.7413 1.58629 16.2961 1.58629 16.0215 1.86088L14.5153 3.36712C14.2407 3.64167 14.2407 4.08693 14.5153 4.36148L16.0215 5.86771ZM6.35156 0.148682C2.8493 0.148682 0 2.99798 0 6.50024C0.319312 14.9149 12.3851 14.9126 12.7031 6.50015C12.7031 2.99798 9.85383 0.148682 6.35156 0.148682ZM7.05469 9.53564V9.70101C7.02009 10.6329 5.6827 10.6322 5.64844 9.70101V9.53667C5.32442 9.42815 5.03016 9.24559 4.78903 9.00346C4.51463 8.72873 4.51486 8.28351 4.78959 8.0091C5.06437 7.7347 5.5095 7.73493 5.78395 8.00967C6.23423 8.47171 7.04086 8.20776 7.14258 7.58095C6.93211 7.44749 6.4342 7.27378 6.11995 7.16413C5.24752 6.85973 4.1422 6.4972 4.1422 5.55881C4.1422 4.58639 4.77398 3.75923 5.64844 3.46481V3.29943C5.68303 2.36751 7.02042 2.36821 7.05469 3.29943V3.46378C7.37871 3.57229 7.67297 3.75486 7.91409 3.99698C8.1885 4.27171 8.18827 4.71693 7.91353 4.99134C7.63875 5.26574 7.19362 5.26551 6.91917 4.99078C6.46889 4.52873 5.66227 4.79268 5.56055 5.41949C5.77102 5.55295 6.26892 5.72667 6.58317 5.83631C7.45561 6.14071 8.56092 6.50324 8.56092 7.44164C8.56092 8.4141 7.92914 9.24121 7.05469 9.53564ZM7.97845 18.4297C7.70386 18.1551 7.25869 18.1551 6.98409 18.4297C6.7095 18.7042 6.7095 19.1494 6.98409 19.424L7.29005 19.73H3.66562V15.1612C3.63103 14.2293 2.29364 14.23 2.25938 15.1612V20.4331C2.25938 20.8214 2.57419 21.1362 2.9625 21.1362H7.29L6.98405 21.4422C6.70945 21.7167 6.70945 22.1619 6.98405 22.4365C7.25864 22.7111 7.70381 22.7111 7.97841 22.4365L9.48464 20.9303C9.75923 20.6557 9.75923 20.2105 9.48464 19.9359L7.97845 18.4297ZM18 9.79223C17.8931 9.73051 17.7719 9.69801 17.6484 9.69801C17.525 9.69801 17.4038 9.73051 17.2969 9.79223L12 12.8503L17.6484 16.1114L23.2969 12.8504L18 9.79223ZM18.3516 17.3293V23.8515L23.6484 20.7934C23.7553 20.7317 23.8441 20.6429 23.9058 20.5361C23.9675 20.4292 24 20.3079 24 20.1845V14.0682L18.3516 17.3293ZM11.2969 20.1845C11.2969 20.3079 11.3294 20.4292 11.3911 20.5361C11.4528 20.643 11.5415 20.7317 11.6484 20.7934L16.9453 23.8515V17.3293L11.2969 14.0682V20.1845Z" fill="#667085"/>
</g>
<defs>
<clipPath id="clip0_1383_33201">
<rect width="24" height="24" fill="white"/>
</clipPath>
</defs>
</svg>
