<svg width="24" height="24" viewBox="0 0 24 24" fill="none" xmlns="http://www.w3.org/2000/svg">
<g clip-path="url(#clip0_1383_33212)">
<path d="M23.2969 22.5938H0.703125C0.314484 22.5938 0 22.9082 0 23.2969C0 23.6855 0.314484 24 0.703125 24H23.2969C23.6855 24 24 23.6855 24 23.2969C24 22.9082 23.6855 22.5938 23.2969 22.5938ZM9.50198 10.0117C9.23147 9.87638 8.90461 9.92719 8.69039 10.1435L3.06539 15.7685C2.79075 16.0431 2.79075 16.4881 3.06539 16.7627C3.34003 17.0374 3.78497 17.0374 4.05966 16.7627L9.32625 11.4961L14.4981 14.082C14.7892 14.2269 15.1435 14.1528 15.3529 13.9035L21.1406 6.95831V7.82812C21.1406 8.21677 21.4551 8.53125 21.8438 8.53125C22.2324 8.53125 22.5469 8.21677 22.5469 7.82812C22.5463 7.53773 22.5486 8.88014 22.5405 4.98792C22.5223 4.53155 22.0612 4.23112 21.6735 4.33383L18.861 5.03695C18.484 5.13103 18.2547 5.51278 18.3495 5.88909C18.4435 6.26677 18.8226 6.49336 19.2016 6.40064L19.9244 6.22022L14.6292 12.5749L9.50198 10.0117ZM4.92188 9.84375C7.63552 9.84375 9.84375 7.63552 9.84375 4.92188C9.84375 2.20823 7.63552 0 4.92188 0C2.20823 0 0 2.20823 0 4.92188C0 7.63552 2.20823 9.84375 4.92188 9.84375ZM4.21875 3.51562C4.21875 3.12698 4.53323 2.8125 4.92188 2.8125C5.31052 2.8125 5.625 3.12698 5.625 3.51562V4.21875H6.32812C6.71677 4.21875 7.03125 4.53323 7.03125 4.92188C7.03125 5.31052 6.71677 5.625 6.32812 5.625H4.92188C4.53323 5.625 4.21875 5.31052 4.21875 4.92188V3.51562ZM2.15625 18.375C1.76761 18.375 1.45312 18.6895 1.45312 19.0781V21.1875H5.67188V19.0781C5.67188 18.6895 5.35739 18.375 4.96875 18.375H2.15625Z" fill="#667085"/>
<path d="M7.78125 15.5625C7.39261 15.5625 7.07812 15.877 7.07812 16.2656V21.1875H11.2969V16.2656C11.2969 15.877 10.9824 15.5625 10.5938 15.5625H7.78125ZM13.4062 16.9688C13.0176 16.9688 12.7031 17.2832 12.7031 17.6719V21.1875H16.9219V17.6719C16.9219 17.2832 16.6074 16.9688 16.2188 16.9688H13.4062ZM21.8438 12.75H19.0312C18.6426 12.75 18.3281 13.0645 18.3281 13.4531V21.1875H22.5469V13.4531C22.5469 13.0645 22.2324 12.75 21.8438 12.75Z" fill="#667085"/>
</g>
<defs>
<clipPath id="clip0_1383_33212">
<rect width="24" height="24" fill="white"/>
</clipPath>
</defs>
</svg>
