<svg width="26" height="28" viewBox="0 0 26 28" fill="none" xmlns="http://www.w3.org/2000/svg">
<rect width="26" height="28" fill="#78CFFF"/>
<g clip-path="url(#clip0_1002_7733)">
<path d="M21.1 11.9662V11.8662H21H20.213C19.7472 10.5762 18.5129 9.65 17.0635 9.65C15.5997 9.65 14.3536 10.5939 13.8988 11.9043C13.6446 11.7638 13.3372 11.6803 12.9998 11.6803C12.6625 11.6803 12.3552 11.7638 12.1009 11.9043C11.646 10.5939 10.3998 9.65003 8.93602 9.65003C7.48662 9.65003 6.25241 10.5762 5.78665 11.8662H5H4.9V11.9662V12.6329V12.7329H5H5.59799C5.59056 12.8206 5.58619 12.9096 5.58619 13C5.58619 14.8473 7.08883 16.3497 8.93602 16.3497C10.7832 16.3497 12.286 14.8472 12.286 13C12.286 12.9937 12.2858 12.9876 12.2856 12.982V12.9447C12.2856 12.8742 12.3386 12.7765 12.4679 12.691C12.5936 12.6078 12.7776 12.547 12.9998 12.547C13.2222 12.547 13.4061 12.6078 13.5318 12.691C13.6611 12.7765 13.7141 12.8742 13.7141 12.9447V12.985C13.7139 12.9897 13.7138 12.9948 13.7138 13C13.7138 14.8473 15.2163 16.3497 17.0635 16.3497C18.9107 16.3497 20.4135 14.8472 20.4135 13C20.4135 12.9096 20.4091 12.8206 20.4017 12.7329H21H21.1V12.6329V11.9662ZM8.93602 15.483C7.56693 15.483 6.45285 14.3689 6.45285 13C6.45285 11.6308 7.56694 10.5167 8.93602 10.5167C10.3053 10.5167 11.4194 11.6308 11.4194 13C11.4194 14.3689 10.3053 15.483 8.93602 15.483ZM17.0635 15.483C15.6946 15.483 14.5805 14.369 14.5805 13C14.5805 11.6308 15.6946 10.5167 17.0635 10.5167C18.4328 10.5167 19.5468 11.6308 19.5468 13C19.5468 14.3689 18.4327 15.483 17.0635 15.483Z" fill="white" stroke="white" stroke-width="0.2"/>
</g>
<defs>
<clipPath id="clip0_1002_7733">
<rect width="16" height="16" fill="white" transform="translate(5 5)"/>
</clipPath>
</defs>
</svg>
