<svg width="44" height="44" viewBox="0 0 44 44" fill="none" xmlns="http://www.w3.org/2000/svg">
<rect width="44" height="44" rx="22" fill="#05BAE7"/>
<path d="M18.2665 24.6797C18.0825 24.6797 17.9585 24.6977 17.8945 24.7157V25.8937C17.9705 25.9117 18.0655 25.9167 18.1965 25.9167C18.6755 25.9167 18.9705 25.6747 18.9705 25.2667C18.9705 24.8997 18.7165 24.6797 18.2665 24.6797ZM21.7535 24.6917C21.5535 24.6917 21.4235 24.7097 21.3465 24.7277V27.3377C21.4235 27.3557 21.5475 27.3557 21.6595 27.3557C22.4765 27.3617 23.0085 26.9117 23.0085 25.9597C23.0145 25.1297 22.5295 24.6917 21.7535 24.6917Z" fill="white"/>
<path d="M24 12H16C15.4696 12 14.9609 12.2107 14.5858 12.5858C14.2107 12.9609 14 13.4696 14 14V30C14 30.5304 14.2107 31.0391 14.5858 31.4142C14.9609 31.7893 15.4696 32 16 32H28C28.5304 32 29.0391 31.7893 29.4142 31.4142C29.7893 31.0391 30 30.5304 30 30V18L24 12ZM19.498 26.19C19.189 26.48 18.733 26.61 18.202 26.61C18.099 26.6111 17.9961 26.6051 17.894 26.592V28.018H17V24.082C17.403 24.022 17.811 23.994 18.219 24C18.776 24 19.172 24.106 19.439 24.319C19.693 24.521 19.865 24.852 19.865 25.242C19.864 25.634 19.734 25.965 19.498 26.19ZM23.305 27.545C22.885 27.894 22.246 28.06 21.465 28.06C20.997 28.06 20.666 28.03 20.441 28V24.083C20.8446 24.0241 21.2521 23.9963 21.66 24C22.417 24 22.909 24.136 23.293 24.426C23.708 24.734 23.968 25.225 23.968 25.93C23.968 26.693 23.689 27.22 23.305 27.545ZM27 24.77H25.468V25.681H26.9V26.415H25.468V28.019H24.562V24.03H27V24.77ZM24 19H23V14L28 19H24Z" fill="white"/>
</svg>
