<svg width="110" height="138" viewBox="0 0 110 138" fill="none" xmlns="http://www.w3.org/2000/svg">
<path d="M31.6243 2.67188H3.20508V61.5175H31.6243V2.67188Z" fill="#E0E0E0"/>
<path d="M30.678 2.67188H2.25879V61.5175H30.678V2.67188Z" fill="#EBEBEB"/>
<path d="M29.466 3.86328H3.46826V60.3223H29.466V3.86328Z" fill="white"/>
<path d="M24.4071 11.1992H8.41992V52.9848H24.4071V11.1992Z" fill="#EBEBEB"/>
<path d="M8.42029 38.1917C8.38307 34.2874 11.189 30.4763 14.2778 29.9301C15.7515 29.6725 17.3169 30.0387 18.6939 29.3311C21.15 28.0711 21.934 23.9869 24.4 22.7734L24.5142 52.9768H8.42029V38.1917Z" fill="#E0E0E0"/>
<path d="M105.944 0V32.382H68.7648L67.425 0.226556L105.944 0Z" fill="#E0E0E0"/>
<path d="M67.425 0.225346V32.3125H104.604V0.225346H67.425Z" fill="white"/>
<path d="M104.78 32.535H67.2483V0.0195312H104.78V32.535ZM67.6031 32.0943H104.428V0.438505H67.6031V32.0943Z" fill="#E0E0E0"/>
<path d="M100.576 4.21484H71.45V28.3291H100.576V4.21484Z" fill="white"/>
<path d="M100.578 4.21618H100.434H100.02H98.4221L92.4182 4.24411L71.4518 4.29687L71.5362 4.19135C71.5362 11.5591 71.5362 19.7089 71.5362 28.3025L71.4444 28.1877L100.571 28.2094L100.499 28.3025C100.514 20.9627 100.526 14.9574 100.536 10.7553C100.536 8.6635 100.551 7.03106 100.556 5.90448C100.556 5.35206 100.556 4.92688 100.556 4.62894C100.556 4.34032 100.556 4.18825 100.556 4.18825C100.556 4.18825 100.556 4.3279 100.556 4.61032C100.556 4.89274 100.556 5.32103 100.556 5.85173C100.556 6.96899 100.556 8.59833 100.573 10.6839C100.573 14.886 100.595 20.9255 100.613 28.287V28.377H100.538L71.4121 28.4018H71.3203V28.287C71.3203 19.7058 71.3203 11.5436 71.3203 4.17583V4.07031H71.4022L92.4257 4.12307L98.4072 4.151H99.9901H100.394C100.457 4.16707 100.518 4.18886 100.578 4.21618Z" fill="#E0E0E0"/>
<path d="M67.4259 0.136719C67.6559 0.27495 67.871 0.449101 68.066 0.655004C68.4456 0.999494 68.9641 1.48674 69.5248 2.04537C70.0855 2.60401 70.5742 3.13471 70.9215 3.53195C71.1214 3.72984 71.2999 3.95935 71.4525 4.21473C71.4202 4.26438 70.5246 3.33954 69.4082 2.22538C68.2917 1.11122 67.3936 0.189478 67.4259 0.136719Z" fill="#E0E0E0"/>
<path d="M104.603 0.224725C104.635 0.274381 103.759 1.20854 102.648 2.31028C101.536 3.41203 100.609 4.26239 100.576 4.21273C100.544 4.16307 101.42 3.22892 102.534 2.12717C103.648 1.02543 104.571 0.175069 104.603 0.224725Z" fill="#E0E0E0"/>
<path d="M104.572 32.3185L100.426 28.1133L104.572 32.3185Z" fill="white"/>
<path d="M100.427 28.115C100.459 28.0685 101.419 28.9685 102.558 30.1292C103.697 31.2899 104.605 32.2706 104.573 32.3203C104.54 32.3699 103.58 31.4668 102.444 30.3061C101.308 29.1454 100.397 28.1647 100.427 28.115Z" fill="#E0E0E0"/>
<path d="M67.4258 32.3146C67.396 32.265 68.2619 31.3432 69.3634 30.2539C70.4649 29.1646 71.3804 28.3235 71.4127 28.3732C71.4449 28.4228 70.5766 29.3446 69.4775 30.4339C68.3785 31.5232 67.458 32.3643 67.4258 32.3146Z" fill="#E0E0E0"/>
<path d="M77.3638 11.7255V19.8008H95.6905V11.7255L77.3638 11.7255Z" fill="#E0E0E0"/>
<path d="M49.5537 107.582C49.5537 106.176 50.4146 105.158 51.5732 105.158C51.8523 105.145 52.1302 105.209 52.3874 105.345C52.6446 105.482 52.8748 105.687 53.0618 105.946L52.6127 106.471C52.4863 106.294 52.331 106.153 52.1572 106.057C51.9834 105.962 51.7952 105.914 51.6054 105.918C51.4265 105.909 51.2478 105.944 51.0802 106.023C50.9125 106.102 50.7594 106.223 50.63 106.378C50.5007 106.533 50.3977 106.719 50.3274 106.925C50.257 107.131 50.2208 107.353 50.2208 107.577C50.2208 107.801 50.257 108.023 50.3274 108.229C50.3977 108.435 50.5007 108.621 50.63 108.776C50.7594 108.931 50.9125 109.052 51.0802 109.131C51.2478 109.21 51.4265 109.246 51.6054 109.236C51.7959 109.24 51.9848 109.192 52.1588 109.095C52.3329 108.998 52.4878 108.854 52.6127 108.674L53.0667 109.214C52.8795 109.473 52.6493 109.678 52.3922 109.814C52.135 109.951 51.8572 110.015 51.5782 110.002C50.4072 110.009 49.5537 108.991 49.5537 107.582Z" fill="#EBEBEB"/>
<path d="M45.7263 111.277H41.0522V105.43H45.7263V111.277ZM41.3003 110.966H45.4782V105.74H41.3003V110.966Z" fill="#EBEBEB"/>
<path d="M40.1606 112.494C40.0216 112.363 41.1381 110.265 42.8574 108.04C44.5766 105.815 46.2091 104.338 46.3307 104.505C46.4522 104.673 45.0232 106.404 43.3337 108.602C41.6442 110.799 40.3045 112.636 40.1606 112.494Z" fill="#E0E0E0"/>
<path d="M46.3954 112.364C46.244 112.501 44.9688 110.561 43.2843 108.311C41.5997 106.061 40.1409 104.335 40.2575 104.155C40.3741 103.975 42.0413 105.459 43.7556 107.759C45.47 110.058 46.5368 112.252 46.3954 112.364Z" fill="#E0E0E0"/>
<path d="M14.433 88.5091L12.1382 88.3042L11.6097 89.5953L10.729 89.5177L13.1231 83.9531L13.9617 84.0276L15.6983 89.9584L14.8052 89.8808L14.433 88.5091ZM14.1998 87.6463L13.4779 85.0549L12.4855 87.4911L14.1998 87.6463Z" fill="#EBEBEB"/>
<path d="M6.93829 89.8312L1.29663 89.3315L1.69854 82.2617L7.33772 82.7645L6.93829 89.8312ZM1.56209 89.0429L6.70756 89.5022L7.07226 83.0624L1.92679 82.6062L1.56209 89.0429Z" fill="#EBEBEB"/>
<path d="M0.098664 90.7458C-0.0303449 90.6061 1.49543 88.2009 3.74069 85.6809C5.98594 83.1608 8.05504 81.5067 8.15428 81.6805C8.25352 81.8543 6.38537 83.7846 4.18477 86.2799C1.98418 88.7751 0.235116 90.901 0.098664 90.7458Z" fill="#E0E0E0"/>
<path d="M7.70307 91.2784C7.54429 91.4025 6.15 88.8732 4.24712 85.9466C2.34424 83.02 0.664644 80.7823 0.788691 80.6116C0.912738 80.4409 2.8181 82.4551 4.7582 85.4376C6.69829 88.4201 7.84945 91.1698 7.70307 91.2784Z" fill="#E0E0E0"/>
<path d="M109.615 57.8101C109.831 58.7598 109.367 59.5264 108.221 59.9298L106.018 60.7088L104.777 55.1659L106.854 54.4304C107.916 54.0549 108.613 54.4304 108.811 55.2932C108.875 55.5405 108.881 55.8053 108.829 56.0568C108.777 56.3084 108.67 56.5364 108.519 56.7146C108.773 56.7161 109.02 56.8251 109.219 57.0239C109.418 57.2228 109.558 57.4998 109.615 57.8101ZM105.77 55.6811L106.117 57.2111L107.281 56.7984C107.851 56.5966 108.117 56.2273 108.003 55.7215C107.888 55.2156 107.506 55.0666 106.936 55.2683L105.77 55.6811ZM108.764 57.9994C108.638 57.447 108.246 57.3198 107.625 57.5401L106.298 58.0118L106.658 59.6101L107.988 59.1384C108.608 58.9181 108.888 58.555 108.764 57.9994Z" fill="#EBEBEB"/>
<path d="M96.4694 64.7684L94.9287 57.9624L100.369 56.0352L101.91 62.8411L96.4694 64.7684ZM95.2289 58.1766L96.6331 64.3836L101.595 62.6239L100.188 56.4169L95.2289 58.1766Z" fill="#EBEBEB"/>
<path d="M95.7272 66.6124C95.5659 66.5317 96.3474 63.6237 97.774 60.2968C99.2005 56.9698 100.699 54.5367 100.838 54.6608C100.977 54.7849 99.7463 57.3888 98.357 60.6785C96.9676 63.9682 95.8959 66.6993 95.7272 66.6124Z" fill="#E0E0E0"/>
<path d="M103.025 63.8752C102.908 64.0583 100.911 62.2738 98.3257 60.331C95.7406 58.3882 93.5524 56.9947 93.6268 56.7806C93.7013 56.5664 96.0383 57.6527 98.6582 59.6389C101.278 61.6252 103.134 63.7107 103.025 63.8752Z" fill="#E0E0E0"/>
<path d="M109.022 125.089C109.022 125.132 84.6716 125.169 54.6447 125.169C24.6179 125.169 0.26001 125.116 0.26001 125.089C0.26001 125.061 24.6055 125.008 54.6447 125.008C84.684 125.008 109.022 125.026 109.022 125.089Z" fill="black"/>
<path d="M77.0531 15.2969H13.3401V96.1494H77.0531V15.2969Z" fill="white"/>
<path d="M77.0524 96.1496C77.0524 96.1496 77.0524 96.1124 77.0524 96.0503C77.0524 95.9882 77.0524 95.8889 77.0524 95.7648C77.0524 95.5134 77.0524 95.1441 77.0524 94.6475C77.0524 93.6606 77.0524 92.2051 77.04 90.3026C77.04 86.5039 77.0227 80.9362 77.0103 73.854C76.9979 59.7114 76.978 39.5137 76.9532 15.2971L77.0648 15.4367L13.3592 15.4585L13.4882 15.2971C13.4882 44.9263 13.4882 72.6809 13.4709 96.1465L13.3592 96.01L59.5196 96.0782L72.4726 96.1155L75.8913 96.131H76.7721H76.9954H77.0723H76.7845H75.9162L72.5173 96.1465L59.5916 96.1838L13.3592 96.252H13.2476V96.1124C13.2476 72.6468 13.2476 44.9045 13.2302 15.2629V15.1016H13.3667L77.0723 15.1233H77.1864V15.2629C77.1616 39.5168 77.1417 59.7424 77.1293 73.9192C77.1144 80.989 77.1045 86.5443 77.0996 90.3367C77.0996 92.2237 77.0996 93.673 77.0847 94.6537C77.0847 95.1379 77.0847 95.5072 77.0847 95.7555V96.0317C77.0777 96.0724 77.0668 96.112 77.0524 96.1496Z" fill="#263238"/>
<path d="M18.3419 28.4844V30.6289H18.0219V28.8196H17.6597V28.4844H18.3419Z" fill="black"/>
<path d="M18.6729 30.3959C18.6729 30.3629 18.678 30.3302 18.6881 30.2997C18.6982 30.2692 18.713 30.2415 18.7317 30.2182C18.7504 30.1948 18.7725 30.1763 18.7969 30.1637C18.8213 30.151 18.8474 30.1445 18.8738 30.1445C18.9002 30.1445 18.9263 30.151 18.9507 30.1637C18.9751 30.1763 18.9972 30.1948 19.0159 30.2182C19.0346 30.2415 19.0494 30.2692 19.0595 30.2997C19.0696 30.3302 19.0748 30.3629 19.0748 30.3959C19.0748 30.4289 19.0696 30.4616 19.0595 30.4921C19.0494 30.5226 19.0346 30.5503 19.0159 30.5737C18.9972 30.597 18.9751 30.6155 18.9507 30.6282C18.9263 30.6408 18.9002 30.6473 18.8738 30.6473C18.8474 30.6473 18.8213 30.6408 18.7969 30.6282C18.7725 30.6155 18.7504 30.597 18.7317 30.5737C18.713 30.5503 18.6982 30.5226 18.6881 30.4921C18.678 30.4616 18.6729 30.4289 18.6729 30.3959Z" fill="black"/>
<path d="M39.706 19.8166C39.6976 19.5863 39.7445 19.3582 39.8407 19.1615C39.9368 18.9648 40.0778 18.8087 40.2456 18.7132C40.4133 18.6176 40.6 18.5871 40.7818 18.6255C40.9635 18.6639 41.1318 18.7695 41.2652 18.9287C41.3985 19.0878 41.4907 19.2933 41.5298 19.5185C41.569 19.7438 41.5533 19.9786 41.4849 20.1926C41.4165 20.4067 41.2984 20.5902 41.1458 20.7195C40.9933 20.8489 40.8132 20.9181 40.629 20.9184C40.5097 20.926 40.3905 20.9031 40.2785 20.8511C40.1666 20.7991 40.0643 20.7191 39.978 20.616C39.8916 20.5129 39.8229 20.3888 39.7762 20.2514C39.7294 20.1139 39.7056 19.966 39.706 19.8166ZM41.2318 19.8166C41.2318 19.6675 41.1965 19.5217 41.1302 19.3977C41.064 19.2736 40.9698 19.177 40.8597 19.1199C40.7495 19.0628 40.6283 19.0479 40.5113 19.077C40.3944 19.1061 40.287 19.1779 40.2027 19.2834C40.1183 19.3888 40.0609 19.5232 40.0377 19.6695C40.0144 19.8158 40.0263 19.9674 40.072 20.1052C40.1176 20.243 40.1949 20.3608 40.294 20.4437C40.3932 20.5266 40.5097 20.5708 40.629 20.5708C40.7086 20.5734 40.7878 20.5556 40.8617 20.5186C40.9356 20.4815 41.0028 20.426 41.059 20.3554C41.1152 20.2848 41.1593 20.2007 41.1886 20.108C41.2179 20.0154 41.2317 19.9162 41.2293 19.8166H41.2318Z" fill="black"/>
<path d="M43.4117 18.7461V20.8906H43.1512L42.206 19.4382V20.8906H41.8884V18.7461H42.1514L43.0966 20.1923V18.7461H43.4117Z" fill="black"/>
<path d="M43.8716 18.7461H44.1891V20.5523H45.0872V20.8906H43.8716V18.7461Z" fill="black"/>
<path d="M45.3401 18.7461H45.6576V20.8906H45.3401V18.7461Z" fill="black"/>
<path d="M47.6424 18.7461V20.8906H47.3794L46.4367 19.4382V20.8906H46.1216V18.7461H46.3846L47.3273 20.1923V18.7461H47.6424Z" fill="black"/>
<path d="M49.3884 20.5554V20.8906H48.1008V18.7461H49.3413V19.0782H48.4209V19.6368H49.2495V19.9627H48.4209V20.5554H49.3884Z" fill="black"/>
<path d="M50.7659 19.0813H50.1978V18.7461H51.6466V19.0813H51.0785V20.8906H50.7584L50.7659 19.0813Z" fill="black"/>
<path d="M53.1792 20.5554V20.8906H51.894V18.7461H53.1345V19.0782H52.2017V19.6368H53.0278V19.9627H52.2017V20.5554H53.1792Z" fill="black"/>
<path d="M53.3862 20.6641L53.4979 20.3537C53.6615 20.5058 53.8597 20.5885 54.0635 20.5896C54.3315 20.5896 54.4431 20.4686 54.4431 20.3103C54.4431 19.8479 53.4234 20.152 53.4234 19.3544C53.4234 19.0068 53.6442 18.7151 54.1156 18.7151C54.3162 18.7104 54.5139 18.776 54.6862 18.9044L54.5845 19.2147C54.4422 19.1066 54.2796 19.0477 54.1131 19.044C53.8477 19.044 53.741 19.1744 53.741 19.3358C53.741 19.792 54.7557 19.4941 54.7557 20.2823C54.7557 20.6268 54.5324 20.903 54.0635 20.903C53.8231 20.9168 53.5855 20.833 53.3862 20.6641Z" fill="black"/>
<path d="M55.3994 19.0813H54.8313V18.7461H56.2851V19.0813H55.717V20.8906H55.3994V19.0813Z" fill="black"/>
<path d="M26.2789 37.9058H25.4205L25.2518 38.4023H24.9243L25.6959 36.2578H26.0085L26.7825 38.4023H26.4501L26.2789 37.9058ZM26.1722 37.5954L25.8497 36.6644L25.5297 37.5954H26.1722Z" fill="black"/>
<path d="M17.6383 20.8848C18.0233 20.8848 18.3355 20.4943 18.3355 20.0127C18.3355 19.5311 18.0233 19.1406 17.6383 19.1406C17.2533 19.1406 16.9412 19.5311 16.9412 20.0127C16.9412 20.4943 17.2533 20.8848 17.6383 20.8848Z" fill="black"/>
<path d="M19.7509 20.8848C20.1359 20.8848 20.448 20.4943 20.448 20.0127C20.448 19.5311 20.1359 19.1406 19.7509 19.1406C19.3658 19.1406 19.0537 19.5311 19.0537 20.0127C19.0537 20.4943 19.3658 20.8848 19.7509 20.8848Z" fill="black"/>
<path d="M21.8597 20.8848C22.2448 20.8848 22.5569 20.4943 22.5569 20.0127C22.5569 19.5311 22.2448 19.1406 21.8597 19.1406C21.4747 19.1406 21.1626 19.5311 21.1626 20.0127C21.1626 20.4943 21.4747 20.8848 21.8597 20.8848Z" fill="black"/>
<path d="M77.0526 24.3268C77.0526 24.3702 62.8616 24.4075 45.3586 24.4075C27.8556 24.4075 13.6621 24.3702 13.6621 24.3268C13.6621 24.2833 27.8506 24.2461 45.3586 24.2461C62.8666 24.2461 77.0526 24.2833 77.0526 24.3268Z" fill="black"/>
<path d="M70.0853 30.3229C70.0853 30.3663 59.0376 30.4036 45.4123 30.4036C31.787 30.4036 20.7344 30.3663 20.7344 30.3229C20.7344 30.2794 31.782 30.2422 45.4123 30.2422C59.0426 30.2422 70.0853 30.2763 70.0853 30.3229Z" fill="black"/>
<path d="M39.7773 32.4205C39.7773 32.464 35.5597 32.5012 30.3497 32.5012C25.1397 32.5012 20.9072 32.464 20.9072 32.4205C20.9072 32.3771 25.1248 32.3398 30.3497 32.3398C35.5746 32.3398 39.7773 32.374 39.7773 32.4205Z" fill="black"/>
<path d="M23.6112 38.7414H21.3511V35.9141H23.6112V38.7414ZM21.5992 38.431H23.3631V36.2244H21.5992V38.431Z" fill="black"/>
<path d="M26.6793 43.1892C26.6793 43.5554 26.4486 43.7695 26.007 43.7695H25.156V41.625H25.9573C26.3692 41.625 26.59 41.8422 26.59 42.1836C26.5926 42.2803 26.5732 42.3759 26.5341 42.4594C26.495 42.5429 26.4379 42.6109 26.3692 42.6554C26.4615 42.6875 26.5423 42.7577 26.5986 42.8546C26.6549 42.9516 26.6834 43.0695 26.6793 43.1892ZM25.4736 41.9478V42.5374H25.9251C26.1434 42.5374 26.27 42.4412 26.27 42.2457C26.27 42.0502 26.1434 41.9354 25.9251 41.9354L25.4736 41.9478ZM26.3568 43.1581C26.3568 42.944 26.2278 42.8478 25.9871 42.8478H25.4736V43.4685H25.9871C26.2278 43.4685 26.3568 43.363 26.3568 43.1581Z" fill="black"/>
<path d="M23.6112 44.1118H21.3511V41.2969H23.6112V44.1118ZM21.5992 43.8014H23.3631V41.6072H21.5992V43.8014Z" fill="black"/>
<path d="M25.0305 48.0648C25.0394 47.8381 25.1012 47.6196 25.2084 47.4364C25.3155 47.2532 25.4632 47.1133 25.6333 47.034C25.8033 46.9547 25.9882 46.9396 26.165 46.9904C26.3419 47.0412 26.5029 47.1558 26.6282 47.3199L26.4223 47.562C26.3646 47.4815 26.2938 47.4175 26.2146 47.3741C26.1354 47.3308 26.0498 47.3091 25.9633 47.3106C25.8035 47.3106 25.6501 47.3901 25.5371 47.5315C25.424 47.6729 25.3605 47.8648 25.3605 48.0648C25.3605 48.2648 25.424 48.4566 25.5371 48.598C25.6501 48.7395 25.8035 48.8189 25.9633 48.8189C26.05 48.8205 26.1359 48.7985 26.2151 48.7546C26.2944 48.7106 26.365 48.6458 26.4223 48.5644L26.6282 48.8096C26.5029 48.9738 26.3419 49.0883 26.165 49.1391C25.9882 49.19 25.8033 49.1748 25.6333 49.0955C25.4632 49.0163 25.3155 48.8764 25.2084 48.6932C25.1012 48.51 25.0394 48.2915 25.0305 48.0648Z" fill="black"/>
<path d="M23.6112 49.4757H21.3511V46.6484H23.6112V49.4757ZM21.5992 49.1654H23.3631V46.9588H21.5992V49.1654Z" fill="black"/>
<path d="M25.156 52.3594H25.9003C26.456 52.3594 26.8356 52.7877 26.8356 53.4301C26.8356 54.0725 26.456 54.5039 25.9003 54.5039H25.156V52.3594ZM25.9003 54.1656C25.9805 54.1721 26.061 54.158 26.1367 54.1241C26.2125 54.0902 26.2818 54.0371 26.3405 53.9684C26.3992 53.8996 26.446 53.8164 26.478 53.7241C26.5099 53.6318 26.5264 53.5323 26.5264 53.4316C26.5264 53.331 26.5099 53.2315 26.478 53.1392C26.446 53.0468 26.3992 52.9637 26.3405 52.8949C26.2818 52.8261 26.2125 52.7731 26.1367 52.7392C26.061 52.7053 25.9805 52.6911 25.9003 52.6977H25.4736V54.1656H25.9003Z" fill="black"/>
<path d="M23.6112 54.8468H21.3511V52.0195H23.6112V54.8468ZM21.5992 54.5365H23.3631V52.3299H21.5992V54.5365Z" fill="black"/>
<path d="M45.4116 37.3307C45.4116 37.3741 41.6902 37.4114 37.0856 37.4114C32.481 37.4114 28.7571 37.3741 28.7571 37.3307C28.7571 37.2872 32.4785 37.25 37.0856 37.25C41.6927 37.25 45.4116 37.2841 45.4116 37.3307Z" fill="black"/>
<path d="M68.3355 42.694C68.3355 42.7405 59.4736 42.7747 48.5475 42.7747C37.6215 42.7747 28.7571 42.7405 28.7571 42.694C28.7571 42.6474 37.6165 42.6133 48.5475 42.6133C59.4786 42.6133 68.3355 42.6505 68.3355 42.694Z" fill="black"/>
<path d="M34.2034 53.4283C34.2034 53.4718 32.9853 53.509 31.4744 53.509C29.9635 53.509 28.7454 53.4718 28.7454 53.4283C28.7454 53.3849 29.9635 53.3477 31.4744 53.3477C32.9853 53.3477 34.2034 53.3973 34.2034 53.4283Z" fill="black"/>
<path d="M48.5451 48.0651C48.5451 48.1085 44.1166 48.1458 38.6511 48.1458C33.1856 48.1458 28.7571 48.1085 28.7571 48.0651C28.7571 48.0216 33.1856 47.9844 38.6511 47.9844C44.1166 47.9844 48.5451 48.0185 48.5451 48.0651Z" fill="black"/>
<path d="M18.4045 61.0722V61.4073H17.1392V61.1404L17.8215 60.3335C17.9877 60.1349 18.0175 60.0077 18.0175 59.8897C18.0175 59.6911 17.9083 59.5794 17.6974 59.5794C17.6215 59.5745 17.5457 59.5922 17.4762 59.631C17.4068 59.6699 17.3457 59.7288 17.298 59.8028L17.0747 59.5887C17.1534 59.47 17.2531 59.3759 17.3659 59.314C17.4788 59.252 17.6016 59.2239 17.7247 59.2318C18.0969 59.2318 18.3375 59.4676 18.3375 59.8525C18.3348 59.9848 18.308 60.1146 18.2589 60.2319C18.2099 60.3492 18.14 60.4508 18.0547 60.529L17.5957 61.0753L18.4045 61.0722Z" fill="black"/>
<path d="M18.5903 61.1733C18.5903 61.1066 18.6115 61.0426 18.6492 60.9955C18.6869 60.9484 18.738 60.9219 18.7913 60.9219C18.8446 60.9219 18.8957 60.9484 18.9334 60.9955C18.9711 61.0426 18.9922 61.1066 18.9922 61.1733C18.9922 61.2399 18.9711 61.3039 18.9334 61.351C18.8957 61.3982 18.8446 61.4246 18.7913 61.4246C18.738 61.4246 18.6869 61.3982 18.6492 61.351C18.6115 61.3039 18.5903 61.2399 18.5903 61.1733Z" fill="black"/>
<path d="M25.6783 68.6831H24.8224L24.6537 69.1797H24.3237L25.0953 67.0352H25.4104L26.1844 69.1797H25.8445L25.6783 68.6831ZM25.5741 68.3728L25.2516 67.4417L24.9291 68.3728H25.5741Z" fill="black"/>
<path d="M69.4875 61.1002C69.4875 61.1437 58.4399 61.1809 44.8146 61.1809C31.1892 61.1809 20.1416 61.1561 20.1416 61.1002C20.1416 61.0444 31.1868 61.0195 44.817 61.0195C58.4473 61.0195 69.4875 61.0568 69.4875 61.1002Z" fill="black"/>
<path d="M39.1796 63.1979C39.1796 63.2413 34.962 63.2786 29.7371 63.2786C24.5123 63.2786 20.2947 63.2413 20.2947 63.1979C20.2947 63.1544 24.5123 63.1172 29.7371 63.1172C34.962 63.1172 39.1796 63.1513 39.1796 63.1979Z" fill="black"/>
<path d="M23.0026 69.5382H20.7424V66.7109H23.0026V69.5382ZM20.9905 69.2279H22.7545V67.0213H20.9905V69.2279Z" fill="black"/>
<path d="M26.0785 73.9665C26.0785 74.3327 25.8477 74.5469 25.4086 74.5469H24.5552V72.4023H25.3491C25.7609 72.4023 25.9817 72.6196 25.9817 72.961C25.9837 73.0575 25.9641 73.1529 25.9251 73.2362C25.8861 73.3196 25.8292 73.3876 25.7609 73.4327C25.8548 73.4625 25.9376 73.5319 25.9954 73.6291C26.0533 73.7263 26.0826 73.8454 26.0785 73.9665ZM24.8752 72.7251V73.3179H25.3243C25.5451 73.3179 25.6691 73.2186 25.6691 73.023C25.6691 72.8275 25.5451 72.7127 25.3243 72.7127L24.8752 72.7251ZM25.7584 73.9355C25.7584 73.7213 25.6294 73.6251 25.3888 73.6251H24.8752V74.2458H25.3888C25.6294 74.2365 25.7584 74.1403 25.7584 73.9262V73.9355Z" fill="black"/>
<path d="M23.0026 74.8859H20.7424V72.0586H23.0026V74.8859ZM20.9905 74.5755H22.7545V72.3689H20.9905V74.5755Z" fill="black"/>
<path d="M24.4336 78.8493C24.4325 78.7002 24.4557 78.5524 24.5019 78.415C24.5481 78.2776 24.6163 78.1535 24.7023 78.0502C24.7883 77.947 24.8902 77.8669 25.0019 77.8149C25.1136 77.7628 25.2326 77.7399 25.3516 77.7475C25.4785 77.741 25.605 77.7696 25.7221 77.8313C25.8392 77.893 25.9439 77.9863 26.0289 78.1044L25.8254 78.3465C25.7675 78.2664 25.6967 78.2025 25.6175 78.1592C25.5384 78.1158 25.4528 78.094 25.3665 78.0951C25.2066 78.0951 25.0532 78.1746 24.9402 78.316C24.8271 78.4574 24.7636 78.6493 24.7636 78.8493C24.7636 79.0493 24.8271 79.2411 24.9402 79.3825C25.0532 79.524 25.2066 79.6034 25.3665 79.6034C25.4531 79.6047 25.5389 79.5827 25.6181 79.5388C25.6973 79.4949 25.7681 79.4301 25.8254 79.3489L26.0289 79.5941C25.9039 79.7586 25.743 79.8736 25.5662 79.9246C25.3894 79.9757 25.2045 79.9606 25.0345 79.8812C24.8645 79.8018 24.7169 79.6617 24.6101 79.4782C24.5032 79.2947 24.4419 79.076 24.4336 78.8493Z" fill="black"/>
<path d="M23.0026 80.2531H20.7424V77.4258H23.0026V80.2531ZM20.9905 79.9427H22.7545V77.7361H20.9905V79.9427Z" fill="black"/>
<path d="M24.5552 83.1367H25.2995C25.8552 83.1367 26.2348 83.565 26.2348 84.2105C26.2348 84.8561 25.8552 85.2812 25.2995 85.2812H24.5552V83.1367ZM25.2995 84.9461C25.3812 84.9555 25.4636 84.9434 25.5415 84.9107C25.6193 84.8781 25.6908 84.8254 25.7515 84.7562C25.8121 84.687 25.8606 84.6027 25.8937 84.5088C25.9269 84.4148 25.944 84.3132 25.944 84.2105C25.944 84.1078 25.9269 84.0063 25.8937 83.9123C25.8606 83.8183 25.8121 83.7341 25.7515 83.6648C25.6908 83.5956 25.6193 83.543 25.5415 83.5103C25.4636 83.4776 25.3812 83.4656 25.2995 83.475H24.8851V84.9461H25.2995Z" fill="black"/>
<path d="M23.0026 85.6242H20.7424V82.7969H23.0026V85.6242ZM20.9905 85.3138H22.7545V83.1072H20.9905V85.3138Z" fill="black"/>
<path d="M44.8133 68.108C44.8133 68.1515 41.0919 68.1887 36.4848 68.1887C31.8777 68.1887 28.1562 68.1515 28.1562 68.108C28.1562 68.0646 31.8777 68.0273 36.4848 68.0273C41.0919 68.0273 44.8133 68.0646 44.8133 68.108Z" fill="black"/>
<path d="M67.7347 73.4713C67.7347 73.5179 58.8753 73.552 47.9467 73.552C37.0182 73.552 28.1562 73.5179 28.1562 73.4713C28.1562 73.4248 37.0157 73.3906 47.9467 73.3906C58.8777 73.3906 67.7347 73.4279 67.7347 73.4713Z" fill="black"/>
<path d="M33.6026 84.2057C33.6026 84.2522 32.382 84.2864 30.8736 84.2864C29.3652 84.2864 28.1445 84.2522 28.1445 84.2057C28.1445 84.1591 29.3652 84.125 30.8736 84.125C32.382 84.125 33.6026 84.1622 33.6026 84.2057Z" fill="black"/>
<path d="M47.9467 78.8463C47.9467 78.8898 43.5158 78.927 38.0527 78.927C32.5897 78.927 28.1562 78.8898 28.1562 78.8463C28.1562 78.8029 32.5872 78.7656 38.0527 78.7656C43.5182 78.7656 47.9467 78.7936 47.9467 78.8463Z" fill="black"/>
<path d="M63.9693 91.573H53.7553C53.3436 91.573 52.9359 91.4715 52.5556 91.2743C52.1752 91.0772 51.8297 90.7882 51.5387 90.4239C51.2477 90.0595 51.017 89.6271 50.8596 89.1512C50.7023 88.6752 50.6215 88.1652 50.6218 87.6502C50.6218 86.6106 50.952 85.6136 51.5396 84.8785C52.1272 84.1434 52.9242 83.7305 53.7553 83.7305H63.9693C64.8003 83.7305 65.5973 84.1434 66.185 84.8785C66.7726 85.6136 67.1027 86.6106 67.1027 87.6502C67.103 88.1652 67.0222 88.6752 66.8649 89.1512C66.7076 89.6271 66.4768 90.0595 66.1858 90.4239C65.8948 90.7882 65.5493 91.0772 65.169 91.2743C64.7886 91.4715 64.381 91.573 63.9693 91.573Z" fill="#FF725E"/>
<path d="M56.3061 86.7188V88.8509H55.9811L55.1227 87.5567V88.8509H54.7332V86.7188H55.0582L55.9042 88.0129V86.7188H56.3061Z" fill="white"/>
<path d="M58.0244 88.4692V88.8665H56.7046V86.7344H57.9922V87.1316H57.104V87.594H57.8954V87.9758H57.104V88.4692H58.0244Z" fill="white"/>
<path d="M59.3976 88.8509L58.9858 88.1122L58.5814 88.8509H58.1299L58.76 87.7677L58.1621 86.7188H58.6087L59.0007 87.4108L59.3852 86.7188H59.812L59.2165 87.7491L59.8541 88.8509H59.3976Z" fill="white"/>
<path d="M60.3329 87.1222H59.7871V86.7188H61.2757V87.1222H60.7299V88.8509H60.3329V87.1222Z" fill="white"/>
<path d="M63.4302 88.6879C63.4095 88.6876 63.3892 88.6809 63.371 88.6685C63.3528 88.656 63.3374 88.6382 63.326 88.6165C63.3081 88.5823 63.3016 88.5406 63.3081 88.5005C63.3146 88.4604 63.3336 88.4251 63.3607 88.4024L64.1522 87.7413C64.1647 87.7315 64.175 87.7178 64.182 87.7014C64.189 87.6851 64.1924 87.6667 64.1919 87.6482C64.1919 87.6295 64.188 87.611 64.1806 87.5947C64.1732 87.5784 64.1625 87.5648 64.1497 87.5551L63.3657 86.9748C63.338 86.9534 63.3182 86.9193 63.3104 86.8798C63.3026 86.8403 63.3075 86.7985 63.3241 86.7635C63.3407 86.7285 63.3676 86.7031 63.3991 86.6927C63.4305 86.6823 63.464 86.6877 63.4922 86.7079L64.2762 87.2851C64.3252 87.3219 64.366 87.3736 64.3947 87.4354C64.4235 87.4972 64.4394 87.567 64.4409 87.6385C64.4423 87.7099 64.4294 87.7807 64.4032 87.8442C64.377 87.9078 64.3385 87.9621 64.2911 88.002L63.4997 88.66C63.4792 88.6776 63.4551 88.6873 63.4302 88.6879Z" fill="white"/>
<path d="M21.0718 44.0589C20.9974 43.9658 21.4762 43.2117 22.1436 42.3737C22.811 41.5358 23.4138 40.9399 23.4907 41.033C23.5677 41.1261 23.0864 41.8834 22.419 42.7182C21.7516 43.5531 21.1487 44.1551 21.0718 44.0589Z" fill="#FF725E"/>
<path d="M23.9028 44.3533C23.8284 44.4496 23.1858 43.7978 22.4688 42.9009C21.7519 42.004 21.2284 41.2033 21.3078 41.1071C21.3872 41.0109 22.0272 41.6626 22.7418 42.5595C23.4563 43.4564 23.9797 44.2602 23.9028 44.3533Z" fill="#FF725E"/>
<path d="M20.5305 69.6722C20.4536 69.576 20.9349 68.8218 21.6023 67.987C22.2697 67.1521 22.8725 66.5532 22.9495 66.6463C23.0264 66.7394 22.5451 67.4935 21.8752 68.3315C21.2053 69.1694 20.605 69.7653 20.5305 69.6722Z" fill="#FF725E"/>
<path d="M23.365 69.97C23.2881 70.0631 22.648 69.4145 21.931 68.5176C21.214 67.6207 20.6905 66.8168 20.7699 66.7237C20.8493 66.6306 21.4869 67.2793 22.2039 68.1762C22.9209 69.0731 23.4345 69.8738 23.365 69.97Z" fill="#FF725E"/>
<path d="M68.6459 132.708L51.2272 125.712C51.1807 125.694 51.132 125.687 51.0833 125.691L37.6863 126.932C35.3318 119.794 32.382 110.871 31.0398 106.796C30.8162 106.128 30.4558 105.546 29.9951 105.107C29.5343 104.669 28.9893 104.39 28.415 104.298L13.9064 101.927C13.7339 101.901 13.5589 101.932 13.399 102.017C13.239 102.102 13.0997 102.238 12.995 102.411C12.8902 102.585 12.8237 102.789 12.8021 103.005C12.7805 103.221 12.8046 103.44 12.8719 103.64L21.0416 127.472C21.1498 127.788 21.3093 128.073 21.51 128.308C21.7107 128.543 21.9483 128.723 22.2077 128.838L38.8027 137.121C39.182 137.31 39.5929 137.378 39.9985 137.319L41.0603 137.174C44.7371 136.692 62.8926 134.38 68.5715 133.636C68.6615 133.63 68.7468 133.584 68.8121 133.506C68.8773 133.428 68.9182 133.324 68.9272 133.212C68.9362 133.099 68.9127 132.987 68.8611 132.894C68.8096 132.802 68.7332 132.736 68.6459 132.708Z" fill="#E0E0E0"/>
<path d="M68.6472 132.708C68.7053 132.731 68.758 132.772 68.8012 132.826C68.8443 132.88 68.8766 132.946 68.8953 133.018C68.9178 133.11 68.9183 133.208 68.8967 133.3C68.8751 133.392 68.8323 133.475 68.7737 133.537C68.6955 133.612 68.5997 133.654 68.5008 133.655L68.1733 133.698L64.0971 134.238L49.1023 136.19L44.1405 136.836L41.4983 137.177L40.1412 137.36C39.6712 137.452 39.1902 137.382 38.7494 137.158L27.6496 131.628L24.6849 130.148L23.174 129.397L22.4124 129.018C22.2859 128.95 22.1643 128.894 22.0278 128.822C21.898 128.751 21.7749 128.661 21.6607 128.556C21.4309 128.343 21.2384 128.073 21.095 127.764C20.9561 127.454 20.8668 127.128 20.7526 126.808L20.0902 124.881C19.6453 123.59 19.1979 122.285 18.748 120.967C16.9444 115.691 15.0738 110.254 13.161 104.674L12.898 103.907C12.7868 103.652 12.7296 103.366 12.7317 103.076C12.746 102.78 12.839 102.498 12.9959 102.276C13.1528 102.054 13.3646 101.904 13.5976 101.85C13.6547 101.834 13.7142 101.85 13.7737 101.828L13.9449 101.844L14.2724 101.899L14.9249 102.005L16.2249 102.216L21.3555 103.057L26.367 103.876L27.6075 104.078C28.0168 104.156 28.4262 104.19 28.8479 104.311C29.6629 104.574 30.3704 105.206 30.8327 106.086C31.0394 106.524 31.213 106.986 31.3512 107.464C31.5034 107.928 31.6555 108.389 31.8077 108.848L32.7083 111.582L34.4648 116.908C35.611 120.39 36.715 123.736 37.7644 126.92L37.7099 126.877L50.7646 125.669L51.1268 125.635C51.1921 125.634 51.2569 125.649 51.3178 125.679L51.489 125.75L52.144 126.023L53.4638 126.554L55.9522 127.575L60.3435 129.347L66.4838 131.83L68.0964 132.491C68.4611 132.64 68.6472 132.72 68.6472 132.72C68.6472 132.72 68.4586 132.652 68.0915 132.509L66.4739 131.87L60.3311 129.406L55.9373 127.649L53.4316 126.644L52.1117 126.116L51.4344 125.846C51.328 125.792 51.2162 125.755 51.102 125.738L50.7398 125.772L37.6875 127.013H37.6503L37.633 126.967C36.581 123.785 35.477 120.449 34.3259 116.961L32.5669 111.635C32.2692 110.733 31.9681 109.822 31.6638 108.901C31.5125 108.442 31.3587 107.97 31.2073 107.517C31.0712 107.048 30.9009 106.596 30.6987 106.167C30.2557 105.322 29.5774 104.714 28.7958 104.46C28.4088 104.342 27.992 104.305 27.5851 104.23L26.3447 104.029L21.3307 103.212L16.2001 102.374L14.8976 102.163L14.2451 102.055C14.0362 102.002 13.8225 101.985 13.61 102.005C13.4058 102.053 13.2203 102.186 13.0828 102.381C12.9454 102.576 12.8637 102.822 12.8508 103.082C12.8493 103.348 12.9032 103.61 13.0071 103.842L13.2776 104.609L18.8622 120.905C19.3137 122.221 19.7603 123.526 20.2019 124.819C20.4251 125.464 20.6435 126.107 20.8643 126.746C20.9759 127.057 21.0727 127.398 21.2017 127.677C21.3354 127.968 21.5163 128.221 21.7326 128.419C21.8399 128.518 21.9556 128.602 22.0775 128.67C22.1965 128.736 22.3255 128.794 22.4546 128.86L23.2162 129.241L24.7246 129.996L27.7017 131.476L38.7965 137.022C39.2204 137.239 39.6838 137.307 40.1362 137.217L41.4958 137.034L44.138 136.699L49.0999 136.078L64.0996 134.176L68.1783 133.664L68.5058 133.627C68.6005 133.626 68.6926 133.588 68.7688 133.518C68.8252 133.459 68.8667 133.382 68.8883 133.294C68.9099 133.206 68.9106 133.113 68.8903 133.025C68.8666 132.915 68.8096 132.822 68.7315 132.764C68.677 132.724 68.6472 132.711 68.6472 132.708Z" fill="#263238"/>
<path d="M46.2278 128.395L52.7601 131.815L60.9001 130.754L54.0552 127.219L46.2278 128.395Z" fill="#F5F5F5"/>
<path d="M41.3052 134.858L54.0572 133.418L41.8807 127.379L37.9658 127.748L40.0349 133.992L41.3052 134.858Z" fill="#F5F5F5"/>
<path d="M67.3857 132.698L67.2988 132.717L67.0383 132.757L66.046 132.884L62.3593 133.334L50.2027 134.752L40.6461 135.833H40.6064L40.5915 135.786L38.4753 129.328L37.8947 127.521C37.8302 127.314 37.7806 127.156 37.7459 127.046C37.7277 126.992 37.712 126.936 37.6987 126.879C37.6987 126.879 37.7211 126.932 37.7608 127.037L37.9245 127.506L38.5323 129.297C39.0533 130.848 39.7976 133.067 40.6907 135.736L40.6362 135.693L50.1903 134.585L62.3593 133.213L66.0385 132.822L67.0309 132.723L67.2914 132.701L67.3857 132.698Z" fill="black"/>
<path d="M13.2932 102.789H13.4024L13.7249 102.836L14.9654 103.037L19.5154 103.813C21.4357 104.148 23.733 104.552 26.2611 105.02L28.2061 105.396L28.7023 105.502C28.7842 105.517 28.871 105.542 28.9504 105.567C28.9926 105.567 29.0373 105.588 29.0794 105.604C29.2887 105.709 29.4786 105.866 29.6376 106.066C29.7021 106.152 29.7534 106.252 29.789 106.361L29.8857 106.672C30.4043 108.292 30.9401 109.971 31.4909 111.687C33.6841 118.561 35.6663 124.787 37.1053 129.299C37.8173 131.549 38.3929 133.374 38.7948 134.64C38.9883 135.261 39.1397 135.758 39.2463 136.099C39.296 136.26 39.3332 136.385 39.3605 136.478C39.3745 136.52 39.3861 136.564 39.3952 136.608C39.3777 136.568 39.362 136.526 39.3481 136.484L39.2215 136.108L38.7477 134.665C38.3383 133.399 37.7553 131.583 37.011 129.34L31.3842 111.746C30.8335 110.03 30.2976 108.351 29.7791 106.731L29.6823 106.42C29.6524 106.329 29.6096 106.244 29.5558 106.172C29.4448 106.021 29.3107 105.9 29.1613 105.815C29.1242 105.793 29.0861 105.773 29.0472 105.756L28.9281 105.719C28.8487 105.697 28.7693 105.675 28.68 105.66L28.1838 105.551L26.2388 105.169L19.5005 103.928L14.9554 103.099L13.715 102.87L13.3949 102.805L13.2932 102.789Z" fill="black"/>
<path d="M26.1202 117.057C26.7404 118.096 26.8644 119.291 26.4005 119.726C25.9366 120.16 25.0534 119.673 24.4331 118.633C23.8129 117.594 23.6888 116.402 24.1528 115.964C24.6167 115.527 25.4999 116.02 26.1202 117.057Z" fill="white"/>
<path d="M104.61 99.3335C103.779 93.4368 98.5667 89.8833 96.845 87.9219L99.4326 92.2513C100.757 99.0841 101.259 106.126 100.921 113.144C100.886 113.911 100.953 114.944 101.39 115.053C101.548 115.069 101.704 115.008 101.827 114.882C103.355 113.656 104.347 110.847 104.568 107.955C104.789 105.063 104.987 102.061 104.61 99.3335Z" fill="#FF725E"/>
<path d="M100.795 92.7275C100.547 92.1348 100.649 90.2447 99.3068 92.2185L99.22 91.4799L90.9262 83.5039L72.4407 84.705C70.6668 84.8446 68.0023 88.6868 67.3374 90.2913C66.7916 96.2593 66.6824 101.557 66.6824 101.557C66.6824 101.557 66.0473 108.192 66.6824 111.33C67.3175 114.468 68.0693 115.6 69.0517 118.04C69.7706 119.706 70.667 121.243 71.7163 122.608L72.5796 130.988L91.8913 133.16L100.731 132.539C100.731 132.539 99.9394 116.013 99.9394 115.721C99.9394 115.585 101.043 112.394 102.229 109.009C104.244 103.214 103.108 98.32 100.795 92.7275Z" fill="#455A64"/>
<path d="M52.2988 122.786C52.3956 122.786 53.3607 114.627 53.9933 112.774C54.5887 111.027 67.3383 90.2891 67.3383 90.2891L70.3402 102.393L69.0526 108.867L62.106 119.322L60.1436 126.901L52.2988 122.786Z" fill="#455A64"/>
<path d="M103.366 98.929C102.451 91.6699 97.9307 91.9864 97.9307 91.9864L93.4378 101.766V121.988L71.7618 124.334L71.3599 131.143C71.3599 131.143 92.9564 137.319 97.9456 135.249C101.248 133.881 104.036 130.426 104.341 124.781C104.647 119.136 104.284 106.191 103.366 98.929Z" fill="#455A64"/>
<path d="M62.1278 119.31C62.0648 118.848 61.982 118.39 61.8797 117.938C61.6078 116.854 61.1171 115.876 60.4548 115.098C59.7925 114.32 58.981 113.769 58.0988 113.497C57.7319 113.394 57.3609 113.315 56.9873 113.261C57.0895 113.246 57.1928 113.246 57.2949 113.261C57.5731 113.276 57.8496 113.321 58.1211 113.398C59.0264 113.649 59.8606 114.201 60.5354 114.997C61.2102 115.792 61.7004 116.801 61.9542 117.917C62.0323 118.251 62.0854 118.594 62.1129 118.941C62.1301 119.063 62.1351 119.187 62.1278 119.31Z" fill="black"/>
<path d="M72.5024 124.056C72.5334 124.046 72.5649 124.039 72.5967 124.034L72.8721 123.985L73.9339 123.808L77.8464 123.187L90.7473 121.226L93.6153 120.797L93.5582 120.875C93.7244 115.376 93.8063 110.528 93.7765 107.055C93.7765 105.32 93.7467 103.927 93.7294 102.968C93.7294 102.496 93.712 102.127 93.707 101.869V101.584C93.707 101.519 93.707 101.487 93.707 101.484C93.7096 101.517 93.7096 101.551 93.707 101.584C93.707 101.655 93.707 101.748 93.7219 101.866C93.7219 102.127 93.7467 102.487 93.7641 102.968C93.7964 103.924 93.8311 105.317 93.8509 107.055C93.8956 110.528 93.8361 115.382 93.6748 120.878V120.946H93.6202L90.7522 121.378L77.8389 123.293L73.924 123.854L72.8572 123.997L72.5793 124.031L72.5024 124.056Z" fill="black"/>
<path d="M104.634 124.055C104.637 124.096 104.637 124.138 104.634 124.179C104.634 124.266 104.634 124.387 104.619 124.539C104.597 125.002 104.554 125.463 104.493 125.92C104.395 126.645 104.253 127.36 104.068 128.058C103.815 128.98 103.475 129.862 103.056 130.684C102.546 131.685 101.903 132.569 101.153 133.297C100.292 134.133 99.297 134.727 98.2357 135.038C97.6643 135.21 97.084 135.331 96.499 135.401C95.8903 135.469 95.2792 135.498 94.6681 135.488C93.3867 135.456 92.1089 135.306 90.845 135.041L83.5237 133.536L80.3307 132.872L77.5496 132.229C75.8551 131.832 74.4807 131.531 73.528 131.351L72.4289 131.149L72.1436 131.1C72.1107 131.096 72.0783 131.088 72.0469 131.075H72.1436L72.4314 131.112C72.6795 131.146 73.0566 131.199 73.5354 131.283C74.4906 131.444 75.8675 131.73 77.567 132.111L80.3431 132.732L83.5386 133.381L90.8598 134.877C92.1195 135.145 93.3931 135.297 94.6706 135.333C95.2908 135.333 95.8962 135.311 96.4891 135.252C97.0674 135.185 97.6411 135.067 98.2059 134.898C99.2537 134.595 100.237 134.013 101.089 133.191C101.831 132.477 102.47 131.609 102.979 130.625C103.399 129.813 103.741 128.942 103.999 128.03C104.188 127.339 104.337 126.632 104.443 125.914C104.525 125.321 104.574 124.855 104.592 124.539L104.622 124.179C104.623 124.137 104.628 124.096 104.634 124.055Z" fill="black"/>
<path d="M71.9165 124.554C71.9064 124.512 71.8997 124.47 71.8967 124.427C71.8843 124.33 71.8669 124.203 71.8495 124.048C71.8098 123.7 71.7528 123.216 71.6833 122.602V122.623L70.0409 120.349C69.7208 119.778 69.4315 119.18 69.1751 118.561C68.8884 117.856 68.6349 117.131 68.4159 116.389C67.9318 114.711 67.599 112.972 67.4235 111.203C67.2503 109.287 67.2146 107.356 67.3169 105.433C67.3938 103.664 67.5401 102.075 67.6791 100.747C67.818 99.4186 67.9495 98.3479 68.0438 97.6061L68.1554 96.7558C68.1678 96.6658 68.1777 96.5944 68.1877 96.5354C68.1896 96.5098 68.1946 96.4847 68.2026 96.4609C68.2048 96.4857 68.2048 96.5107 68.2026 96.5354C68.2026 96.5975 68.2025 96.6689 68.1827 96.7589C68.1604 96.9699 68.1331 97.2554 68.0959 97.6154C68.0165 98.3572 67.8999 99.431 67.7709 100.762C67.6419 102.094 67.5253 103.677 67.4483 105.446C67.3536 107.359 67.3918 109.279 67.5625 111.184C67.7353 112.943 68.0614 114.672 68.535 116.342C68.7493 117.076 68.9978 117.795 69.2793 118.493C69.5304 119.109 69.813 119.704 70.1253 120.274L71.7453 122.577L71.8793 124.026C71.8917 124.185 71.9016 124.312 71.9116 124.408C71.9201 124.456 71.9218 124.505 71.9165 124.554Z" fill="black"/>
<path d="M96.7397 125.311C96.5761 125.084 96.426 124.842 96.2906 124.587C96.0202 124.131 95.6406 123.511 95.1965 122.849C94.7524 122.188 94.3332 121.608 94.023 121.198C93.8449 120.986 93.6791 120.758 93.5269 120.516C93.7287 120.691 93.915 120.893 94.0826 121.118C94.509 121.633 94.9124 122.177 95.2908 122.747C95.6719 123.314 96.0288 123.905 96.3601 124.519C96.5077 124.766 96.6348 125.031 96.7397 125.311Z" fill="black"/>
<path d="M57.6006 123.78C57.417 122.455 56.4519 121.422 56.4519 121.422C56.4519 121.422 55.9904 119.808 55.3007 119.383C54.611 118.958 54.0603 119.808 53.4599 119.578C52.8595 119.349 51.5719 119.29 51.1576 119.578C50.7433 119.867 50.2371 121.478 50.2371 121.478C49.8195 121.499 49.4108 121.636 49.0413 121.881C48.7281 122.083 48.4571 122.375 48.2499 122.731C48.0701 122.644 47.8732 122.626 47.6854 122.682C47.4975 122.737 47.3276 122.863 47.198 123.042C46.9463 123.41 46.758 123.839 46.6447 124.302L46.3173 125.4C46.2542 125.568 46.2252 125.752 46.2329 125.937C46.2582 126.089 46.324 126.226 46.4195 126.325C46.5151 126.425 46.6347 126.48 46.7589 126.484C46.885 126.484 47.0098 126.452 47.1252 126.388C47.2406 126.324 47.3441 126.231 47.4287 126.114C47.5976 125.906 47.7466 125.673 47.8728 125.422L47.9547 126.142C47.9547 126.142 48.0911 127.281 48.828 127.349C49.3366 127.399 49.8873 126.66 49.8873 126.66L51.1749 126.487L51.3585 128.097C51.4433 128.408 51.6055 128.676 51.8212 128.863C52.0369 129.049 52.2947 129.144 52.5568 129.134C53.0183 129.134 53.6137 128.156 53.6137 128.156L54.812 128.73C54.812 128.73 56.1914 129.941 56.8364 129.537C57.0168 129.423 57.1608 129.236 57.2446 129.005C57.3285 128.775 57.3473 128.516 57.2979 128.271C57.5733 127.881 57.7909 127.432 57.9405 126.946C58.1141 126.257 57.7941 125.106 57.6006 123.78Z" fill="#FFBE9D"/>
<path d="M47.927 125.867C47.8745 125.298 47.8904 124.721 47.9741 124.157C48.0171 123.587 48.1292 123.028 48.3065 122.5C48.3413 122.5 48.2048 123.254 48.1006 124.182C47.9964 125.11 47.9741 125.867 47.927 125.867Z" fill="#EB996E"/>
<path d="M49.9394 124.352C50.0176 124.743 50.0543 125.146 50.0486 125.55C50.075 125.841 50.0513 126.136 49.9791 126.415C49.9072 126.633 49.8054 126.726 49.798 126.701C49.7906 126.676 49.8501 126.58 49.8923 126.391C49.9348 126.12 49.944 125.842 49.9196 125.568C49.8817 125.163 49.8884 124.754 49.9394 124.352Z" fill="#EB996E"/>
<path d="M50.7965 123.667C50.8213 123.698 50.6526 123.977 50.4169 124.263C50.1812 124.548 49.9728 124.778 49.9455 124.747C49.9182 124.716 50.0894 124.437 50.3251 124.151C50.5608 123.866 50.7716 123.636 50.7965 123.667Z" fill="#EB996E"/>
<path d="M50.968 120.57C50.9959 120.861 51.0058 121.153 50.9978 121.446C50.9978 121.989 51.0152 122.733 51.0499 123.556C51.0846 124.378 51.1367 125.123 51.174 125.663C51.2092 125.953 51.2242 126.246 51.2186 126.538C51.1501 126.257 51.1052 125.968 51.0846 125.676C51.0226 125.139 50.9581 124.394 50.9209 123.565C50.8837 122.737 50.8887 121.989 50.906 121.446C50.9024 121.152 50.9232 120.859 50.968 120.57Z" fill="#EB996E"/>
<path d="M55.7954 121.189C55.7954 121.189 55.7408 121.344 55.654 121.623C55.5329 122.019 55.4367 122.426 55.3662 122.84C55.3215 123.107 55.2744 123.395 55.2223 123.703C55.173 124.039 55.0999 124.369 55.004 124.69C54.8968 125.051 54.7165 125.372 54.4805 125.621C54.3516 125.76 54.1981 125.86 54.0325 125.911C53.8669 125.963 53.6939 125.964 53.5278 125.915C53.3552 125.867 53.199 125.752 53.0812 125.586C52.9725 125.422 52.9029 125.224 52.8803 125.012C52.845 124.635 52.8392 124.255 52.8629 123.876C52.891 123.241 52.9691 122.612 53.0961 121.996C53.1813 121.581 53.2908 121.174 53.4236 120.779C53.4707 120.639 53.5079 120.534 53.5377 120.469C53.5504 120.431 53.5671 120.395 53.5873 120.363C53.5564 120.514 53.5174 120.663 53.4707 120.807C53.3568 121.206 53.2615 121.614 53.1854 122.027C53.0726 122.638 53.0045 123.262 52.982 123.889C52.9623 124.255 52.9698 124.623 53.0043 124.988C53.0245 125.17 53.0846 125.342 53.178 125.484C53.2791 125.623 53.4114 125.72 53.5576 125.763C53.7048 125.806 53.858 125.804 54.0046 125.758C54.1512 125.712 54.2871 125.624 54.4011 125.5C54.6224 125.267 54.7931 124.968 54.8973 124.631C55.0532 124.033 55.1816 123.425 55.2818 122.809C55.3597 122.392 55.4693 121.986 55.6093 121.595C55.6479 121.489 55.6919 121.385 55.7408 121.285C55.7706 121.22 55.7904 121.186 55.7954 121.189Z" fill="#EB996E"/>
<path d="M56.2837 121.887C56.2489 122.231 56.1275 122.552 55.9371 122.804C55.7466 123.057 55.497 123.226 55.2244 123.289C55.4417 123.11 55.6481 122.911 55.8421 122.694C56.0051 122.439 56.1528 122.169 56.2837 121.887Z" fill="#EB996E"/>
<path d="M53.6179 125.898C53.6993 126.329 53.7203 126.775 53.6799 127.214C53.6668 127.606 53.6227 127.994 53.5485 128.375V128.397C53.5392 128.403 53.5289 128.406 53.5184 128.406C53.508 128.407 53.4976 128.404 53.4881 128.399C53.4785 128.393 53.4701 128.385 53.4633 128.375C53.4566 128.365 53.4518 128.354 53.4492 128.341C53.4492 128.31 53.4492 128.297 53.4492 128.297C53.4492 128.297 53.4492 128.313 53.4666 128.325C53.484 128.338 53.5013 128.35 53.5088 128.325L53.4939 128.35C53.4939 128.139 53.5311 127.698 53.5534 127.189C53.5507 126.758 53.5722 126.326 53.6179 125.898Z" fill="#EB996E"/>
<path d="M56.5373 124.613C56.4417 124.811 56.3285 124.994 56.1999 125.16C55.9156 125.573 55.6662 126.022 55.4556 126.5C55.2462 126.977 55.1273 127.508 55.1083 128.052C55.1083 128.471 55.1653 128.725 55.143 128.732C55.056 128.522 55.0125 128.288 55.0165 128.052C55.009 127.483 55.1211 126.921 55.3415 126.423C55.5601 125.933 55.8304 125.482 56.1453 125.082C56.2595 124.905 56.3912 124.748 56.5373 124.613Z" fill="#EB996E"/>
<path d="M56.0276 127.475C55.95 127.126 55.963 126.755 56.0646 126.416C56.1663 126.077 56.3514 125.787 56.5933 125.588C57.4591 124.819 60.0517 122.795 60.1063 122.795C60.1609 122.795 63.1504 121.554 64.4082 121.392C65.6661 121.231 71.1713 124.651 71.1713 124.651C71.1713 124.651 72.449 126.954 72.243 129.163C72.0371 131.373 70.886 131.5 70.886 131.5L69.2882 131.013L67.6409 130.619C67.6409 130.619 63.9964 131.888 63.4233 131.656C62.8502 131.423 62.6517 130.644 63.272 130.222C63.8922 129.8 65.676 129.139 65.676 129.139L67.048 128.412L62.5823 129.21C62.5823 129.21 58.8063 130.141 58.3647 130.011C57.9231 129.88 57.8561 129.468 57.8189 129.08C57.8189 129.08 56.298 130.011 55.8465 129.502C55.395 128.993 55.1965 127.885 56.0276 127.475Z" fill="#FFBE9D"/>
<path d="M65.666 126.114C65.5553 126.137 65.443 126.144 65.3311 126.136C65.1177 126.136 64.8076 126.136 64.4255 126.167C63.9799 126.193 63.5371 126.27 63.1032 126.4C62.8474 126.482 62.5982 126.593 62.3589 126.732C62.1108 126.875 61.8627 127.042 61.6146 127.229C61.3615 127.41 61.0978 127.566 60.8257 127.697C60.5712 127.815 60.3048 127.887 60.0343 127.911C59.5885 127.912 59.1441 127.974 58.7094 128.098C58.4257 128.211 58.1753 128.427 57.99 128.718C57.9272 128.832 57.8716 128.951 57.8237 129.075C57.8237 129.075 57.8237 129.035 57.8386 128.967C57.8643 128.867 57.901 128.771 57.9478 128.684C58.1265 128.362 58.383 128.119 58.6797 127.992C59.1188 127.848 59.5704 127.772 60.0243 127.766C60.5645 127.687 61.0834 127.456 61.5427 127.092C61.7908 126.915 62.0389 126.735 62.3018 126.589C62.5467 126.449 62.8018 126.339 63.0635 126.26C63.5052 126.131 63.957 126.064 64.4106 126.059C64.7977 126.059 65.1078 126.059 65.3236 126.077C65.4384 126.076 65.5531 126.089 65.666 126.114Z" fill="#EB996E"/>
<path d="M64.3177 123.762C64.2921 123.783 64.2646 123.801 64.2359 123.814C64.1838 123.846 64.1019 123.886 63.9878 123.932C63.6833 124.05 63.3724 124.139 63.0574 124.199C62.663 124.286 62.1866 124.351 61.6805 124.51C61.1352 124.716 60.6113 125.002 60.12 125.363C59.2045 126 58.2486 126.542 57.262 126.983C56.8849 127.151 56.5747 127.275 56.3589 127.356C56.2494 127.405 56.1365 127.442 56.0215 127.464C56.1243 127.395 56.2324 127.339 56.344 127.297L57.2297 126.875C58.2019 126.406 59.147 125.853 60.058 125.22C60.5585 124.854 61.0935 124.566 61.6507 124.364C62.1107 124.234 62.5762 124.136 63.045 124.072C63.3573 124.023 63.6671 123.951 63.9729 123.858C64.0863 123.818 64.2015 123.786 64.3177 123.762Z" fill="#EB996E"/>
<path d="M67.941 125.092C67.9082 124.971 67.8841 124.846 67.8691 124.719C67.8098 124.429 67.6954 124.161 67.5356 123.938C67.3757 123.715 67.1753 123.543 66.9511 123.438C66.8524 123.404 66.7562 123.361 66.6633 123.307C66.6633 123.289 66.7874 123.27 66.9809 123.329C67.2322 123.414 67.4588 123.587 67.6334 123.829C67.8067 124.072 67.9196 124.373 67.9584 124.695C67.9844 124.826 67.9783 124.965 67.941 125.092Z" fill="#EB996E"/>
<path d="M70.0064 128.575C70.0018 128.401 69.9894 128.227 69.9692 128.054C69.8846 127.65 69.6941 127.294 69.4283 127.042C69.1547 126.794 68.8528 126.598 68.5327 126.462C68.3934 126.416 68.2598 126.346 68.1357 126.254C68.2807 126.256 68.4242 126.29 68.56 126.353C68.9024 126.463 69.2249 126.654 69.5102 126.915C69.7996 127.188 69.9955 127.589 70.0585 128.035C70.0945 128.217 70.0759 128.409 70.0064 128.575Z" fill="#EB996E"/>
<path d="M57.8332 129.075C57.77 129.145 57.6968 129.2 57.6173 129.236C57.4101 129.358 57.1962 129.462 56.9773 129.546C56.8265 129.612 56.6723 129.665 56.5158 129.705C56.327 129.736 56.135 129.711 55.9551 129.633C55.8535 129.587 55.7608 129.514 55.6831 129.42C55.6053 129.326 55.5441 129.212 55.5036 129.087C55.401 128.832 55.3596 128.545 55.3845 128.261C55.4103 128.047 55.4987 127.853 55.6326 127.715C55.7467 127.59 55.8745 127.485 56.0122 127.405L55.9799 127.498C55.8789 127.113 55.9021 126.695 56.0444 126.331C56.1625 126.059 56.3218 125.817 56.5133 125.62C56.6362 125.492 56.7673 125.377 56.9053 125.276C56.9528 125.233 57.0056 125.201 57.0616 125.18C57.074 125.201 56.8607 125.357 56.5654 125.692C56.3911 125.891 56.2466 126.127 56.1387 126.39C56.0164 126.725 56.0022 127.107 56.099 127.455L56.1139 127.514L56.0668 127.545C55.8335 127.697 55.5532 127.92 55.5259 128.286C55.5052 128.539 55.5413 128.794 55.6301 129.022C55.663 129.129 55.7136 129.227 55.7785 129.308C55.8435 129.389 55.9214 129.452 56.0072 129.494C56.1658 129.566 56.3353 129.594 56.5034 129.574C56.6557 129.54 56.8064 129.495 56.9549 129.441C57.2303 129.345 57.4511 129.248 57.6 129.18C57.6745 129.135 57.7527 129.099 57.8332 129.075Z" fill="#EB996E"/>
<path d="M77.0584 66.2939C76.52 59.5717 75.3812 52.8805 75.6169 46.1211L71.1984 49.5722C71.4192 52.2474 69.4965 54.3206 68.3825 56.6172C67.7159 58.0202 67.3249 59.601 67.2417 61.2298C67.1584 62.8586 67.3853 64.4889 67.9037 65.9866C68.3006 67.1039 68.8638 68.1591 69.0102 69.3695C69.2583 71.4116 68.2485 73.4878 68.6207 75.502C69.0474 77.8203 71.315 79.0927 73.1434 78.441C74.9719 77.7893 76.2818 75.6479 76.8202 73.3792C77.3586 71.1105 77.2469 68.6619 77.0584 66.2939Z" fill="#263238"/>
<path d="M71.4365 48.4353C71.681 46.795 72.2696 45.2656 73.1422 44.0037C74.0148 42.7419 75.1399 41.7929 76.4022 41.2541C77.6646 40.7153 79.0187 40.6061 80.3259 40.9376C81.6331 41.2691 82.8463 42.0294 83.8412 43.1407C84.6475 44.0438 85.3074 45.1704 86.2403 45.8562C87.2947 46.629 87.4311 46.3683 88.5922 46.837C89.7533 47.3056 92.0283 51.0981 92.0655 52.625L92.9686 59.2665C92.9984 60.8338 91.4354 61.8424 90.2247 61.4389C89.014 61.0355 88.1605 59.6979 87.4659 58.3882C86.7712 57.0785 86.1113 55.6602 85.042 54.8378C83.2681 53.4754 80.9906 54.1705 78.9811 54.8378C76.9715 55.505 74.6369 56.0792 72.9648 54.5274C71.5357 53.1774 71.109 50.6325 71.4365 48.4353Z" fill="#263238"/>
<path d="M70.7949 58.0545C70.7949 53.6848 72.8516 48.1699 76.3398 48.3685L87.3304 50.9754C87.842 51.0038 88.3264 51.2715 88.6876 51.7256C89.0488 52.1798 89.2604 52.7871 89.2804 53.4272L89.6947 86.1692H89.7692C89.7692 86.1692 85.951 98.1798 78.657 95.9266C77.2106 95.4797 78.2799 90.9765 77.8979 89.0027L77.8259 89.0213C77.811 88.7824 77.7986 88.562 77.7837 88.3355C77.5703 86.8584 77.4813 85.3574 77.5183 83.8571C77.3669 81.2222 77.3148 80.1329 77.3148 80.167C77.3148 80.2012 72.8243 79.5774 71.5541 72.3927C70.9239 68.8361 70.7825 62.9115 70.7949 58.0545Z" fill="#FFBE9D"/>
<path d="M72.7341 63.7722C72.7438 64.0148 72.8288 64.243 72.9711 64.4083C73.1134 64.5735 73.3017 64.6627 73.4958 64.6567C73.591 64.6592 73.6856 64.6378 73.774 64.5937C73.8625 64.5497 73.9429 64.4839 74.0107 64.4003C74.0785 64.3167 74.1322 64.2169 74.1686 64.1069C74.205 63.9969 74.2234 63.8789 74.2227 63.7598C74.2131 63.5172 74.128 63.2889 73.9857 63.1237C73.8434 62.9585 73.6552 62.8693 73.4611 62.8753C73.3659 62.8728 73.2713 62.8942 73.1829 62.9382C73.0944 62.9823 73.0139 63.048 72.9462 63.1317C72.8784 63.2153 72.8247 63.315 72.7883 63.4251C72.7519 63.5351 72.7335 63.6531 72.7341 63.7722Z" fill="#263238"/>
<path d="M71.9674 61.0572C72.0641 61.1721 72.6025 60.6072 73.4039 60.5514C74.2052 60.4955 74.8155 60.9486 74.8924 60.8214C74.9346 60.7624 74.8279 60.5514 74.5625 60.3372C74.2013 60.0623 73.7809 59.9343 73.3592 59.971C72.9469 60.0079 72.5545 60.2066 72.2378 60.5389C71.9897 60.781 71.9178 61.0076 71.9674 61.0572Z" fill="#263238"/>
<path d="M79.9556 63.2686C79.9652 63.5111 80.0503 63.7394 80.1926 63.9046C80.3349 64.0699 80.5231 64.159 80.7172 64.1531C80.8124 64.1556 80.907 64.1342 80.9954 64.0901C81.0839 64.0461 81.1644 63.9803 81.2321 63.8967C81.2999 63.8131 81.3536 63.7133 81.39 63.6033C81.4264 63.4933 81.4448 63.3752 81.4441 63.2562C81.4345 63.0119 81.3484 62.7822 81.2045 62.6167C81.0606 62.4512 80.8704 62.3632 80.6751 62.3717C80.5805 62.3704 80.4867 62.3927 80.3991 62.4373C80.3116 62.4819 80.232 62.5479 80.165 62.6314C80.098 62.7149 80.045 62.8142 80.009 62.9236C79.9731 63.033 79.9549 63.1503 79.9556 63.2686Z" fill="#263238"/>
<path d="M79.8447 60.6537C79.9415 60.7654 80.4798 60.2037 81.2812 60.1447C82.0825 60.0857 82.6928 60.545 82.7697 60.4147C82.8094 60.3557 82.7077 60.1447 82.4398 59.9305C82.0782 59.6569 81.6581 59.5291 81.2365 59.5643C80.8205 59.5957 80.423 59.79 80.1003 60.1199C79.8695 60.3743 79.7951 60.6009 79.8447 60.6537Z" fill="#263238"/>
<path d="M77.2962 68.2963C77.2962 68.2374 76.8 68.1691 75.9813 68.1008C75.7754 68.1008 75.5794 68.0511 75.5372 67.8805C75.5073 67.6172 75.5419 67.3488 75.6365 67.1108C75.8002 66.4901 75.9689 65.8166 76.1476 65.1214C76.8546 62.2848 77.3508 59.9603 77.259 59.9262C77.1672 59.892 76.5147 62.1607 75.8151 64.9942L75.3313 66.9991C75.2168 67.316 75.1965 67.6737 75.2743 68.0077C75.3079 68.0963 75.3574 68.174 75.419 68.2348C75.4805 68.2956 75.5524 68.3379 75.629 68.3584C75.744 68.3884 75.8616 68.3999 75.9788 68.3925C76.7926 68.3863 77.2962 68.3522 77.2962 68.2963Z" fill="#263238"/>
<path d="M77.3169 80.1858C80.0499 80.0309 82.6951 78.9308 84.9582 77.0078C84.9582 77.0078 83.2414 82.2062 77.4062 81.9734L77.3169 80.1858Z" fill="#EB996E"/>
<path d="M77.7522 70.6835C77.8926 70.4319 78.0821 70.2294 78.3027 70.0953C78.5233 69.9611 78.7676 69.8997 79.0125 69.9169C79.19 69.9224 79.3647 69.9731 79.5259 70.0659C79.6872 70.1588 79.8316 70.2918 79.9503 70.4569C80.0655 70.6156 80.1389 70.8147 80.1607 71.0273C80.1824 71.2399 80.1514 71.4557 80.0719 71.6455C79.9522 71.835 79.7901 71.9755 79.6062 72.049C79.4224 72.1225 79.2252 72.1258 79.0398 72.0583C78.6534 71.9195 78.2932 71.6853 77.9805 71.3693C77.8842 71.297 77.7999 71.2022 77.7324 71.09C77.7003 71.0371 77.6815 70.9734 77.6784 70.9071C77.6753 70.8408 77.6881 70.7748 77.715 70.7176" fill="#EB996E"/>
<path d="M79.6817 68.8129C79.5502 68.8129 79.5998 69.8991 78.8952 70.7247C78.1906 71.5502 77.2578 71.5037 77.2578 71.6557C77.2578 71.724 77.4736 71.8512 77.8656 71.8357C78.3751 71.8069 78.86 71.5541 79.2351 71.1219C79.5949 70.7065 79.8111 70.1321 79.838 69.5205C79.8554 69.0643 79.7437 68.8005 79.6817 68.8129Z" fill="#263238"/>
<path d="M79.4602 56.8581C79.552 57.125 80.3459 56.9357 81.2911 57.007C82.2363 57.0784 83.0129 57.3391 83.1245 57.0846C83.1741 56.9636 83.0302 56.7184 82.7127 56.4639C82.2882 56.1714 81.816 56.0038 81.3319 55.9737C80.8479 55.9436 80.3647 56.0518 79.9191 56.2901C79.5842 56.5043 79.4329 56.7308 79.4602 56.8581Z" fill="#263238"/>
<path d="M72.1231 58.1384C72.2744 58.3556 72.8152 58.0794 73.4777 58.0174C74.1401 57.9553 74.7181 58.0794 74.8273 57.8312C74.8794 57.7101 74.7802 57.4898 74.5221 57.2942C74.1805 57.0597 73.7907 56.9581 73.4027 57.0023C73.0146 57.0465 72.646 57.2346 72.3439 57.5425C72.1206 57.7939 72.0561 58.0329 72.1231 58.1384Z" fill="#263238"/>
<path d="M76.4418 46.5013L76.8933 45.6758C80.267 45.8945 83.6014 46.6859 86.8047 48.0282C88.0848 48.5651 89.3848 49.2262 90.3028 50.4645C91.5681 52.1652 91.8782 54.6232 92.1263 56.926C93.074 65.6872 93.9473 74.7215 92.1511 83.2748C91.5656 82.2444 90.4988 81.844 89.4965 81.6796C88.4942 81.5151 87.4497 81.5213 86.5194 81.0154C86.0141 80.726 85.5628 80.3075 85.1945 79.7869C84.8262 79.2664 84.549 78.6551 84.3808 77.9926C84.0494 76.6555 84.1047 75.2151 84.5371 73.9239C85.006 72.487 85.8966 71.0656 85.5865 69.579C85.2615 68.0055 83.7556 67.2079 83.3338 65.6717C82.6069 63.0151 85.5171 60.3523 84.7703 57.705C84.4924 56.7274 83.763 56.057 82.9989 55.6536C82.2348 55.2501 81.4111 55.0546 80.6395 54.6791C79.3566 54.0142 78.2669 52.8745 77.5166 51.4128C76.7662 49.9511 76.3912 48.2373 76.4418 46.5013Z" fill="#263238"/>
<path d="M93.603 50.8313C89.9957 44.5063 87.552 43.7398 84.1581 43.5039L88.8718 56.7248C89.5789 58.8539 90.5514 61.436 90.7028 63.7295C90.8814 66.4512 90.1272 68.7292 89.1175 71.1468C87.9068 74.0517 86.577 76.82 84.4955 78.8063C82.414 80.7925 77.7796 83.2909 75.373 82.0029L78.7298 84.3523L86.7482 84.3895L96.0889 84.4361C96.0889 84.4361 97.1805 83.2381 98.1406 80.147C100.55 72.4038 97.6271 57.8856 93.603 50.8313Z" fill="#FF725E"/>
<path d="M100.255 92.027C100.255 92.027 98.2458 86.869 95.6234 84.0323C93.001 81.1957 91.3909 81.2237 87.6497 81.6209C83.9084 82.0182 78.6736 82.7568 77.4331 82.3627L77.3165 80.1902C76.7013 80.1126 74.1781 78.5764 73.6869 77.6484C72.7491 78.8495 72.3398 80.1312 72.5531 81.4937L71.9403 81.7823C71.0364 82.196 70.2858 83.0116 69.8318 84.0735C69.3779 85.1353 69.2524 86.3691 69.4792 87.5393C69.7125 88.6566 70.2756 89.3424 71.4069 89.5876C75.8974 90.559 87.9027 86.4996 91.5175 86.4841C95.1322 86.4686 100.255 92.027 100.255 92.027Z" fill="#FF725E"/>
<path d="M70.9985 89.5291C71.1039 89.5252 71.2093 89.5325 71.3136 89.5508C71.517 89.5756 71.8098 89.616 72.2043 89.6501C73.2987 89.7568 74.3973 89.7796 75.494 89.7184C77.1187 89.6138 78.7336 89.3397 80.3219 88.8991C81.22 88.6539 82.1553 88.356 83.1155 88.0084L86.0777 86.8632C88.1096 86.0904 90.1464 85.5628 92.0096 85.7925C93.6512 85.9802 95.2399 86.6158 96.6639 87.6546C97.6199 88.3554 98.4842 89.2357 99.2267 90.2646C99.4284 90.5426 99.6173 90.8348 99.7923 91.1398C99.8572 91.2376 99.9161 91.3413 99.9685 91.4501C99.8902 91.3633 99.8203 91.2654 99.7601 91.1584C99.6336 90.9567 99.4326 90.6743 99.1671 90.3205C97.2739 87.8398 94.7234 86.3064 91.9923 86.0066C90.1663 85.7956 88.1617 86.317 86.1372 87.0866C85.1225 87.4684 84.1376 87.8749 83.1725 88.2256C82.2074 88.5763 81.2671 88.868 80.3616 89.107C78.7619 89.5412 77.1347 89.7988 75.499 89.8767C74.3968 89.9228 73.2933 89.872 72.1968 89.7246C71.8098 89.6749 71.5096 89.6191 71.3087 89.5787C71.2043 89.5734 71.1006 89.5567 70.9985 89.5291Z" fill="#263238"/>
<path d="M100.471 90.3339C95.9412 82.9662 87.2554 80.1513 80.4328 83.8382L73.2381 85.7469C71.3401 86.1566 68.296 86.9293 68.1521 89.1297C68.0207 91.4601 68.4263 93.7887 69.3207 95.8395C70.9928 99.483 70.0848 104.365 71.7569 108.008C72.5459 109.731 73.3522 111.478 74.5033 112.847C75.6545 114.215 77.2175 115.174 78.7954 114.96C80.5519 114.724 81.9908 113.12 83.1073 111.407C85.5113 107.717 87.0123 103.235 89.2625 99.3992C91.5127 95.5633 94.1673 92.7391 98.896 92.376C99.7544 92.3077 102.203 93.7384 102.203 93.7384C102.273 93.3039 100.687 90.6784 100.471 90.3339Z" fill="#FF725E"/>
<g opacity="0.3">
<path d="M90.7868 85.9493C87.6583 85.9493 84.5844 87.83 81.5527 88.6679C69.3564 92.0259 69.3564 86.272 69.3564 86.272C68.9744 88.9752 71.0038 90.2166 73.1399 90.8373C77.2185 92.0166 81.5751 92.6497 84.5175 91.4735C86.8892 90.5425 89.3652 89.8504 91.7593 88.9907C94.1534 88.131 97.6019 88.46 99.4155 90.589C97.793 87.2527 93.9153 85.94 90.7868 85.9493Z" fill="black"/>
</g>
<g opacity="0.3">
<path d="M74.9342 85.5387C75.0799 85.9383 75.2927 86.294 75.5582 86.5815C75.8236 86.8691 76.1354 87.0818 76.4724 87.2052C77.1479 87.4488 77.855 87.5247 78.5539 87.4287C81.1043 87.2115 83.5555 86.1469 85.9694 85.0918C84.0392 85.008 82.1711 85.849 80.2781 86.3332C78.3852 86.8173 76.2516 86.8483 74.7134 85.4021" fill="black"/>
</g>
<path d="M101.082 92.6954C101.082 92.6954 101.059 92.6737 101.025 92.6271L100.873 92.4099C100.742 92.2144 100.541 91.9412 100.275 91.5937C99.5279 90.6105 98.6245 89.8335 97.6231 89.3126C96.9243 88.9827 96.1902 88.784 95.4449 88.7229C94.5902 88.6362 93.7305 88.6706 92.8821 88.8253C91.0809 89.1357 89.178 89.9271 87.1585 90.6471C85.139 91.3671 83.2114 92.1182 81.3779 92.2392C79.7616 92.3264 78.1425 92.1816 76.5525 91.8078C75.1979 91.4974 74.1187 91.1374 73.3719 90.9047L72.5135 90.6316L72.2927 90.5571L72.2158 90.526C72.2421 90.5212 72.2689 90.5212 72.2952 90.526L72.521 90.585L73.3843 90.8302C74.1286 91.0443 75.2153 91.3826 76.5699 91.6806C78.1531 92.0382 79.7634 92.1715 81.3705 92.0778C83.1841 91.9506 85.1142 91.2336 87.1238 90.4795C89.1334 89.7253 91.0486 88.965 92.8647 88.6639C93.7227 88.5125 94.5916 88.4834 95.4548 88.577C96.3805 88.6436 97.2864 88.9396 98.1199 89.4479C98.9534 89.9562 99.6979 90.6666 100.31 91.5378C100.573 91.8947 100.769 92.174 100.893 92.3757L101.034 92.6023L101.082 92.6954Z" fill="black"/>
<path d="M96.5264 85.1023C96.5076 85.0869 96.4902 85.0692 96.4743 85.0495L96.3304 84.885C96.2088 84.736 96.0178 84.5281 95.7697 84.2643C95.0552 83.5419 94.2718 82.9331 93.4376 82.4519C92.1994 81.7422 90.8831 81.2694 89.5326 81.0491C87.8773 80.792 86.2026 80.7972 84.5484 81.0646C82.8926 81.3384 81.2496 81.7217 79.6262 82.2129C78.909 82.4237 78.1703 82.4969 77.4355 82.4301C76.7894 82.3697 76.1689 82.0884 75.6418 81.617C75.2188 81.2152 74.8574 80.721 74.575 80.1584C74.3619 79.7385 74.1768 79.2973 74.0217 78.8394C73.8952 78.4639 73.8109 78.1628 73.7563 77.958L73.6992 77.7252C73.691 77.6994 73.686 77.6722 73.6843 77.6445C73.6843 77.6445 73.6967 77.6694 73.7116 77.719C73.7265 77.7687 73.7538 77.8556 73.7811 77.9487C73.8431 78.1473 73.9349 78.4421 74.0689 78.8146C74.2309 79.2639 74.4208 79.6966 74.637 80.1087C74.9197 80.6558 75.2785 81.1351 75.6964 81.5239C76.2133 81.9756 76.8188 82.2428 77.4479 82.2967C78.1709 82.3554 78.8968 82.278 79.6014 82.067C81.2269 81.5656 82.8735 81.1781 84.5335 80.9063C86.1987 80.6375 87.8847 80.6375 89.5499 80.9063C90.9103 81.1371 92.2346 81.6258 93.4773 82.3557C94.314 82.8463 95.0956 83.4723 95.8019 84.2178C95.9934 84.421 96.1764 84.6365 96.3502 84.8633L96.4842 85.0371C96.514 85.0805 96.5288 85.0992 96.5264 85.1023Z" fill="black"/>
<path d="M95.0651 84.9495H95.0031L94.8195 84.9123L94.1125 84.7664C93.246 84.5995 92.3732 84.4887 91.4976 84.4343C90.198 84.3543 88.8954 84.4062 87.6025 84.5895C86.0208 84.855 84.4533 85.2395 82.9085 85.7409C81.2612 86.2374 79.6585 86.6719 78.1724 86.644C77.471 86.6496 76.7717 86.5453 76.0909 86.3337C75.4972 86.1237 74.9482 85.7516 74.4833 85.2443C73.8161 84.515 73.2743 83.6239 72.8905 82.625C72.7445 82.2633 72.629 81.8837 72.5457 81.4922C72.5575 81.5142 72.5667 81.5382 72.5729 81.5636L72.6399 81.7808C72.7019 81.9732 72.7962 82.2494 72.9352 82.5939C73.3318 83.5718 73.878 84.4427 74.5428 85.1574C75.0007 85.6456 75.5384 86.0025 76.1182 86.2033C76.7905 86.4079 77.4806 86.5069 78.1724 86.4981C79.6411 86.4981 81.2314 86.0854 82.8862 85.5857C84.4368 85.0805 86.0111 84.697 87.6 84.4374C88.8993 84.2624 90.2079 84.2219 91.5124 84.3164C92.3909 84.3802 93.2656 84.5077 94.1323 84.6981C94.4399 84.7695 94.6756 84.8285 94.8369 84.875L95.018 84.9278C95.0478 84.9371 95.0651 84.9464 95.0651 84.9495Z" fill="black"/>
<path d="M95.2919 71.0234C95.2697 71.1996 95.2383 71.3738 95.1976 71.5448C95.1589 71.7488 95.1109 71.9498 95.0537 72.1469C94.9892 72.3797 94.9272 72.6466 94.828 72.929C94.7287 73.2114 94.632 73.528 94.5005 73.86C94.369 74.1921 94.2226 74.5242 94.0614 74.8811C93.337 76.4066 92.3942 77.7521 91.2802 78.8505C91.0197 79.0988 90.784 79.3377 90.536 79.5302C90.2879 79.7226 90.0646 79.9057 89.8487 80.0578C89.6329 80.2098 89.4344 80.334 89.2607 80.4426C89.1121 80.54 88.9588 80.626 88.8018 80.7002C88.6725 80.7746 88.539 80.8369 88.4023 80.8864C88.5234 80.793 88.6504 80.712 88.7819 80.6443C88.906 80.5729 89.0573 80.4829 89.2285 80.3619C89.3997 80.2409 89.5982 80.126 89.8041 79.9584C90.01 79.7908 90.2432 79.6295 90.4764 79.4184C90.7096 79.2074 90.9552 78.9808 91.2207 78.7357C92.3134 77.6327 93.2451 76.3013 93.9745 74.8004C94.1358 74.4497 94.2946 74.1207 94.4186 73.798C94.5427 73.4752 94.6667 73.1773 94.7585 72.8917C94.8503 72.6062 94.9297 72.3517 95.0066 72.1252C95.0835 71.8986 95.1282 71.6969 95.1679 71.5355C95.1975 71.3607 95.239 71.1894 95.2919 71.0234Z" fill="black"/>
<path d="M94.9195 89.5225C94.8522 89.5224 94.7849 89.5151 94.7186 89.5008L94.4705 89.4604C94.3762 89.4449 94.2646 89.4604 94.143 89.4387C93.4414 89.4176 92.7424 89.5532 92.0789 89.839C91.6213 90.0355 91.176 90.2741 90.7466 90.5528C90.2548 90.877 89.7769 91.2334 89.3151 91.6204C88.3376 92.4367 87.3154 93.436 86.2189 94.4446L80.6219 99.643L78.9125 101.195L78.4436 101.598C78.3914 101.651 78.3349 101.697 78.2749 101.735C78.3222 101.677 78.3728 101.623 78.4262 101.573L78.8803 101.133L80.5648 99.5344L86.1469 94.3143C87.2435 93.3087 88.2656 92.3094 89.2555 91.4963C89.7221 91.1093 90.2049 90.7539 90.7019 90.4318C91.139 90.1565 91.5918 89.922 92.0565 89.7304C92.7309 89.451 93.441 89.331 94.1504 89.3766C94.2745 89.3766 94.3861 89.3921 94.4804 89.4107L94.7285 89.4666C94.7934 89.4781 94.8573 89.4968 94.9195 89.5225Z" fill="black"/>
<path d="M102.922 99.0386C102.874 98.8977 102.838 98.7511 102.813 98.601C102.754 98.3186 102.669 97.9058 102.55 97.4031C102.416 96.8134 102.246 96.2376 102.042 95.6806C101.793 95.0028 101.453 94.3835 101.037 93.8495C100.623 93.3137 100.105 92.9213 99.5335 92.7106C99.0633 92.553 98.5746 92.4994 98.0896 92.5523C97.6407 92.6153 97.1951 92.7107 96.7549 92.8378C96.7815 92.8156 96.8109 92.7988 96.8417 92.7881C96.9013 92.7602 96.9881 92.723 97.0898 92.6826C97.4136 92.5624 97.746 92.4813 98.0822 92.4406C98.5804 92.3678 99.0851 92.411 99.5707 92.5678C100.165 92.7781 100.704 93.1806 101.134 93.7347C101.561 94.282 101.907 94.9198 102.156 95.6185C102.359 96.1851 102.525 96.7716 102.652 97.372C102.759 97.881 102.831 98.3031 102.875 98.5886C102.901 98.7366 102.917 98.8872 102.922 99.0386Z" fill="black"/>
<path d="M98.5229 41.112C103.401 40.8285 107.172 35.6518 106.945 29.5497C106.718 23.4475 102.58 18.7305 97.7022 19.014C92.8241 19.2975 89.0533 24.4741 89.28 30.5763C89.5066 36.6785 93.6448 41.3955 98.5229 41.112Z" fill="white"/>
<path d="M93.1923 42.8436C93.2741 42.8148 93.3568 42.791 93.4404 42.7722C93.6792 42.7352 93.9213 42.7927 94.1326 42.9367C94.2781 43.0314 94.4051 43.1649 94.5047 43.3277C94.6153 43.5171 94.6799 43.7423 94.6908 43.9764C94.7141 44.2456 94.6709 44.5172 94.567 44.7548C94.4631 44.9923 94.3035 45.1844 94.1098 45.3051C93.916 45.4258 93.6973 45.4693 93.4832 45.4298C93.269 45.3904 93.0697 45.2698 92.912 45.0843C92.7699 44.9324 92.665 44.7334 92.6093 44.5102C92.5635 44.3084 92.5541 44.0963 92.582 43.8895C92.6185 43.5917 92.7277 43.3153 92.8946 43.0981C93.0137 42.946 93.1005 42.8932 93.0956 42.8839C93.0735 42.8924 93.0526 42.9049 93.0335 42.9212C93.0084 42.9373 92.9843 42.956 92.9616 42.977C92.9304 43.0059 92.9006 43.037 92.8723 43.0701C92.7192 43.2532 92.6082 43.4841 92.5506 43.739C92.493 43.9938 92.491 44.2633 92.5448 44.5195C92.5998 44.7608 92.7102 44.9766 92.8624 45.1402C93.0281 45.3244 93.2318 45.447 93.4503 45.494C93.6856 45.5561 93.9308 45.5169 94.1461 45.3828C94.3613 45.2488 94.534 45.0276 94.6362 44.7553C94.7372 44.5083 94.7818 44.2313 94.7652 43.9546C94.7518 43.7038 94.6802 43.4633 94.5593 43.2626C94.4535 43.0897 94.3167 42.9504 94.1599 42.856C93.937 42.7119 93.6827 42.6629 93.4355 42.7163C93.3975 42.7233 93.3601 42.7348 93.3238 42.7505C93.2956 42.7595 93.2682 42.772 93.2419 42.7877C93.2122 42.8219 93.1898 42.8436 93.1923 42.8436Z" fill="#263238"/>
<path d="M90.7492 36.3564L90.6773 36.1981L90.4589 35.745C90.4118 35.6425 90.3572 35.5308 90.2977 35.4098C90.2381 35.2887 90.1935 35.1398 90.1339 34.9846C90.0744 34.8294 90.0124 34.6743 89.9454 34.488C89.9088 34.3982 89.8781 34.3048 89.8536 34.2087C89.8263 34.1094 89.7965 34.0101 89.7668 33.8984C89.4663 32.8917 89.2898 31.8337 89.2433 30.7607C89.1746 29.3396 89.3246 27.9152 89.6849 26.5648L89.8412 26C89.9032 25.8106 89.9752 25.6275 90.0421 25.4382C90.0744 25.3451 90.1091 25.252 90.1439 25.1558C90.1754 25.0588 90.2136 24.9653 90.258 24.8765L90.5061 24.321C90.5483 24.2279 90.5904 24.1347 90.6351 24.0416L90.7889 23.7747L91.099 23.2347C91.2057 23.0578 91.3322 22.8933 91.4513 22.7195L91.6324 22.462C91.6622 22.4216 91.692 22.3751 91.7242 22.3347L91.8259 22.2168C92.0921 21.8823 92.3764 21.5712 92.6769 21.2857C92.8307 21.1461 92.9796 20.9754 93.1433 20.8543L93.6395 20.4726C93.7239 20.4105 93.8057 20.3392 93.8876 20.2833L94.158 20.1219C94.3391 20.0164 94.5178 19.8985 94.7038 19.8116C95.0865 19.6212 95.4784 19.4615 95.8773 19.3336L96.18 19.2374L96.3338 19.1909L96.4901 19.1629L97.1178 19.045C97.3311 19.0171 97.5445 19.0109 97.7603 18.9953C97.867 18.9953 97.9762 18.9736 98.0854 18.9953L98.4104 19.014C98.8504 19.0341 99.2888 19.0911 99.7228 19.1847L100.375 19.3802L100.539 19.4298C100.594 19.4485 100.646 19.4733 100.7 19.495L101.02 19.6347L101.343 19.7712L101.655 19.945L101.968 20.125L102.124 20.2119C102.176 20.2461 102.224 20.2833 102.276 20.3205L102.876 20.7519L103.447 21.2609C104.978 22.6964 106.093 24.7177 106.622 27.0179C106.682 27.3003 106.739 27.5858 106.796 27.8652L106.9 28.7248L106.925 28.939V29.1531L106.942 29.5814L106.96 30.0097L106.945 30.4349L106.93 30.86V31.0711L106.908 31.279C106.875 31.5583 106.846 31.8345 106.816 32.1108C106.728 32.6517 106.611 33.1846 106.466 33.706L106.362 34.0908C106.327 34.2211 106.275 34.3391 106.233 34.4632C106.141 34.7084 106.062 34.9567 105.962 35.1925C105.863 35.4284 105.751 35.655 105.647 35.8846L105.568 36.0553C105.538 36.1112 105.506 36.1639 105.476 36.2167L105.295 36.5271C105.055 36.9451 104.794 37.3432 104.513 37.7188C104.372 37.9019 104.221 38.0664 104.077 38.2402L103.856 38.4947C103.784 38.5785 103.7 38.6498 103.623 38.7243L103.156 39.1712C102.998 39.3109 102.826 39.4288 102.66 39.5561C102.342 39.8041 102.01 40.0239 101.668 40.214L101.544 40.2885L101.415 40.3506L101.167 40.4654C100.993 40.5399 100.827 40.6299 100.656 40.692L100.14 40.8564L99.8915 40.9371L99.6434 40.9868L99.1472 41.083C99.0652 41.101 98.9823 41.1114 98.8991 41.114H98.651C98.4873 41.114 98.3235 41.142 98.1548 41.1451L97.676 41.1202C96.5393 41.0503 95.424 40.7068 94.3912 40.1085C94.2771 40.0433 94.163 39.9844 94.0538 39.9192L93.7462 39.6957L93.4485 39.4847C93.3989 39.4475 93.3492 39.4164 93.3046 39.3792L93.1731 39.2612L92.6769 38.8143C92.5206 38.6654 92.3866 38.504 92.2502 38.3612L92.0567 38.1502C91.9945 38.0856 91.9356 38.0162 91.8805 37.9422L91.5456 37.5698C91.4538 37.4457 91.3645 37.334 91.2975 37.2253L91.1065 36.915L90.8584 36.496C90.8013 36.4029 90.7691 36.3564 90.7691 36.3564L90.8534 36.5022C90.9105 36.6015 90.9948 36.7412 91.1015 36.9274L91.2876 37.2378C91.362 37.3495 91.4513 37.4612 91.5357 37.5853L91.8334 37.9919C91.8878 38.0676 91.9467 38.1382 92.0095 38.2029L92.203 38.4171C92.337 38.5598 92.471 38.7274 92.6273 38.8733L93.1235 39.3264L93.255 39.4443C93.3021 39.4847 93.3517 39.5157 93.3989 39.553L93.6966 39.7671L94.0067 39.9937L94.3441 40.1861C95.3812 40.7933 96.5026 41.1433 97.6462 41.2164L98.1275 41.2444C98.2888 41.2444 98.455 41.2258 98.6237 41.2164L98.8718 41.1978C98.955 41.1974 99.038 41.1881 99.1199 41.1699L99.6285 41.0737L99.8766 41.024L100.125 40.9433L100.646 40.7789C100.817 40.7168 100.986 40.6299 101.159 40.5554L101.42 40.4375C101.462 40.4157 101.507 40.4002 101.549 40.3754L101.675 40.3009C102.023 40.1096 102.361 39.8887 102.685 39.6399C102.849 39.5126 103.02 39.3947 103.181 39.255L103.653 38.805C103.732 38.7274 103.814 38.6592 103.901 38.5754L104.121 38.3178C104.265 38.144 104.422 37.9764 104.563 37.7933C104.847 37.4146 105.11 37.0134 105.352 36.5922C105.412 36.4836 105.474 36.3781 105.536 36.2819C105.565 36.2291 105.598 36.1764 105.627 36.1205L105.707 35.9467L106.027 35.2515C106.126 35.0125 106.208 34.7612 106.3 34.516C106.342 34.3887 106.397 34.2677 106.431 34.1405L106.535 33.7494C106.682 33.2244 106.8 32.6872 106.888 32.1418C106.92 31.8656 106.952 31.5832 106.982 31.3038L107.007 31.0928V30.8787L107.022 30.4535L107.037 30.0221L107.019 29.5907L106.999 29.1593V28.939L106.972 28.7248L106.868 27.859C106.811 27.5734 106.754 27.2879 106.694 27.0024C106.171 24.6751 105.052 22.6267 103.509 21.1709L102.933 20.6557L102.325 20.2212C102.276 20.184 102.226 20.1467 102.174 20.1126L102.015 20.0226L101.7 19.8426L101.385 19.6688L101.06 19.5291L100.735 19.3895L100.574 19.3212L100.408 19.2747C100.189 19.2064 99.9684 19.1412 99.7501 19.0791C99.3122 18.9831 98.8695 18.925 98.4252 18.9053L98.0978 18.8867C97.9886 18.8867 97.8794 18.8867 97.7703 18.8867C97.552 18.9053 97.3361 18.9084 97.1227 18.9364L96.4876 19.0574L96.3313 19.0884C96.2792 19.0884 96.2271 19.1195 96.1775 19.135L95.8699 19.2343C95.4681 19.3614 95.0735 19.5221 94.6889 19.7154C94.5004 19.8147 94.3193 19.9357 94.1357 20.0412L93.8653 20.2057C93.776 20.2616 93.6941 20.333 93.6172 20.3981L93.121 20.783C92.9573 20.9195 92.8059 21.0778 92.6521 21.2206C92.3493 21.506 92.0625 21.8171 91.7937 22.1516L91.692 22.2726C91.6597 22.313 91.6299 22.3595 91.6002 22.403C91.5704 22.4464 91.4786 22.5768 91.4166 22.6606C91.2975 22.8375 91.1685 23.002 91.0643 23.1789L90.7517 23.7251L90.5979 23.9951C90.5532 24.0882 90.511 24.1844 90.4689 24.2775L90.2208 24.8361C90.1776 24.9264 90.1403 25.0209 90.1091 25.1186L90.0049 25.4041C89.9379 25.5934 89.866 25.7796 89.8065 25.9689C89.7469 26.1582 89.7023 26.3507 89.6502 26.54C89.2902 27.899 89.1436 29.3322 89.2185 30.7607C89.268 31.839 89.4496 32.9014 89.7568 33.9108L89.8461 34.2211C89.8707 34.3172 89.9014 34.4106 89.9379 34.5005L90.1315 34.997C90.1935 35.1491 90.2431 35.2919 90.3002 35.4191L90.4639 35.7512L90.6897 36.2012C90.7194 36.3036 90.7492 36.3564 90.7492 36.3564Z" fill="#263238"/>
<path d="M93.6487 30.341L94.9586 28.7023L97.4842 31.511L102.441 25.543L103.657 27.1816L97.2981 34.6704L93.6487 30.341Z" fill="#FF725E"/>
</svg>
