<svg width="151" height="150" viewBox="0 0 151 150" fill="none" xmlns="http://www.w3.org/2000/svg">
<path d="M127.062 9.375H91.9062C88.1776 9.3781 84.6025 10.8607 81.966 13.4972C79.3294 16.1338 77.8469 19.7088 77.8438 23.4375V58.5938C77.8469 62.3224 79.3294 65.8975 81.966 68.534C84.6025 71.1706 88.1776 72.6531 91.9062 72.6562H127.062C130.791 72.6531 134.366 71.1706 137.003 68.534C139.639 65.8975 141.122 62.3224 141.125 58.5938V23.4375C141.122 19.7088 139.639 16.1338 137.003 13.4972C134.366 10.8607 130.791 9.3781 127.062 9.375ZM121.906 51.0937C121.902 53.0483 121.122 54.9212 119.738 56.3011C118.353 57.681 116.478 58.455 114.523 58.4531H104.445C102.491 58.455 100.615 57.681 99.2311 56.3011C97.8468 54.9212 97.0668 53.0483 97.0625 51.0937V25.9219C97.0625 25.3003 97.3094 24.7041 97.749 24.2646C98.1885 23.8251 98.7847 23.5781 99.4062 23.5781C100.028 23.5781 100.624 23.8251 101.064 24.2646C101.503 24.7041 101.75 25.3003 101.75 25.9219V51.0937C101.755 51.8049 102.041 52.4852 102.546 52.9859C103.051 53.4865 103.734 53.7669 104.445 53.7656H114.523C115.235 53.7669 115.917 53.4865 116.422 52.9859C116.927 52.4852 117.214 51.8049 117.219 51.0937V25.9219C117.219 25.3003 117.466 24.7041 117.905 24.2646C118.345 23.8251 118.941 23.5781 119.562 23.5781C120.184 23.5781 120.78 23.8251 121.22 24.2646C121.659 24.7041 121.906 25.3003 121.906 25.9219V51.0937ZM127.062 77.3438H91.9062C88.1776 77.3469 84.6025 78.8294 81.966 81.466C79.3294 84.1025 77.8469 87.6776 77.8438 91.4062V126.562C77.8469 130.291 79.3294 133.866 81.966 136.503C84.6025 139.139 88.1776 140.622 91.9062 140.625H127.062C130.791 140.622 134.366 139.139 137.003 136.503C139.639 133.866 141.122 130.291 141.125 126.562V91.4062C141.122 87.6776 139.639 84.1025 137.003 81.466C134.366 78.8294 130.791 77.3469 127.062 77.3438ZM119.562 126.422H99.4062C98.9849 126.422 98.5714 126.308 98.2087 126.094C97.846 125.88 97.5473 125.572 97.3438 125.203C97.1485 124.826 97.0564 124.404 97.077 123.98C97.0976 123.556 97.2301 123.145 97.4609 122.789L115.18 96.2344H99.4062C98.7847 96.2344 98.1885 95.9874 97.749 95.5479C97.3094 95.1084 97.0625 94.5122 97.0625 93.8906C97.0625 93.269 97.3094 92.6729 97.749 92.2333C98.1885 91.7938 98.7847 91.5469 99.4062 91.5469H119.562C119.984 91.5472 120.397 91.6605 120.76 91.8748C121.123 92.0891 121.421 92.3967 121.625 92.7656C121.82 93.1426 121.912 93.5644 121.892 93.9884C121.871 94.4125 121.739 94.8235 121.508 95.1797L103.789 121.734H119.562C120.184 121.734 120.78 121.981 121.22 122.421C121.659 122.86 121.906 123.457 121.906 124.078C121.906 124.7 121.659 125.296 121.22 125.735C120.78 126.175 120.184 126.422 119.562 126.422ZM59.0938 77.3438H23.9375C20.2088 77.3469 16.6338 78.8294 13.9972 81.466C11.3607 84.1025 9.8781 87.6776 9.875 91.4062V126.562C9.8781 130.291 11.3607 133.866 13.9972 136.503C16.6338 139.139 20.2088 140.622 23.9375 140.625H59.0938C62.8224 140.622 66.3975 139.139 69.034 136.503C71.6706 133.866 73.1531 130.291 73.1562 126.562V91.4062C73.1531 87.6776 71.6706 84.1025 69.034 81.466C66.3975 78.8294 62.8224 77.3469 59.0938 77.3438ZM43.8594 120.305C43.8594 120.926 43.6124 121.522 43.1729 121.962C42.7334 122.402 42.1372 122.648 41.5156 122.648C40.894 122.648 40.2979 122.402 39.8583 121.962C39.4188 121.522 39.1719 120.926 39.1719 120.305V90.0938C39.1719 89.4721 39.4188 88.876 39.8583 88.4365C40.2979 87.9969 40.894 87.75 41.5156 87.75C42.1372 87.75 42.7334 87.9969 43.1729 88.4365C43.6124 88.876 43.8594 89.4721 43.8594 90.0938V120.305ZM57.875 9.375H25.1563C21.1036 9.37562 17.2171 10.9858 14.3515 13.8515C11.4858 16.7171 9.87562 20.6036 9.875 24.6563V57.375C9.87562 61.4277 11.4858 65.3141 14.3515 68.1798C17.2171 71.0454 21.1036 72.6556 25.1563 72.6562H57.875C61.9277 72.6556 65.8141 71.0454 68.6798 68.1798C71.5454 65.3141 73.1556 61.4277 73.1562 57.375V24.6563C73.1556 20.6036 71.5454 16.7171 68.6798 13.8515C65.8141 10.9858 61.9277 9.37562 57.875 9.375ZM59.1406 58.4531H34.5547C33.1067 58.4519 31.7184 57.8761 30.6946 56.8523C29.6707 55.8284 29.095 54.4401 29.0938 52.9922V29.0391C29.095 27.5911 29.6707 26.2028 30.6946 25.179C31.7184 24.1551 33.1067 23.5794 34.5547 23.5781H48.4766C49.9245 23.5794 51.3128 24.1551 52.3367 25.179C53.3605 26.2028 53.9363 27.5911 53.9375 29.0391V52.9922C53.9323 53.2525 53.9009 53.5116 53.8438 53.7656H59.1406C59.7622 53.7656 60.3584 54.0126 60.7979 54.4521C61.2374 54.8916 61.4844 55.4878 61.4844 56.1094C61.4844 56.731 61.2374 57.3271 60.7979 57.7667C60.3584 58.2062 59.7622 58.4531 59.1406 58.4531Z" fill="#08496D"/>
<path d="M48.4766 28.2656H34.5547C34.1275 28.2656 33.7812 28.6119 33.7812 29.0391V52.9922C33.7812 53.4193 34.1275 53.7656 34.5547 53.7656H48.4766C48.9037 53.7656 49.25 53.4193 49.25 52.9922V29.0391C49.25 28.6119 48.9037 28.2656 48.4766 28.2656Z" fill="#08496D"/>
</svg>
