<svg width="22" height="22" viewBox="0 0 22 22" fill="none" xmlns="http://www.w3.org/2000/svg">
<path d="M1.68675 14.6451L3.59494 13.5435C3.6983 13.4839 3.8196 13.4631 3.9369 13.4851L7.6914 14.1878C7.99995 14.2455 8.28478 14.008 8.28338 13.6941L8.26876 10.4045C8.26836 10.3151 8.29193 10.2272 8.33701 10.15L10.2317 6.90621C10.3303 6.73739 10.3215 6.52658 10.2091 6.3666L7.01892 1.82568M18.0002 3.85905C12.5002 6.50004 15.5 10 16.5002 10.5C18.3773 11.4384 20.9876 11.5 20.9876 11.5C20.9958 11.3344 21 11.1677 21 11C21 5.47715 16.5228 1 11 1C5.47715 1 1 5.47715 1 11C1 16.5228 5.47715 21 11 21C11.1677 21 11.3344 20.9959 11.5 20.9877M15.7578 20.9398L12.591 12.591L20.9398 15.7578L17.2376 17.2376L15.7578 20.9398Z" stroke="#667085" stroke-width="2" stroke-linecap="round" stroke-linejoin="round"/>
</svg>
