<svg width="25" height="44" viewBox="0 0 25 44" fill="none" xmlns="http://www.w3.org/2000/svg">
<rect width="25" height="44" rx="4" fill="white"/>
<path d="M9 16C9.55228 16 10 15.5523 10 15C10 14.4477 9.55228 14 9 14C8.44772 14 8 14.4477 8 15C8 15.5523 8.44772 16 9 16Z" stroke="#818181" stroke-width="2" stroke-linecap="round" stroke-linejoin="round"/>
<path d="M9 23C9.55228 23 10 22.5523 10 22C10 21.4477 9.55228 21 9 21C8.44772 21 8 21.4477 8 22C8 22.5523 8.44772 23 9 23Z" stroke="#818181" stroke-width="2" stroke-linecap="round" stroke-linejoin="round"/>
<path d="M9 30C9.55228 30 10 29.5523 10 29C10 28.4477 9.55228 28 9 28C8.44772 28 8 28.4477 8 29C8 29.5523 8.44772 30 9 30Z" stroke="#818181" stroke-width="2" stroke-linecap="round" stroke-linejoin="round"/>
<path d="M16 16C16.5523 16 17 15.5523 17 15C17 14.4477 16.5523 14 16 14C15.4477 14 15 14.4477 15 15C15 15.5523 15.4477 16 16 16Z" stroke="#818181" stroke-width="2" stroke-linecap="round" stroke-linejoin="round"/>
<path d="M16 23C16.5523 23 17 22.5523 17 22C17 21.4477 16.5523 21 16 21C15.4477 21 15 21.4477 15 22C15 22.5523 15.4477 23 16 23Z" stroke="#818181" stroke-width="2" stroke-linecap="round" stroke-linejoin="round"/>
<path d="M16 30C16.5523 30 17 29.5523 17 29C17 28.4477 16.5523 28 16 28C15.4477 28 15 28.4477 15 29C15 29.5523 15.4477 30 16 30Z" stroke="#818181" stroke-width="2" stroke-linecap="round" stroke-linejoin="round"/>
</svg>
