<svg width="44" height="44" viewBox="0 0 44 44" fill="none" xmlns="http://www.w3.org/2000/svg">
<rect width="44" height="44" rx="22" fill="#206AD3"/>
<g clip-path="url(#clip0_791_10496)">
<path d="M33.9996 15.3858V14.5996H30.6191V15.3858H31.9163V28.6152H30.6191V29.4014H33.9996V28.6152H32.7024V15.3858H33.9996Z" fill="white"/>
<path d="M10.1459 26.2011L14.1023 17.2665C14.3781 16.6504 14.8806 16.2773 15.5619 16.2773H15.7078C16.3886 16.2773 16.8752 16.6504 17.1508 17.2665L21.1074 26.2011C21.1885 26.3795 21.2372 26.5416 21.2372 26.7038C21.2372 27.3686 20.7183 27.9037 20.0534 27.9037C19.4697 27.9037 19.0805 27.5633 18.8535 27.0443L18.0915 25.2607H13.0972L12.3026 27.1255C12.0918 27.6119 11.6703 27.9037 11.1513 27.9037C10.5025 27.9037 10 27.3849 10 26.7362C10 26.5578 10.0648 26.3795 10.1459 26.2011ZM17.1672 23.0554L15.5942 19.3097L14.0214 23.0554H17.1672ZM22.4203 25.3093V25.2768C22.4203 23.3797 23.8635 22.504 25.9228 22.504C26.7985 22.504 27.4309 22.6499 28.0471 22.8608V22.7149C28.0471 21.6932 27.4146 21.1258 26.1823 21.1258C25.5013 21.1258 24.9499 21.223 24.4797 21.369C24.3338 21.4177 24.2365 21.4338 24.1228 21.4338C23.5554 21.4338 23.1014 20.996 23.1014 20.4286C23.1014 19.9907 23.377 19.6178 23.7661 19.4718C24.5444 19.1799 25.3877 19.0177 26.539 19.0177C27.8848 19.0177 28.8578 19.3744 29.474 19.9906C30.1226 20.6392 30.4144 21.596 30.4144 22.7635V26.7199C30.4144 27.3849 29.8793 27.9037 29.2145 27.9037C28.501 27.9037 28.0308 27.401 28.0308 26.8821V26.8659C27.4309 27.5307 26.6037 27.9684 25.404 27.9684C23.7661 27.9686 22.4203 27.0282 22.4203 25.3093ZM28.0794 24.7417V24.3039C27.6578 24.1094 27.1065 23.9796 26.5065 23.9796C25.4524 23.9796 24.8039 24.4012 24.8039 25.1795V25.212C24.8039 25.8768 25.3553 26.2659 26.1498 26.2659C27.301 26.266 28.0794 25.6337 28.0794 24.7417Z" fill="white"/>
</g>
<defs>
<clipPath id="clip0_791_10496">
<rect width="24" height="24" fill="white" transform="translate(10 10)"/>
</clipPath>
</defs>
</svg>
