<svg width="44" height="44" viewBox="0 0 44 44" fill="none" xmlns="http://www.w3.org/2000/svg">
<rect width="44" height="44" rx="22" fill="#D8764E"/>
<path d="M32 18.9314C32 18.3256 32 18.0226 31.8802 17.8824C31.7763 17.7607 31.6203 17.6961 31.4608 17.7086C31.2769 17.7231 31.0627 17.9373 30.6343 18.3657L27 22L30.6343 25.6343C31.0627 26.0627 31.2769 26.2769 31.4608 26.2914C31.6203 26.3039 31.7763 26.2393 31.8802 26.1176C32 25.9774 32 25.6744 32 25.0686V18.9314Z" fill="white"/>
<path d="M12 19.8C12 18.1198 12 17.2798 12.327 16.638C12.6146 16.0735 13.0735 15.6146 13.638 15.327C14.2798 15 15.1198 15 16.8 15H22.2C23.8802 15 24.7202 15 25.362 15.327C25.9265 15.6146 26.3854 16.0735 26.673 16.638C27 17.2798 27 18.1198 27 19.8V24.2C27 25.8802 27 26.7202 26.673 27.362C26.3854 27.9265 25.9265 28.3854 25.362 28.673C24.7202 29 23.8802 29 22.2 29H16.8C15.1198 29 14.2798 29 13.638 28.673C13.0735 28.3854 12.6146 27.9265 12.327 27.362C12 26.7202 12 25.8802 12 24.2V19.8Z" fill="white"/>
</svg>
