<svg width="16" height="14" viewBox="0 0 16 14" fill="none" xmlns="http://www.w3.org/2000/svg">
<path d="M11.2437 0.207031C10.0203 0.207031 8.87397 0.664616 7.99998 1.48333C7.12598 0.664616 5.97968 0.207031 4.7563 0.207031C2.13368 0.207031 0 2.34076 0 4.96342C0 6.25525 0.425164 7.52704 1.26366 8.74337C1.91197 9.68381 2.80887 10.5929 3.92937 11.4452C5.809 12.8751 7.66475 13.654 7.74285 13.6865L7.99806 13.7926L8.25384 13.6879C8.33199 13.6559 10.1889 12.888 12.0696 11.4633C13.1907 10.6139 14.0881 9.7052 14.7367 8.76226C15.575 7.54361 16 6.26553 16 4.96346C16 2.34076 13.8663 0.207031 11.2437 0.207031ZM8.00141 12.335C6.74962 11.7553 1.33966 9.01398 1.33966 4.96342C1.33966 3.07945 2.87237 1.54674 4.75634 1.54674C5.827 1.54674 6.81558 2.03478 7.46862 2.88573L8.00002 3.5782L8.53142 2.88573C9.18446 2.03478 10.173 1.54674 11.2437 1.54674C13.1276 1.54674 14.6604 3.07945 14.6604 4.96342C14.6603 9.04309 9.25265 11.761 8.00141 12.335Z" fill="white"/>
</svg>
